<svg width="521" height="522" viewBox="0 0 521 522" fill="none" xmlns="http://www.w3.org/2000/svg">
<path fill-rule="evenodd" clip-rule="evenodd" d="M4.03149 223.171L4.44005 242.128L13.2648 274.976L59.0226 353.663L156.013 448.61L238.704 494.695L330.22 500.823L388.561 473.042L438.731 442.564L476.727 399.829L495.03 359.464L516.519 301.123L519.706 286.415L520.605 276.61C519.216 222.599 413.891 184.032 301.458 167.935C165.9 148.569 14.899 148.733 4.03149 223.253V223.171Z" fill="url(#paint0_linear_45_157)"/>
<path fill-rule="evenodd" clip-rule="evenodd" d="M260.848 10.8057C401.063 10.8057 514.64 124.465 514.64 264.598C514.64 404.732 400.981 518.391 260.848 518.391C120.714 518.391 7.05493 404.732 7.05493 264.598C7.05493 124.465 120.714 10.8057 260.848 10.8057Z" fill="url(#paint1_radial_45_157)"/>
<path fill-rule="evenodd" clip-rule="evenodd" d="M97.1816 68.9835C95.1388 73.2325 93.7497 76.8277 89.8276 80.9133C76.6723 94.8041 47.8285 109.675 47.0931 130.92C47.0114 134.27 49.2175 137.457 48.9724 140.725C48.4822 147.344 46.1943 153.717 45.0503 160.254C43.4161 169.733 47.7468 181.744 59.2679 178.884C65.5596 177.332 78.3065 172.919 79.9407 173.328C86.1507 174.88 93.668 182.561 101.267 181.826C113.442 180.6 123.737 169.569 133.951 166.382C156.177 159.519 179.137 183.296 186.981 204.868C198.503 236.245 210.514 276.12 221.055 283.147C227.428 287.396 238.949 289.847 242.463 292.298C253.902 300.224 260.929 325.554 268.283 334.543C276.454 344.511 288.139 348.924 302.193 345.083C313.551 341.978 335.94 337.157 343.212 336.258C363.231 333.807 401.717 337.566 411.032 333.235C425.413 326.453 439.957 312.154 445.922 307.496C461.447 295.322 474.684 290.337 482.038 279.225C485.143 274.567 484.326 262.556 484.571 255.283C484.898 244.171 492.905 240.576 496.746 232.568C506.714 212.059 490.863 172.02 483.836 151.675C481.793 145.791 479.26 140.153 477.38 134.189C476.073 130.185 475.256 126.426 474.439 122.749C472.56 114.415 461.855 90.2283 449.435 79.1973C438.976 69.9641 422.634 65.7968 411.195 57.1355C367.807 24.0428 302.602 2.47121 261.175 0.265031C248.755 -0.388652 209.533 12.8484 185.102 20.4475C159.608 28.3734 133.706 36.1359 112.216 51.0889C105.353 55.9099 100.532 61.5479 96.8548 69.147L97.1816 68.9835ZM22.9885 254.058C20.2103 255.529 16.1248 255.529 13.6735 253.241C8.44402 248.256 4.68534 234.611 4.11337 223.171C1.98889 236.653 1.66205 250.544 0.844942 264.598C-1.19782 299.979 1.17178 328.986 4.27678 339.772C8.11717 353.173 25.5215 382.752 52.9762 420.829C72.0965 447.385 102.003 481.213 114.913 487.831C134.85 497.964 211.086 521.006 260.848 521.006C281.03 521.006 301.948 519.78 322.131 516.512C343.375 513.08 373.608 506.461 382.76 501.559C402.942 490.773 436.77 459.233 458.505 432.35C474.929 412.086 503.038 375.316 505.571 368.371C509.084 358.729 519.298 307.987 520.687 276.61C518.236 302.594 509.82 301.45 498.952 321.632C494.376 330.13 491.108 339.282 487.431 348.27C478.933 368.943 470.762 394.845 458.587 413.393C453.93 420.584 448.046 427.039 441.264 432.35C436.934 435.782 431.459 437.906 425.985 439.132C422.308 439.949 418.467 437.334 414.79 438.151C396.324 441.992 386.11 460.05 372.056 469.365C364.13 474.594 355.142 478.353 345.99 480.886C307.668 491.59 288.793 463.89 285.279 460.867C274.33 451.634 238.05 447.63 222.525 443.544C185.674 433.821 190.822 405.549 188.942 398.113C186.573 388.717 181.752 383.732 176.032 380.791C170.231 377.767 134.278 374.581 123.492 369.596C96.1193 356.85 86.2324 330.049 82.4737 290.746C81.3298 278.734 77.5711 256.509 75.2015 252.424C69.7269 243.109 58.8594 238.696 49.1358 241.066C44.8052 242.128 31.6498 249.482 22.9068 254.139L22.9885 254.058ZM315.675 298.427C313.388 300.469 310.854 312.808 310.854 316.321C310.854 318.936 312.08 323.267 314.123 322.858C320.905 321.714 333.161 319.426 343.048 317.955C349.34 317.057 356.367 317.057 362.659 315.667C364.538 315.259 366.581 313.461 367.071 311.173C367.643 308.314 360.044 298.427 356.939 297.119C347.542 293.115 323.438 291.318 315.675 298.345V298.427ZM229.389 159.11C214.763 160.172 214.109 185.503 215.743 196.452C217.623 208.79 221.055 221.128 227.101 231.996C231.35 239.677 248.101 245.233 256.435 242.455C260.112 241.229 263.626 237.307 263.953 233.385C264.77 223.988 259.459 214.918 259.622 205.522C259.704 195.962 266.649 174.799 261.91 170.55C253.494 162.869 239.603 158.375 229.471 159.11H229.389ZM178.238 112.617C174.153 112.78 169.659 114.006 166.881 117.356C164.429 120.379 162.55 125.854 164.348 129.531C169.495 140.072 177.748 148.57 185.837 156.332C188.289 158.702 192.129 160.254 195.071 159.028C198.176 157.721 199.973 153.554 200.954 149.877C203.078 141.461 204.958 132.636 204.141 123.811C203.814 120.379 200.79 117.274 198.012 116.049C191.721 113.352 184.775 112.372 178.157 112.699L178.238 112.617ZM113.36 126.426C104.29 128.142 91.2984 143.994 96.773 150.694C98.5707 152.9 101.921 154.616 104.699 153.799C112.053 151.838 118.263 146.527 125.208 143.258C127.823 142.033 130.765 141.788 133.216 140.153C137.383 137.293 135.504 129.286 132.726 128.142C126.842 125.691 119.815 125.2 113.442 126.426H113.36Z" fill="url(#paint2_radial_45_157)"/>
<path style="mix-blend-mode:screen" fill-rule="evenodd" clip-rule="evenodd" d="M82.5553 290.664C81.4114 278.653 77.6527 256.427 75.2831 252.342C69.8085 243.027 58.941 238.614 49.2174 240.984C44.8868 242.046 31.7314 249.4 22.9884 254.058C22.1713 254.548 21.1907 254.793 20.2102 254.957C20.2102 267.785 22.9884 278.734 34.1827 291.154C40.311 297.936 47.9101 297.037 58.941 312.154C62.2094 316.648 63.6802 322.286 67.4389 326.372C73.322 332.827 79.6954 339.2 87.4579 343.286C90.808 345.083 94.485 346.227 98.3254 347.126C89.3373 332.908 84.9249 313.952 82.7187 290.582L82.5553 290.664ZM229.389 159.11C214.763 160.172 214.109 185.503 215.743 196.452C217.623 208.79 221.055 221.128 227.101 231.996C231.35 239.677 248.101 245.233 256.435 242.455C260.112 241.229 263.626 237.307 263.953 233.385C264.77 223.988 259.458 214.918 259.622 205.522C259.704 195.962 266.649 174.799 261.91 170.55C253.494 162.869 239.603 158.375 229.471 159.11H229.389ZM178.238 112.617C174.153 112.78 169.659 114.006 166.881 117.356C164.429 120.379 162.55 125.854 164.347 129.531C169.495 140.072 177.748 148.57 185.837 156.332C188.289 158.702 192.129 160.254 195.071 159.028C198.176 157.721 199.973 153.554 200.954 149.877C203.078 141.461 204.958 132.636 204.14 123.811C203.814 120.379 200.79 117.274 198.012 116.049C191.721 113.352 184.775 112.372 178.157 112.699L178.238 112.617ZM113.36 126.426C104.29 128.142 91.2983 143.994 96.7729 150.694C98.5706 152.9 101.921 154.616 104.699 153.799C112.053 151.838 118.263 146.527 125.208 143.258C127.823 142.033 130.764 141.788 133.216 140.153C137.383 137.294 135.504 129.286 132.726 128.142C126.842 125.691 119.815 125.2 113.442 126.426H113.36ZM198.993 16.0352C194.172 17.5877 189.596 19.0584 185.429 20.3658C159.935 28.2917 134.033 36.0542 112.543 51.0072C105.679 55.8282 100.858 61.4662 97.1815 69.0653C96.7729 69.9641 96.2827 70.8629 95.8741 71.7617C94.4033 74.8667 92.8508 77.8083 89.8275 80.995C84.2712 86.7964 76.0185 92.843 68.256 99.3798C58.6958 107.469 49.7894 116.457 47.6649 126.998C47.4198 128.305 47.2564 129.613 47.1747 131.002C47.093 134.352 49.2991 137.539 49.054 140.807C48.5637 147.426 46.2758 153.799 45.1319 160.336C44.2331 165.238 45.0502 170.877 47.5832 174.799C49.9528 178.312 53.7932 180.355 59.3495 179.048C65.6412 177.495 78.3881 173.083 80.0223 173.491C86.2323 175.044 93.7496 182.725 101.349 181.989C113.524 180.763 123.819 169.733 134.033 166.546C156.258 159.682 179.219 183.46 187.063 205.031C198.584 236.408 210.596 276.283 221.136 283.31C227.51 287.559 239.031 290.01 242.544 292.462C250.062 297.609 255.7 310.275 260.684 320.897C266.404 315.831 270.735 309.212 275.392 303.166C280.785 296.22 283.808 287.396 289.936 281.104C300.15 270.808 314.695 271.299 323.193 251.606C326.706 243.517 324.173 233.548 327.932 225.541C332.426 215.899 342.721 209.771 347.216 200.129C350.566 193.02 353.017 185.258 354.079 177.332C354.488 174.39 354.651 171.448 354.651 168.589C354.488 150.939 348.768 133.862 346.48 116.376C344.928 104.446 346.725 92.0259 343.457 80.423C337.819 60.8125 326.216 58.5246 313.306 48.5559C305.625 42.5911 299.905 34.0115 291.244 29.5991C279.886 23.7977 267.221 20.6927 254.638 18.4048C242.463 16.1986 233.72 16.4437 221.381 17.1791C215.662 17.5059 211.086 17.0974 206.51 16.6888C203.977 16.4437 201.444 16.2803 198.829 16.1986L198.993 16.0352ZM304.481 75.357C304.726 73.0691 307.586 71.3532 309.874 70.9446C321.558 69.0653 333.243 84.1817 335.613 94.8858C337.247 102.158 335.939 109.92 337.329 117.274C338.636 124.22 342.395 130.675 343.784 137.62C348.686 162.052 349.749 180.518 335.286 201.028C326.053 214.101 314.776 211.323 314.286 194.573C314.123 188.199 316.084 181.826 318.372 175.943C325.971 156.332 335.286 152.247 334.959 128.469C334.959 124.71 334.387 120.706 332.262 117.601C329.729 114.006 322.13 111.146 321.722 109.43C321.15 106.979 320.414 100.197 317.963 96.52C315.185 92.271 311.345 92.6796 308.158 88.7575C305.216 85.1622 303.991 80.0145 304.399 75.357H304.481ZM77.2441 117.274C73.322 115.395 77.0807 102.812 79.6137 100.115C82.9639 96.6017 88.275 96.0297 92.524 93.6601C95.7924 91.7808 99.5511 90.3917 102.002 87.5318C103.473 85.8159 108.703 67.5945 112.706 61.9564C115.566 57.7892 125.453 51.5792 128.395 54.4391C129.947 55.9099 128.803 63.8358 127.823 65.7151C125.78 69.5555 120.551 72.252 119.734 79.3608C119.407 81.9755 121.613 92.5979 120.387 99.053C119.57 103.547 117.773 108.695 113.932 111.228C109.765 114.088 103.8 112.127 98.9791 113.597C95.8741 114.578 93.6679 117.846 90.4812 118.337C86.1506 119.072 81.2479 119.072 77.2441 117.111V117.274Z" fill="url(#paint3_radial_45_157)"/>
<path style="mix-blend-mode:multiply" opacity="0.7" fill-rule="evenodd" clip-rule="evenodd" d="M222.444 453.84C212.965 450.735 156.422 440.439 141.795 424.016C134.932 416.335 129.621 401.545 123.492 398.93C121.204 397.95 111.971 396.969 101.757 395.417C93.668 394.191 85.0066 392.557 78.7149 390.106C68.6646 386.265 59.6764 379.565 52.2408 371.803C23.4787 341.815 36.1438 336.013 25.4397 301.286C22.825 292.87 15.7979 286.415 12.5295 278.244C8.93421 269.338 7.46342 261.493 7.13658 254.303C7.13658 253.568 7.13658 252.832 7.13658 252.178C7.13658 248.747 7.29999 245.396 7.62684 242.21C5.66578 236.408 4.35842 229.463 4.03158 223.171C1.90711 236.653 1.58026 250.544 0.763155 264.598C-1.27961 299.979 1.09 328.986 4.195 339.772C8.03539 353.173 25.4397 382.752 52.8944 420.829C72.0147 447.385 101.921 481.213 114.831 487.831C134.768 497.964 211.004 521.006 260.766 521.006C280.948 521.006 301.866 519.78 322.049 516.512C343.293 513.08 373.526 506.461 382.678 501.559C402.86 490.773 436.688 459.233 458.423 432.35C474.847 412.086 502.956 375.316 505.489 368.371C509.002 358.729 519.216 307.987 520.605 276.61C519.216 290.827 516.111 296.956 511.78 302.839C508.185 307.742 503.773 312.481 498.87 321.551C494.294 330.049 491.026 339.2 487.349 348.188C478.851 368.861 470.68 394.763 458.505 413.311C453.848 420.502 447.965 426.957 441.183 432.268C436.852 435.7 431.377 437.825 425.903 439.05C422.226 439.867 418.385 437.253 414.708 438.07C396.242 441.91 386.028 459.968 371.974 469.283C364.048 474.513 355.06 478.271 345.908 480.804C316.901 488.894 299.006 475.003 290.59 466.423C283.808 459.56 270.163 454.984 266.567 454.33C262.4 453.595 258.069 453.922 253.657 454.657C246.63 455.801 229.062 456.128 222.362 454.003L222.444 453.84ZM439.385 158.211C441.428 171.04 450.334 182.479 450.906 195.471C451.07 199.802 450.334 203.152 449.027 206.257C444.206 217.451 432.603 225.132 438.078 265.987C439.058 273.423 440.12 280.94 439.467 288.376C438.568 298.427 436.28 308.313 433.584 317.955C438.976 313.461 443.47 309.376 446.167 307.251C461.692 295.076 474.929 290.092 482.283 278.979C485.388 274.322 484.571 262.311 484.816 255.038C485.061 244.743 492.088 240.902 496.174 233.957C496.501 233.467 496.746 232.895 497.073 232.323C507.041 211.813 491.189 171.775 484.162 151.429C482.12 145.546 479.586 139.908 477.707 133.943C477.38 132.963 477.053 131.982 476.808 131.002C475.991 128.06 475.338 125.282 474.766 122.504C472.886 114.169 462.182 89.9831 449.762 78.9522C439.303 69.7189 422.961 65.5517 411.522 56.8904C368.133 23.7976 302.928 2.22609 261.501 0.0199038C256.435 -0.225228 246.875 1.81753 235.681 4.84082C251.287 6.72016 269.019 8.84464 286.014 11.8679C303.419 14.9729 319.924 18.9767 332.344 24.533C337.982 27.0661 340.924 33.5212 345.908 37.1165C354.324 43.0813 364.048 46.9217 372.382 53.05C379.328 58.1978 384.476 65.47 391.339 70.6995C396.896 74.8667 402.86 78.2985 407.273 83.6097C412.584 89.9014 414.954 96.8468 419.121 103.956C425.739 115.313 432.44 122.504 437.097 134.842C439.63 141.624 438.323 151.103 439.467 158.211H439.385Z" fill="url(#paint4_radial_45_157)"/>
<path style="mix-blend-mode:screen" fill-rule="evenodd" clip-rule="evenodd" d="M45.1319 138.437C31.4862 164.258 20.2919 193.347 17.0235 222.517C16.1247 230.362 12.5294 254.711 27.1556 246.213C45.5404 235.591 81.5748 209.525 85.4969 252.995C87.2128 272.688 89.3373 324.901 100.041 339.445C113.442 357.667 143.92 374.172 188.207 366.573C202.751 364.122 217.95 348.515 217.378 342.877C216.56 334.297 175.215 335.36 243.443 322.694C246.14 322.204 248.918 319.671 249.245 316.893C249.653 312.971 246.63 305.29 242.953 303.656C240.093 302.349 236.089 301.613 231.84 300.959C211.74 297.609 207.327 294.995 202.996 279.306C195.479 251.77 193.355 223.416 179.055 196.37C169.495 178.312 150.375 171.857 133.624 177.74C121.204 182.071 98.162 198.086 85.4969 197.432C77.7344 197.024 77.0807 192.366 77.4892 188.281C77.8161 184.44 78.1429 181.989 76.5087 180.763C73.4854 178.557 63.6802 182.479 60.0032 183.623C51.9139 186.32 43.0074 187.872 40.4744 175.044C39.4939 170.223 40.2293 165.157 40.9646 160.336C41.6183 156.087 43.416 152.083 44.7233 147.997C45.6221 145.219 46.8478 142.523 47.4198 139.581C47.5832 138.682 47.8283 137.375 47.0112 136.967C46.2758 136.64 45.6221 137.784 45.2136 138.519L45.1319 138.437Z" fill="url(#paint5_radial_45_157)"/>
<path style="mix-blend-mode:multiply" fill-rule="evenodd" clip-rule="evenodd" d="M433.584 318.037C428.926 325.636 422.88 332.5 419.529 340.752C415.689 350.149 421 362.324 408.662 377.359C405.067 381.771 399.265 384.222 393.709 385.53C366.663 391.74 332.916 388.716 308.24 409.961C293.695 422.545 295.084 442.564 268.774 453.349C275.801 455.392 281.766 457.762 285.197 460.703C288.711 463.645 307.504 491.427 345.908 480.722C355.06 478.189 364.048 474.431 371.974 469.201C386.028 459.886 396.242 441.828 414.708 437.988C418.385 437.252 422.226 439.785 425.903 438.968C431.377 437.743 436.77 435.618 441.183 432.186C447.883 426.875 453.766 420.338 458.505 413.23C470.68 394.681 478.769 368.779 487.349 348.106C491.026 339.2 494.294 329.967 498.87 321.469C503.773 312.399 508.185 307.578 511.781 302.757C513.66 290.337 514.64 277.59 514.64 264.598C514.64 215.654 500.75 169.896 476.808 131.165C477.054 132.146 477.38 133.126 477.707 134.107C479.587 139.99 482.12 145.71 484.162 151.593C491.189 171.939 506.96 211.977 497.073 232.486C493.232 240.494 485.143 244.089 484.898 255.202C484.734 262.474 485.47 274.567 482.365 279.143C475.011 290.174 461.692 295.24 446.249 307.415C443.552 309.539 439.058 313.625 433.665 318.119L433.584 318.037ZM285.769 420.829C286.832 424.996 285.279 429.98 282.419 433.167C278.661 437.252 272.941 439.214 267.63 440.521C263.136 441.665 247.284 441.665 243.607 438.642C238.622 434.556 238.296 418.459 250.389 416.498C255.455 415.681 260.684 417.479 265.832 417.152C269.918 416.907 273.84 413.965 277.843 414.7C281.194 415.272 285.034 417.56 285.851 420.829H285.769ZM394.935 354.153C396.977 353.663 399.429 354.316 401.063 355.705C404.658 358.81 406.129 369.351 404.413 371.802C401.308 376.378 389.787 379.401 383.25 378.258C381.697 378.012 380.39 376.133 380.227 374.499C379.491 367.39 385.538 356.523 394.935 354.153Z" fill="url(#paint6_radial_45_157)"/>
<path style="mix-blend-mode:screen" opacity="0.6" fill-rule="evenodd" clip-rule="evenodd" d="M76.2637 277.836C77.4076 308.15 72.505 334.134 85.7421 364.285C93.096 380.954 114.668 386.02 131.173 386.02C138.282 386.02 145.064 384.304 152.173 383.977C160.507 383.569 180.036 386.02 181.67 396.152C183.386 406.693 179.791 418.214 184.04 428.019C185.756 432.105 188.534 435.618 191.721 438.805C203.65 450.408 208.471 448.774 224.568 451.225C235.599 452.859 268.692 456.536 278.252 461.929C291.898 469.692 300.15 484.972 320.251 491.754C331.854 495.676 370.013 482.52 379.9 472.797C392.156 460.704 397.468 450.49 409.07 445.669C415.362 443.054 418.794 452.614 435.136 443.953C440.202 441.256 445.513 437.661 449.354 433.412C481.629 398.767 485.633 352.764 507.123 308.559C504.59 311.909 501.73 315.831 498.707 321.387C494.131 329.885 490.863 339.037 487.186 348.025C478.688 368.698 470.517 394.6 458.342 413.148C453.684 420.339 447.801 426.794 441.019 432.105C436.689 435.537 431.214 437.661 425.739 438.887C422.062 439.704 418.222 437.089 414.545 437.906C396.078 441.747 385.865 459.805 371.81 469.12C363.885 474.349 354.896 478.108 345.745 480.641C307.423 491.345 288.547 463.645 285.034 460.622C274.085 451.389 237.805 447.385 222.28 443.299C185.429 433.576 190.577 405.304 188.697 397.868C186.328 388.472 181.507 383.487 175.787 380.546C169.986 377.522 134.033 374.336 123.247 369.351C95.8742 356.604 85.9872 329.803 82.2285 290.501C81.0846 278.489 77.3259 256.264 74.9563 252.178C69.4817 242.863 58.6142 238.451 48.8906 240.821C44.56 241.883 31.4046 249.237 22.6616 253.894C19.8834 255.365 15.7979 255.365 13.3466 253.077C8.11712 248.093 4.35844 234.447 3.78647 223.008C3.45963 225.051 3.21449 227.012 2.96936 229.054C3.2962 237.716 3.70475 248.256 5.99265 255.365C8.19883 262.392 17.9224 268.194 24.1324 263.7C31.3229 258.47 36.9609 249.564 44.8051 244.743C46.9296 243.435 49.2992 242.7 51.7505 242.373C71.1159 240.085 75.4465 264.517 76.0185 277.836H76.2637Z" fill="url(#paint7_radial_45_157)"/>
<path style="mix-blend-mode:screen" fill-rule="evenodd" clip-rule="evenodd" d="M314.123 322.858C311.998 323.185 310.773 318.854 310.854 316.321C310.854 314.605 311.508 310.765 312.407 307.006C310.119 313.216 307.096 322.449 308.566 327.515C309.302 330.212 315.512 331.846 319.271 330.784C326.134 328.986 332.671 325.881 339.453 323.757C345.091 321.959 358.655 319.426 362.741 317.547C364.211 316.893 365.355 315.667 366.336 314.442C366.663 314.033 366.826 313.053 366.908 312.154C366.172 313.952 364.375 315.341 362.822 315.749C356.531 317.138 349.503 317.057 343.212 318.037C333.325 319.508 321.068 321.796 314.286 322.94L314.123 322.858Z" fill="url(#paint8_radial_45_157)"/>
<path style="mix-blend-mode:screen" fill-rule="evenodd" clip-rule="evenodd" d="M89.9093 151.511C91.9521 158.211 102.656 162.134 107.722 158.048C115.158 152.083 122.594 146.2 130.846 141.379C129.049 142.033 127.088 142.441 125.29 143.34C118.345 146.69 112.135 152.001 104.781 153.881C101.921 154.616 98.5706 152.9 96.8547 150.776C93.1777 146.282 97.8352 137.62 104.045 131.901C97.7535 136.803 88.1934 145.791 89.991 151.593L89.9093 151.511Z" fill="url(#paint9_radial_45_157)"/>
<path style="mix-blend-mode:screen" fill-rule="evenodd" clip-rule="evenodd" d="M175.95 157.067C180.363 164.013 185.02 170.141 188.452 172.592C189.596 173.409 191.639 173.491 192.701 172.592C194.662 170.876 194.662 167.69 196.296 165.647C197.277 164.421 199.565 164.34 200.218 162.95C200.872 161.48 201.444 159.764 201.934 157.966C203.732 150.857 204.141 141.787 204.222 133.943C203.65 139.418 202.506 144.729 201.117 149.959C200.382 152.737 199.156 155.923 197.195 157.803C196.623 158.375 195.97 158.865 195.234 159.11C192.783 160.172 189.596 159.11 187.227 157.394C186.818 157.067 186.409 156.74 186.001 156.414C177.912 148.651 169.659 140.235 164.511 129.613C163.694 127.978 163.612 126.099 163.939 124.22C163.449 126.099 162.877 128.142 163.04 129.531C163.612 134.842 169.577 146.935 176.032 157.149L175.95 157.067Z" fill="url(#paint10_radial_45_157)"/>
<path style="mix-blend-mode:screen" fill-rule="evenodd" clip-rule="evenodd" d="M215.662 177.985C211.576 189.752 209.125 202.335 210.105 211.242C210.514 215.164 212.638 218.677 213.701 222.436C215.171 227.91 215.171 233.794 217.623 238.86C223.833 251.77 244.914 254.303 256.925 248.992C262.4 246.622 263.544 239.922 263.789 234.202C263.054 237.797 259.867 241.229 256.435 242.373C248.101 245.151 231.432 239.595 227.101 231.914C221.055 221.047 217.623 208.627 215.743 196.37C215.09 191.794 214.763 184.767 215.743 177.985H215.662Z" fill="url(#paint11_radial_45_157)"/>
<path style="mix-blend-mode:screen" fill-rule="evenodd" clip-rule="evenodd" d="M97.1816 68.9835C95.1388 73.2325 93.7497 76.8277 89.8276 80.9133C76.6723 94.8041 47.8285 109.675 47.0931 130.92C47.0114 134.27 49.2175 137.457 48.9724 140.725C48.4822 147.344 46.1943 153.717 45.0503 160.254C43.4161 169.733 47.7468 181.744 59.2679 178.884C65.5596 177.332 78.3065 172.919 79.9407 173.328C86.1507 174.88 93.668 182.561 101.267 181.826C113.442 180.6 123.737 169.569 133.951 166.382C156.177 159.519 179.137 183.296 186.981 204.868C198.503 236.245 210.514 276.12 221.055 283.147C227.428 287.396 238.949 289.847 242.463 292.298C253.902 300.224 260.929 325.554 268.283 334.543C276.454 344.511 288.139 348.924 302.193 345.083C313.551 341.978 335.94 337.157 343.212 336.258C363.231 333.807 401.717 337.566 411.032 333.235C425.413 326.453 439.957 312.154 445.922 307.496C461.447 295.322 474.684 290.337 482.038 279.225C485.143 274.567 484.326 262.556 484.571 255.283C484.898 244.171 492.905 240.576 496.746 232.568C506.714 212.059 490.863 172.02 483.836 151.675C481.793 145.791 479.26 140.153 477.38 134.189C476.073 130.185 475.256 126.426 474.439 122.749C472.56 114.415 461.855 90.2283 449.435 79.1973C438.976 69.9641 422.634 65.7968 411.195 57.1355C367.807 24.0428 302.602 2.47121 261.175 0.265031C248.755 -0.388652 209.533 12.8484 185.102 20.4475C159.608 28.3734 133.706 36.1359 112.216 51.0889C105.353 55.9099 100.532 61.5479 96.8548 69.147L97.1816 68.9835ZM22.9885 254.058C20.2103 255.529 16.1248 255.529 13.6735 253.241C8.44402 248.256 4.68534 234.611 4.11337 223.171C1.98889 236.653 1.66205 250.544 0.844942 264.598C-1.19782 299.979 1.17178 328.986 4.27678 339.772C8.11717 353.173 25.5215 382.752 52.9762 420.829C72.0965 447.385 102.003 481.213 114.913 487.831C134.85 497.964 211.086 521.006 260.848 521.006C281.03 521.006 301.948 519.78 322.131 516.512C343.375 513.08 373.608 506.461 382.76 501.559C402.942 490.773 436.77 459.233 458.505 432.35C474.929 412.086 503.038 375.316 505.571 368.371C509.084 358.729 519.298 307.987 520.687 276.61C518.236 302.594 509.82 301.45 498.952 321.632C494.376 330.13 491.108 339.282 487.431 348.27C478.933 368.943 470.762 394.845 458.587 413.393C453.93 420.584 448.046 427.039 441.264 432.35C436.934 435.782 431.459 437.906 425.985 439.132C422.308 439.949 418.467 437.334 414.79 438.151C396.324 441.992 386.11 460.05 372.056 469.365C364.13 474.594 355.142 478.353 345.99 480.886C307.668 491.59 288.793 463.89 285.279 460.867C274.33 451.634 238.05 447.63 222.525 443.544C185.674 433.821 190.822 405.549 188.942 398.113C186.573 388.717 181.752 383.732 176.032 380.791C170.231 377.767 134.278 374.581 123.492 369.596C96.1193 356.85 86.2324 330.049 82.4737 290.746C81.3298 278.734 77.5711 256.509 75.2015 252.424C69.7269 243.109 58.8594 238.696 49.1358 241.066C44.8052 242.128 31.6498 249.482 22.9068 254.139L22.9885 254.058ZM315.675 298.427C313.388 300.469 310.854 312.808 310.854 316.321C310.854 318.936 312.08 323.267 314.123 322.858C320.905 321.714 333.161 319.426 343.048 317.955C349.34 317.057 356.367 317.057 362.659 315.667C364.538 315.259 366.581 313.461 367.071 311.173C367.643 308.314 360.044 298.427 356.939 297.119C347.542 293.115 323.438 291.318 315.675 298.345V298.427ZM229.389 159.11C214.763 160.172 214.109 185.503 215.743 196.452C217.623 208.79 221.055 221.128 227.101 231.996C231.35 239.677 248.101 245.233 256.435 242.455C260.112 241.229 263.626 237.307 263.953 233.385C264.77 223.988 259.459 214.918 259.622 205.522C259.704 195.962 266.649 174.799 261.91 170.55C253.494 162.869 239.603 158.375 229.471 159.11H229.389ZM178.238 112.617C174.153 112.78 169.659 114.006 166.881 117.356C164.429 120.379 162.55 125.854 164.348 129.531C169.495 140.072 177.748 148.57 185.837 156.332C188.289 158.702 192.129 160.254 195.071 159.028C198.176 157.721 199.973 153.554 200.954 149.877C203.078 141.461 204.958 132.636 204.141 123.811C203.814 120.379 200.79 117.274 198.012 116.049C191.721 113.352 184.775 112.372 178.157 112.699L178.238 112.617ZM113.36 126.426C104.29 128.142 91.2984 143.994 96.773 150.694C98.5707 152.9 101.921 154.616 104.699 153.799C112.053 151.838 118.263 146.527 125.208 143.258C127.823 142.033 130.765 141.788 133.216 140.153C137.383 137.293 135.504 129.286 132.726 128.142C126.842 125.691 119.815 125.2 113.442 126.426H113.36Z" fill="url(#paint12_radial_45_157)"/>
<defs>
<linearGradient id="paint0_linear_45_157" x1="4.03149" y1="328.904" x2="520.605" y2="328.904" gradientUnits="userSpaceOnUse">
<stop stop-color="#4F309E"/>
<stop offset="0.33" stop-color="#47298F"/>
<stop offset="1" stop-color="#391D77"/>
</linearGradient>
<radialGradient id="paint1_radial_45_157" cx="0" cy="0" r="1" gradientUnits="userSpaceOnUse" gradientTransform="translate(168.76 150.531) scale(414.436 414.435)">
<stop stop-color="#71F5FF"/>
<stop offset="0.13" stop-color="#69E8FF"/>
<stop offset="0.36" stop-color="#56C8FF"/>
<stop offset="0.38" stop-color="#54C5FF"/>
<stop offset="0.92" stop-color="#1483FF"/>
</radialGradient>
<radialGradient id="paint2_radial_45_157" cx="0" cy="0" r="1" gradientUnits="userSpaceOnUse" gradientTransform="translate(184.285 142.441) scale(409.696 409.696)">
<stop stop-color="#7A369E"/>
<stop offset="0.23" stop-color="#6D349E"/>
<stop offset="0.63" stop-color="#4F309E"/>
<stop offset="1" stop-color="#33128A"/>
</radialGradient>
<radialGradient id="paint3_radial_45_157" cx="0" cy="0" r="1" gradientUnits="userSpaceOnUse" gradientTransform="translate(83.4541 37.525) scale(363.53 363.53)">
<stop stop-color="#8D6EFF"/>
<stop offset="1"/>
</radialGradient>
<radialGradient id="paint4_radial_45_157" cx="0" cy="0" r="1" gradientUnits="userSpaceOnUse" gradientTransform="translate(196.296 190.487) scale(429.225 429.225)">
<stop offset="0.45" stop-color="white"/>
<stop offset="0.5" stop-color="#F8F3F8"/>
<stop offset="0.58" stop-color="#E6D6E8"/>
<stop offset="0.69" stop-color="#C9A6CD"/>
<stop offset="0.83" stop-color="#A263A7"/>
<stop offset="0.97" stop-color="#700F78"/>
<stop offset="1" stop-color="#670070"/>
</radialGradient>
<radialGradient id="paint5_radial_45_157" cx="0" cy="0" r="1" gradientUnits="userSpaceOnUse" gradientTransform="translate(115.076 118.091) scale(326.106 326.106)">
<stop stop-color="#91FBFF"/>
<stop offset="1"/>
</radialGradient>
<radialGradient id="paint6_radial_45_157" cx="0" cy="0" r="1" gradientUnits="userSpaceOnUse" gradientTransform="translate(224.895 196.533) scale(407.082 407.082)">
<stop offset="0.33" stop-color="white"/>
<stop offset="0.4" stop-color="#F3FAFA"/>
<stop offset="0.52" stop-color="#D6EDEC"/>
<stop offset="0.68" stop-color="#A6D9D6"/>
<stop offset="0.87" stop-color="#64BDB9"/>
<stop offset="1" stop-color="#35AAA4"/>
</radialGradient>
<radialGradient id="paint7_radial_45_157" cx="0" cy="0" r="1" gradientUnits="userSpaceOnUse" gradientTransform="translate(153.235 275.303) scale(480.376 480.376)">
<stop stop-color="#00E1FF"/>
<stop offset="1"/>
</radialGradient>
<radialGradient id="paint8_radial_45_157" cx="0" cy="0" r="1" gradientUnits="userSpaceOnUse" gradientTransform="translate(320.496 306.026) scale(50.2519 50.2519)">
<stop stop-color="#00E1FF"/>
<stop offset="1"/>
</radialGradient>
<radialGradient id="paint9_radial_45_157" cx="0" cy="0" r="1" gradientUnits="userSpaceOnUse" gradientTransform="translate(78.9601 153.39) scale(58.0961 58.0962)">
<stop stop-color="#00E1FF"/>
<stop offset="1"/>
</radialGradient>
<radialGradient id="paint10_radial_45_157" cx="0" cy="0" r="1" gradientUnits="userSpaceOnUse" gradientTransform="translate(185.02 137.212) scale(53.9289 53.9289)">
<stop stop-color="#00E1FF"/>
<stop offset="1"/>
</radialGradient>
<radialGradient id="paint11_radial_45_157" cx="0" cy="0" r="1" gradientUnits="userSpaceOnUse" gradientTransform="translate(249.817 209.852) scale(57.3608)">
<stop stop-color="#00E1FF"/>
<stop offset="1"/>
</radialGradient>
<radialGradient id="paint12_radial_45_157" cx="0" cy="0" r="1" gradientUnits="userSpaceOnUse" gradientTransform="translate(357.511 328.905) scale(387.88 387.88)">
<stop offset="0.04"/>
<stop offset="0.84"/>
<stop offset="0.85" stop-color="#0E0915"/>
<stop offset="0.9" stop-color="#442E67"/>
<stop offset="0.93" stop-color="#6F4CA8"/>
<stop offset="0.96" stop-color="#8E61D7"/>
<stop offset="0.99" stop-color="#A16EF4"/>
<stop offset="1" stop-color="#A973FF"/>
</radialGradient>
</defs>
</svg>
