<svg width="181" height="182" viewBox="0 0 181 182" fill="none" xmlns="http://www.w3.org/2000/svg">
<path fill-rule="evenodd" clip-rule="evenodd" d="M14.4901 134.485C13.2643 133.858 12.2019 133.177 11.303 132.442C10.9761 131.652 10.6765 130.862 10.4585 130.099C9.06926 128.356 7.89792 126.612 6.91726 124.841C5.60971 122.363 4.11148 118.385 3.97528 114.817C4.22045 114.163 4.49285 113.537 4.81974 112.937C7.43483 114.027 10.0499 115.144 12.6923 116.233C14.2994 119.175 15.9339 122.117 17.5411 125.059C16.5332 128.192 15.498 131.325 14.4901 134.457V134.485Z" fill="url(#paint0_radial_6_3642)"/>
<path fill-rule="evenodd" clip-rule="evenodd" d="M20.6192 90.5184L64.7761 69.9246C66.465 73.2479 68.1812 76.544 70.1697 79.6494C73.03 83.3269 76.2171 86.8409 79.8129 90.2188C80.1398 90.7908 80.3849 91.3901 80.5756 91.9894C79.8946 94.2231 79.377 96.5113 79.1046 98.854C79.0502 100.461 78.9957 102.041 78.9412 103.648C77.8788 110.159 77.3885 112.801 74.9368 118.93C70.7418 121.573 65.6206 123.834 59.0556 125.604C57.9387 125.577 56.8764 125.468 55.8412 125.25C52.5996 118.113 46.8518 112.229 40.7227 106.536C35.7377 103.73 30.9706 100.815 26.2852 97.8189C26.0128 97.2741 25.7132 96.7292 25.4408 96.2117C23.425 95.4217 21.5726 94.5228 19.802 93.5966C19.5024 93.0245 19.4206 92.4525 19.3661 91.9077C19.7475 91.3901 20.1289 90.927 20.5647 90.5456L20.6192 90.5184Z" fill="url(#paint1_radial_6_3642)"/>
<path style="mix-blend-mode:multiply" fill-rule="evenodd" clip-rule="evenodd" d="M20.6192 90.5184L64.7761 69.9246C66.465 73.2479 68.1812 76.544 70.1697 79.6494C73.03 83.3269 76.2171 86.8409 79.8129 90.2188C80.1398 90.7908 80.3849 91.3901 80.5756 91.9894C79.8946 94.2231 79.377 96.5113 79.1046 98.854C79.0502 100.461 78.9957 102.041 78.9412 103.648C77.8788 110.159 77.3885 112.801 74.9368 118.93C70.7418 121.573 65.6206 123.834 59.0556 125.604C57.9387 125.577 56.8764 125.468 55.8412 125.25C52.5996 118.113 46.8518 112.229 40.7227 106.536C35.7377 103.73 30.9706 100.815 26.2852 97.8189C26.0128 97.2741 25.7132 96.7292 25.4408 96.2117C23.425 95.4217 21.5726 94.5228 19.802 93.5966C19.5024 93.0245 19.4206 92.4525 19.3661 91.9077C19.7475 91.3901 20.1289 90.927 20.5647 90.5456L20.6192 90.5184Z" fill="url(#paint2_radial_6_3642)"/>
<path style="mix-blend-mode:screen" fill-rule="evenodd" clip-rule="evenodd" d="M20.6192 90.5184L64.7761 69.9246C66.465 73.2479 68.1812 76.544 70.1697 79.6494C73.03 83.3269 76.2171 86.8409 79.8129 90.2188C80.1398 90.7908 80.3849 91.3901 80.5756 91.9894C79.8946 94.2231 79.377 96.5113 79.1046 98.854C79.0502 100.461 78.9957 102.041 78.9412 103.648C77.8788 110.159 77.3885 112.801 74.9368 118.93C70.7418 121.573 65.6206 123.834 59.0556 125.604C57.9387 125.577 56.8764 125.468 55.8412 125.25C52.5996 118.113 46.8518 112.229 40.7227 106.536C35.7377 103.73 30.9706 100.815 26.2852 97.8189C26.0128 97.2741 25.7132 96.7292 25.4408 96.2117C23.425 95.4217 21.5726 94.5228 19.802 93.5966C19.5024 93.0245 19.4206 92.4525 19.3661 91.9077C19.7475 91.3901 20.1289 90.927 20.5647 90.5456L20.6192 90.5184Z" fill="url(#paint3_radial_6_3642)"/>
<path fill-rule="evenodd" clip-rule="evenodd" d="M58.0477 113.945C55.6778 111.739 51.3466 107.734 50.8017 107.38C48.568 105.909 46.1164 104.929 43.7737 103.594C40.2869 101.633 36.6912 99.7802 33.4495 97.4103C33.2316 97.2468 30.9162 94.5773 30.5076 94.2776C30.3714 94.1686 28.0559 93.4059 27.8925 93.2425C26.5849 91.8532 25.5225 90.3005 24.4874 88.6933L20.6192 90.4912C20.1834 90.8725 19.802 91.3084 19.4207 91.8532C19.4479 92.4253 19.5569 92.9973 19.8565 93.5421C21.6271 94.4955 23.4795 95.3672 25.4953 96.1572C25.7677 96.702 26.0673 97.2468 26.3397 97.7644C30.9979 100.761 35.7922 103.676 40.7772 106.481C46.9064 112.175 52.6541 118.059 55.8957 125.196C56.604 123.943 57.6391 121.246 57.6936 120.919C57.8026 120.292 57.9388 116.233 58.075 113.891L58.0477 113.945Z" fill="url(#paint4_radial_6_3642)"/>
<path fill-rule="evenodd" clip-rule="evenodd" d="M64.9124 111.929C64.3131 112.393 60.1725 113.537 58.0478 113.945C57.9116 116.288 57.7754 120.347 57.6664 120.973C57.6119 121.3 56.5495 123.997 55.8685 125.25C56.8764 125.468 57.9661 125.577 59.0829 125.604C65.6479 123.834 70.7963 121.573 74.9641 118.93C77.443 112.801 77.9061 110.186 78.9685 103.648C79.023 102.041 79.0775 100.461 79.1319 98.854C79.4044 96.5113 79.9219 94.2231 80.6029 91.9894C79.2409 92.5887 77.8789 93.188 76.5169 93.8145C75.3183 96.4568 74.2831 99.2081 72.8939 101.769C71.777 103.812 70.3877 105.719 68.9712 107.544C67.7454 109.096 65.2393 111.712 64.9669 111.929H64.9124Z" fill="url(#paint5_radial_6_3642)"/>
<path fill-rule="evenodd" clip-rule="evenodd" d="M64.2314 78.6143C66.0292 81.9921 68.2357 85.2065 70.6329 88.1757C72.3218 90.2732 74.5283 91.9349 76.4896 93.8145C77.8516 93.2152 79.2137 92.6159 80.5757 91.9894C80.385 91.3629 80.1398 90.7908 79.8129 90.2188C76.2172 86.8682 73.0301 83.3269 70.1698 79.6494C68.1812 76.544 66.4651 73.2479 64.7762 69.9246L61.5345 71.4228C62.3518 73.8472 63.0055 76.3533 64.2041 78.6143H64.2314Z" fill="url(#paint6_radial_6_3642)"/>
<path fill-rule="evenodd" clip-rule="evenodd" d="M36.4188 25.6859C35.9557 24.5418 35.4654 23.3977 35.0023 22.2536C33.504 21.5726 32.6323 21.5726 31.0524 21.5181C24.7326 26.5031 18.1131 34.6481 12.9647 41.6216C8.85136 49.821 5.41905 58.1294 3.15809 66.5467C2.66776 72.349 3.26705 79.7584 4.1115 83.1362C7.24417 85.6968 10.8399 88.1757 14.8988 90.5456C18.0859 90.8998 21.2186 91.0087 24.2967 90.8453C28.6825 90.4094 33.0954 89.7284 37.4812 88.775C47.206 82.8638 56.4406 76.0537 65.6479 69.298C65.5661 67.255 65.2665 64.9668 64.5583 62.8693C61.2894 60.2542 59.3281 57.2032 57.7754 54.1523C52.981 52.3272 46.8791 50.6383 44.4003 49.3307C40.6683 47.3422 38.2711 43.8281 36.2826 40.8589C33.4768 36.6911 35.1385 29.2272 36.446 25.7132L36.4188 25.6859Z" fill="url(#paint7_radial_6_3642)"/>
<path fill-rule="evenodd" clip-rule="evenodd" d="M37.4811 88.775L39.4969 82.5914C35.1112 84.4165 28.4373 86.1599 24.3784 86.2144C20.0744 84.5254 16.2335 83.1089 11.7933 81.7469C10.9761 81.3655 10.1316 80.8752 9.25992 80.2759C8.22478 80.1397 7.18964 79.949 6.18174 79.7311C5.55521 79.0773 5.06488 78.3146 4.65627 77.4974C3.04908 74.2013 3.02184 69.7883 3.1308 66.5467C2.64047 72.3489 3.23976 79.7583 4.08422 83.1362C7.21688 85.6968 10.8126 88.1757 14.8715 90.5456C18.0586 90.8997 21.1913 91.0087 24.2695 90.8452C28.6552 90.4094 33.0681 89.7284 37.4539 88.775H37.4811Z" fill="url(#paint8_radial_6_3642)"/>
<path fill-rule="evenodd" clip-rule="evenodd" d="M39.4969 82.5914L37.4811 88.775C47.206 82.8638 56.4406 76.0537 65.6479 69.298L62.5152 65.6205C55.242 70.5238 47.9687 75.0458 40.9952 79.7311C40.5048 80.6846 40.0145 81.638 39.5242 82.5914H39.4969Z" fill="url(#paint9_radial_6_3642)"/>
<path fill-rule="evenodd" clip-rule="evenodd" d="M56.4678 56.3043C58.9194 59.219 60.9625 62.3244 62.4879 65.6478L65.6206 69.3252C65.5389 67.2822 65.2392 64.994 64.531 62.8965C61.2621 60.2814 59.3008 57.2304 57.7481 54.1795L56.4678 56.3315V56.3043Z" fill="#511334"/>
<path fill-rule="evenodd" clip-rule="evenodd" d="M34.185 46.1981C42.0303 51.51 47.9415 53.6347 56.4678 56.3043L57.7481 54.1523C52.9538 52.3272 46.8519 50.6383 44.373 49.3307C40.6411 47.3422 38.2439 43.8281 36.2553 40.8589C33.4495 36.6911 35.1112 29.2272 36.4188 25.7132L31.8424 25.5497C29.7448 36.6366 30.5893 40.6138 34.1578 46.2253L34.185 46.1981Z" fill="url(#paint10_radial_6_3642)"/>
<path fill-rule="evenodd" clip-rule="evenodd" d="M31.8696 25.5225L36.446 25.6859C35.9829 24.5418 35.4926 23.3977 35.0295 22.2536C33.5312 21.5726 32.6595 21.5726 31.0796 21.5181C31.4065 22.744 31.5699 23.9153 31.8151 25.1139C31.8151 25.2501 31.8696 25.3863 31.8968 25.5225H31.8696Z" fill="url(#paint11_radial_6_3642)"/>
<path fill-rule="evenodd" clip-rule="evenodd" d="M35.0023 22.2536L35.7378 20.265L41.2676 16.4786L45.5988 13.7818L52.0821 9.06918L55.242 8.60609L64.2586 4.92862L73.5204 0.297729L81.6925 0.597376L92.3436 0.297729L104.847 0.760819L110.704 2.61317L113.346 4.30209L115.198 7.43475L76.9254 25.2773L36.4188 25.6859L35.4926 23.4249L35.0023 22.2536Z" fill="url(#paint12_radial_6_3642)"/>
<path fill-rule="evenodd" clip-rule="evenodd" d="M34.185 46.1981C33.9399 51.8641 31.6789 59.7638 29.7176 64.9395C27.6746 68.8894 25.4408 72.7576 23.0709 76.5985C22.0085 79.2953 21.3275 82.0738 20.8917 84.9069C22.0358 85.3427 23.1799 85.7786 24.3785 86.2416C26.6667 86.2144 29.7993 85.6424 32.8775 84.8251C35.2474 84.1986 37.5901 83.4086 39.4969 82.6186C39.6876 82.2373 39.9056 81.8287 40.0962 81.4473C40.3959 80.8753 40.6683 80.3304 40.9679 79.7584C47.9415 75.073 55.2147 70.5511 62.488 65.6478C60.9625 62.3245 58.9194 59.219 56.4678 56.3043C47.9143 53.6347 42.0031 51.51 34.185 46.1981Z" fill="url(#paint13_radial_6_3642)"/>
<path fill-rule="evenodd" clip-rule="evenodd" d="M29.7176 64.9395C31.6789 59.7638 33.9127 51.8641 34.1851 46.198C30.5893 40.6137 29.7721 36.6366 31.8696 25.5225C31.8424 25.3863 31.8151 25.2501 31.7879 25.1139C31.5427 23.9153 31.3793 22.744 31.0524 21.5181C24.7326 26.5031 18.1132 34.6481 12.9647 41.6216C8.85137 49.821 5.41906 58.1294 3.1581 66.5467C3.0219 69.7883 3.07638 74.2013 4.68357 77.4974C5.09218 78.3146 5.58251 79.0774 6.20904 79.7311C7.24418 79.9491 8.27932 80.1398 9.28722 80.276C10.1589 80.8752 11.0034 81.3656 11.8206 81.7469C15.0077 82.7548 17.9225 83.7627 20.9189 84.8796C21.382 82.0738 22.0358 79.2953 23.0982 76.5712C25.4409 72.7303 27.6746 68.8622 29.7449 64.9123L29.7176 64.9395Z" fill="url(#paint14_radial_6_3642)"/>
<path fill-rule="evenodd" clip-rule="evenodd" d="M44.7272 36.9362C43.0655 35.4925 41.7307 34.0487 40.4776 32.605C40.7773 29.091 41.3221 25.6587 42.5479 22.4988C43.7737 20.0471 45.3537 17.8406 47.2605 15.8521C49.5215 13.7545 51.9187 12.1201 54.3431 10.5402C46.6068 14.2994 40.1235 18.7668 34.3213 24.5418C33.6403 26.6121 33.2044 28.7641 32.932 30.9433C34.1851 40.4503 36.5822 43.3105 43.3379 49.5214C45.3809 50.2841 47.3967 50.9379 49.3853 51.5916C48.9494 49.821 48.677 48.5952 48.4046 46.8246C45.7078 43.6919 44.8634 40.0417 44.7272 36.909V36.9362Z" fill="url(#paint15_radial_6_3642)"/>
<path fill-rule="evenodd" clip-rule="evenodd" d="M51.8369 37.2631C49.467 36.9362 47.097 36.8273 44.7271 36.9635C44.8633 40.0961 45.7078 43.7464 48.4046 46.879C53.4986 47.2059 58.8649 45.1356 64.3948 41.6761C60.3359 40.0417 56.2499 38.4072 51.8097 37.2904L51.8369 37.2631Z" fill="url(#paint16_radial_6_3642)"/>
<path fill-rule="evenodd" clip-rule="evenodd" d="M64.3948 41.6488C58.865 45.1084 53.4986 47.2059 48.4046 46.8518C48.7042 48.6224 48.9494 49.8482 49.3853 51.6189C52.1366 52.4906 54.8606 53.3078 57.7481 54.125C59.4643 54.3429 61.2077 54.5609 62.9238 54.7788C63.9045 54.5336 64.8851 54.2612 65.8658 54.016C67.0371 53.9071 68.2357 53.7981 69.4071 53.7164C70.3332 51.4827 71.2322 49.249 72.0221 47.0697C72.8938 44.4001 73.5204 41.7033 74.0379 39.0338C70.9598 40.423 67.6909 41.104 64.3948 41.6488Z" fill="url(#paint17_radial_6_3642)"/>
<path fill-rule="evenodd" clip-rule="evenodd" d="M74.0379 39.0338C73.5476 41.7034 72.8938 44.4002 72.0221 47.0697C71.2322 49.249 70.3605 51.4827 69.407 53.7164C74.3103 51.7006 79.023 48.7859 83.5176 44.9177C84.5255 42.1392 85.7241 39.4152 87.1406 36.7456L82.0194 30.0717C79.8129 33.3133 76.9254 36.1735 74.0107 39.0065L74.0379 39.0338Z" fill="url(#paint18_radial_6_3642)"/>
<path fill-rule="evenodd" clip-rule="evenodd" d="M82.0739 30.0717L87.1951 36.7456C85.7513 28.9003 85.152 23.2343 85.6424 14.0542C85.3972 13.6728 85.1248 13.2642 84.8524 12.8829C84.3348 14.7352 83.8172 16.5603 83.2997 18.4127C82.8911 22.3081 82.4825 26.1763 82.0739 30.0717Z" fill="url(#paint19_radial_6_3642)"/>
<path fill-rule="evenodd" clip-rule="evenodd" d="M60.0091 29.9082C57.1488 31.4064 53.7165 34.8932 49.358 36.9907C50.1752 37.0452 50.9925 37.1269 51.8369 37.2631C56.2771 38.38 60.336 40.0144 64.422 41.6489C67.7181 41.0768 70.987 40.423 74.0652 39.0338C76.9799 36.2008 79.8947 33.3405 82.0739 30.0989C82.4825 26.2035 82.8911 22.3353 83.2997 18.4399C83.8173 16.5876 84.3349 14.7625 84.8524 12.9101C80.9843 18.0313 73.9835 22.0629 67.1461 26.0945C64.8307 27.4565 61.017 29.3906 60.0091 29.9082Z" fill="url(#paint20_radial_6_3642)"/>
<path fill-rule="evenodd" clip-rule="evenodd" d="M49.358 36.9907C53.7165 34.8932 57.1488 31.4064 60.009 29.9082C61.0169 29.3906 64.8306 27.4565 67.1461 26.0945C74.0107 22.0901 81.0115 18.0313 84.8524 12.9101C83.8445 11.4663 82.7004 10.1315 81.5018 8.85124C79.1047 8.14299 76.7075 7.70714 74.3376 7.46198C67.4457 7.6799 61.0714 8.824 54.3703 10.5402C51.9458 12.1201 49.5487 13.7818 47.2877 15.8521C45.3809 17.8406 43.8282 20.0471 42.5751 22.4988C41.3493 25.6587 40.8045 29.091 40.5048 32.605C41.7579 34.0487 43.0927 35.4925 44.7543 36.9362C46.3071 36.8545 47.8325 36.8545 49.3852 36.9907H49.358Z" fill="url(#paint21_radial_6_3642)"/>
<path fill-rule="evenodd" clip-rule="evenodd" d="M151.537 93.9234C152.927 94.0052 160.336 94.1958 161.398 93.6238C163.469 92.3435 165.512 91.2811 167.582 90.5456C169.189 90.3277 170.933 90.3549 172.376 90.246C173.275 90.028 175.89 88.8022 177.28 87.8216C178.042 88.6115 178.996 89.7556 179.677 90.8453C179.84 87.4947 179.976 84.1713 180.14 80.8207C179.295 75.8902 178.451 70.9597 177.606 66.0019C175.727 61.1531 173.875 57.7753 173.52 52.5723C170.17 46.8518 167.691 42.003 164.885 35.9828C162.025 32.9046 159.437 29.663 156.604 26.6393C149.93 19.4478 142.357 13.9452 133.94 8.38816C133.15 7.95231 132.333 7.51647 131.543 7.08062C130.072 6.53581 128.546 6.18168 126.994 5.93651C125.223 4.73793 123.452 3.51211 121.682 2.31352C120.129 1.63251 118.494 1.25114 116.833 0.924255C118.576 3.53935 123.343 6.15444 126.612 7.76163C127.184 8.82401 128.356 11.6843 131.897 15.9883C133.341 19.0937 134.566 22.3081 135.438 25.6314C136.473 26.5304 137.345 27.5927 138.135 28.7913C139.933 33.286 141.567 37.9441 143.065 42.7657C143.61 46.1708 144.101 49.5486 144.455 52.9537C148.05 60.5265 151.456 68.0722 154.643 75.645C154.098 77.1433 153.471 78.6143 152.627 80.1125C152.028 84.2258 151.537 89.4832 151.537 94.0052V93.9234Z" fill="url(#paint22_radial_6_3642)"/>
<path fill-rule="evenodd" clip-rule="evenodd" d="M167.582 90.5184C165.839 87.5492 158.293 78.5871 154.615 75.5634C154.071 77.0616 153.444 78.5326 152.6 80.0308C152 84.1441 151.51 89.4016 151.51 93.9235C152.899 94.0052 160.309 94.1959 161.371 93.6238C163.441 92.3435 165.484 91.2811 167.555 90.5456L167.582 90.5184Z" fill="url(#paint23_radial_6_3642)"/>
<path fill-rule="evenodd" clip-rule="evenodd" d="M135.547 47.3694C138.08 46.1708 140.614 44.6998 143.038 42.684C141.54 37.8897 139.906 33.2043 138.108 28.7096C137.318 27.511 136.446 26.4486 135.411 25.5497C134.512 22.2263 133.313 19.012 131.87 15.9065C128.328 11.6025 127.157 8.74228 126.585 7.6799C123.316 6.07271 118.549 3.43038 116.806 0.842529C115.498 1.85043 114.327 2.99453 113.319 4.27484C113.455 5.17377 113.7 6.07271 114.245 6.97165C120.483 9.83191 124.052 13.6456 128.682 23.207C129.173 24.3239 129.663 25.4135 130.153 26.5304C133.804 34.757 135.084 38.5434 135.547 47.3694Z" fill="url(#paint24_radial_6_3642)"/>
<path fill-rule="evenodd" clip-rule="evenodd" d="M143.065 42.684C140.614 44.6998 138.108 46.1708 135.574 47.3694C136.882 53.7164 137.073 60.69 136.8 67.1188C137.318 69.7338 137.699 72.4579 137.808 75.2909C137.073 81.9376 135.765 87.6854 132.714 93.869C132.632 96.1027 133.095 98.3364 133.94 100.57C136.528 99.7257 139.17 98.9902 141.921 98.3909C145.381 97.0834 148.677 95.7213 151.565 93.869C151.565 89.347 152.055 84.0896 152.654 79.9763C153.499 78.4781 154.125 77.0071 154.67 75.5088C151.483 67.936 148.078 60.3903 144.482 52.8175C144.128 49.4124 143.638 46.0346 143.093 42.6295L143.065 42.684Z" fill="url(#paint25_radial_6_3642)"/>
<path fill-rule="evenodd" clip-rule="evenodd" d="M161.426 93.5965C160.363 94.1686 152.954 93.9779 151.565 93.8962C148.677 95.7213 145.381 97.1106 141.921 98.4181C139.197 99.0174 136.528 99.7529 133.94 100.597C145.19 105.201 153.962 106.209 165.811 108.089C167.882 107.489 169.979 106.835 172.049 105.937C171.995 105.147 171.968 104.329 171.913 103.539C172.867 99.2626 174.011 95.0403 175.455 90.9542C176.054 89.8918 176.653 88.8567 177.252 87.7943C175.863 88.775 173.248 90.0008 172.349 90.2187C170.905 90.3277 169.162 90.3277 167.555 90.5184C165.484 91.2811 163.441 92.3435 161.371 93.5965H161.426Z" fill="url(#paint26_radial_6_3642)"/>
<path fill-rule="evenodd" clip-rule="evenodd" d="M175.454 90.9542C174.011 95.0403 172.839 99.2354 171.913 103.539C171.968 104.329 171.995 105.147 172.049 105.937C173.82 104.602 175.427 103.158 176.844 101.605C177.606 100.325 178.26 98.9357 178.86 97.492C179.132 95.2582 179.404 93.0245 179.704 90.7908C179.023 89.7012 178.042 88.5571 177.307 87.7671C176.708 88.8295 176.108 89.8646 175.509 90.927L175.454 90.9542Z" fill="url(#paint27_radial_6_3642)"/>
<path fill-rule="evenodd" clip-rule="evenodd" d="M47.5874 127.593C41.5945 129.118 33.722 129.799 28.6552 129.799C24.5964 127.375 21.0279 124.651 19.1755 122.308C16.9963 122.09 13.455 121.464 12.0657 120.946C11.9023 120.347 11.7116 119.393 11.6299 118.821C9.47788 118.249 7.57104 117.105 5.63696 116.043C7.78897 118.113 9.39616 119.965 11.2758 122.444L14.8715 125.849C15.6342 126.312 18.2766 126.803 19.5841 126.857C20.6465 127.892 22.063 129.009 23.3161 129.663C23.9698 129.935 24.6236 130.099 25.2774 130.235C26.4215 130.916 27.5656 131.624 28.7097 132.305C31.4065 132.305 34.185 132.469 37.1815 132.986C40.8862 132.551 44.5909 132.305 48.2956 132.305C50.6383 131.325 52.8993 130.235 55.0785 128.9C55.5144 127.674 55.7868 126.421 55.8685 125.196C55.0785 123.452 54.1251 121.791 53.0627 120.183C53.09 121.545 52.981 122.907 52.6541 124.269C51.1287 125.468 49.4397 126.558 47.5601 127.538L47.5874 127.593Z" fill="url(#paint28_radial_6_3642)"/>
<path fill-rule="evenodd" clip-rule="evenodd" d="M28.628 129.799C33.7219 129.799 41.5945 129.145 47.5601 127.593C49.4397 126.612 51.1286 125.522 52.6541 124.324C52.981 122.962 53.09 121.6 53.0627 120.238C49.7938 115.253 45.3809 110.84 40.75 106.536C35.765 103.73 30.9979 100.815 26.3125 97.8188C25.2774 99.9981 24.0243 101.878 22.6623 103.539C21.9813 109.914 20.7554 116.152 19.1483 122.308C21.0279 124.624 24.5691 127.348 28.628 129.799Z" fill="url(#paint29_radial_6_3642)"/>
<path fill-rule="evenodd" clip-rule="evenodd" d="M19.1482 122.335C20.7554 116.179 21.9813 109.941 22.6623 103.567C24.0243 101.878 25.2774 100.025 26.3125 97.8461C26.0401 97.3013 25.7404 96.7565 25.468 96.2389C23.4522 95.4489 21.5999 94.55 19.8293 93.6238L14.8715 90.6001C10.8126 88.2302 7.21688 85.7785 4.08422 83.1907C3.23976 84.4165 2.58599 85.7241 2.06842 87.1133C1.90498 88.5298 1.82326 89.9736 1.8505 91.3901C1.38741 92.8066 0.897079 94.2503 0.43399 95.6668C0.161585 99.3716 0.706395 104.983 1.90498 107.843C2.88564 109.56 3.8663 111.276 4.84696 112.965L5.66417 116.097C7.59825 117.16 9.50509 118.304 11.6571 118.876C11.7116 119.421 11.9295 120.401 12.0929 121.001C13.4822 121.518 16.9962 122.117 19.2027 122.363L19.1482 122.335Z" fill="url(#paint30_radial_6_3642)"/>
<path fill-rule="evenodd" clip-rule="evenodd" d="M60.2815 105.555C57.5847 105.473 52.6814 106.672 50.8018 107.38C51.3466 107.734 55.6778 111.739 58.0477 113.945C60.1725 113.537 64.3131 112.393 64.9124 111.929C65.212 111.712 67.6909 109.096 68.9167 107.544C65.6751 107.053 63.4141 106.481 60.2542 105.555H60.2815Z" fill="url(#paint31_radial_6_3642)"/>
<path fill-rule="evenodd" clip-rule="evenodd" d="M72.9483 75.4816C72.2673 70.4149 71.1777 65.4026 69.4888 60.4448C67.7999 58.6742 65.9475 57.2577 64.0407 56.0046C61.9431 55.3781 59.8456 54.7788 57.7481 54.1523C59.3553 58.5652 62.6514 64.7761 64.7489 69.9246C68.2085 78.2602 69.516 80.2215 75.4545 86.9226C76.9527 89.4288 78.4237 91.9077 79.8947 94.441L82.5915 86.8954C79.7585 82.9455 76.5168 79.1591 72.9483 75.4816Z" fill="url(#paint32_radial_6_3642)"/>
<path fill-rule="evenodd" clip-rule="evenodd" d="M69.4888 60.4176L70.987 55.1602C68.6715 55.4326 66.3561 55.705 64.0406 55.9774C65.9475 57.2304 67.7726 58.6469 69.4888 60.4176Z" fill="#BC5152"/>
<path fill-rule="evenodd" clip-rule="evenodd" d="M70.987 55.1874C80.7936 52.8448 85.1793 51.1831 92.0712 43.5285C92.4798 42.3027 92.725 38.5707 92.2619 37.3721C89.3471 39.7421 87.2496 41.2131 84.2532 42.9837C79.9219 47.3422 75.8903 50.7745 69.5705 53.2806C65.4844 53.6892 61.8614 54.343 57.7209 54.1251C59.8184 54.7516 61.9159 55.3509 64.0134 55.9774C66.3289 55.705 68.6443 55.4326 70.9598 55.1602L70.987 55.1874Z" fill="url(#paint33_radial_6_3642)"/>
<path fill-rule="evenodd" clip-rule="evenodd" d="M92.0984 43.5285C95.3128 43.7464 98.4727 43.7736 101.578 43.5285C109.532 46.1163 116.778 47.9687 125.577 49.249C126.939 48.568 128.437 48.1321 130.017 47.9142C126.694 47.1787 123.371 46.416 120.074 45.6805C116.07 44.5364 112.038 43.4195 108.034 42.2754L101.251 39.742C100.271 39.1155 99.2899 38.5162 98.3092 37.8897C96.2934 37.7262 94.3049 37.5628 92.2891 37.3994C92.7522 38.5707 92.4798 42.3299 92.0984 43.5557V43.5285Z" fill="url(#paint34_radial_6_3642)"/>
<path fill-rule="evenodd" clip-rule="evenodd" d="M125.577 49.249C127.566 55.3781 129.718 60.1724 132.142 62.5968L136.8 67.1188C136.991 62.2699 136.936 57.0942 136.337 52.1365C134.24 50.72 132.115 49.3307 130.017 47.9142C128.437 48.1321 126.939 48.568 125.577 49.249Z" fill="url(#paint35_radial_6_3642)"/>
<path fill-rule="evenodd" clip-rule="evenodd" d="M132.115 62.5969C128.955 67.7998 123.588 72.1038 122.635 78.1784C117.759 83.109 108.77 87.2768 103.049 89.8374C105.365 91.3084 109.233 94.9041 109.887 96.811C114.136 95.3945 118.358 94.0597 122.662 92.7521C127.484 88.9657 132.714 85.5879 136.964 81.1477C137.318 79.2681 137.59 77.334 137.808 75.3182C137.699 72.4852 137.345 69.7611 136.8 67.146L132.142 62.6241L132.115 62.5969Z" fill="url(#paint36_radial_6_3642)"/>
<path fill-rule="evenodd" clip-rule="evenodd" d="M109.886 96.7837C109.233 94.8769 105.365 91.2811 103.049 89.8101C96.13 89.6467 89.3199 88.5026 82.6187 86.8682L79.9219 94.4138C85.4245 97.6827 92.3708 97.7099 98.5816 98.6088C102.967 98.3092 105.61 97.7644 109.886 96.7565V96.7837Z" fill="url(#paint37_radial_6_3642)"/>
<path fill-rule="evenodd" clip-rule="evenodd" d="M103.049 89.8101C108.797 87.2768 117.759 83.109 122.635 78.1512C123.588 72.0765 128.955 67.7725 132.115 62.5696C129.718 60.1452 127.566 55.3509 125.55 49.2217C116.778 47.9414 109.505 46.0891 101.551 43.5012C98.4455 43.7464 95.2856 43.7191 92.0712 43.5012C85.1793 51.1286 80.7663 52.7902 70.987 55.1602L69.4888 60.4176C71.2049 65.3754 72.2673 70.3876 72.9483 75.4544C76.4896 79.1318 79.7585 82.9183 82.5915 86.8682C89.3199 88.4753 96.1028 89.6194 103.022 89.8101H103.049Z" fill="url(#paint38_radial_6_3642)"/>
<path fill-rule="evenodd" clip-rule="evenodd" d="M128.165 88.5843C129.69 90.3549 131.189 92.1256 132.714 93.8962C134.839 89.5922 136.119 85.4789 136.936 81.1476C134.267 83.9262 131.243 86.2961 128.165 88.5843Z" fill="#6C61B8"/>
<path fill-rule="evenodd" clip-rule="evenodd" d="M128.165 88.5843C129.472 88.5843 130.807 88.5843 132.115 88.5843C134.212 87.195 135.956 83.7355 136.936 81.1749C134.267 83.9534 131.243 86.3233 128.165 88.6115V88.5843Z" fill="url(#paint39_radial_6_3642)"/>
<path fill-rule="evenodd" clip-rule="evenodd" d="M132.115 88.557C130.807 88.557 129.472 88.557 128.165 88.557C129.69 90.3277 131.189 92.0983 132.714 93.869C132.823 92.7793 132.905 91.6625 132.878 90.5184C132.66 89.7829 132.387 89.1291 132.115 88.5026V88.557Z" fill="url(#paint40_radial_6_3642)"/>
<path fill-rule="evenodd" clip-rule="evenodd" d="M132.115 88.557C132.414 89.1836 132.66 89.8374 132.877 90.5729C132.877 91.717 132.823 92.8338 132.714 93.9234C134.839 89.6194 136.119 85.5061 136.936 81.1749C135.956 83.7355 134.185 87.195 132.115 88.5843V88.557Z" fill="url(#paint41_radial_6_3642)"/>
<path fill-rule="evenodd" clip-rule="evenodd" d="M19.4207 91.8804C19.6659 91.5263 19.9383 91.1994 20.2107 90.8998C18.44 90.8725 16.6694 90.7363 14.8715 90.5457L19.8293 93.5694C19.5297 92.9973 19.4479 92.4253 19.3934 91.8804H19.4207Z" fill="#511334"/>
<path fill-rule="evenodd" clip-rule="evenodd" d="M11.303 132.442C10.622 134.348 10.3496 136.419 10.5675 138.625C13.1009 141.594 15.5525 144.373 17.8952 147.506C25.9039 155.269 31.7607 161.18 40.968 167.636C50.0663 172.512 55.7868 175.046 65.43 178.587C71.777 179.568 77.2251 180.14 83.6266 180.603C85.6152 180.821 87.5765 181.066 89.5651 181.284C98.3093 180.031 101.769 179.622 109.995 176.381C110.54 175.972 111.031 175.155 111.33 174.664C107.38 174.038 103.43 173.384 99.4806 172.758C98.1731 172.186 96.8111 171.668 95.3128 171.205C92.9157 171.205 90.0554 171.205 87.8217 170.905C78.2058 168.699 71.9677 165.512 62.9783 161.507C59.6005 160.418 56.2499 159.355 52.8721 158.266L45.163 156.114L40.069 153.335C37.7263 152.709 35.3836 151.374 33.041 150.747C30.671 149.385 28.3284 148.595 25.9312 147.342C22.4172 142.956 18.9031 138.571 15.3891 134.185C14.0271 133.613 12.665 133.014 11.303 132.442Z" fill="url(#paint42_radial_6_3642)"/>
<path fill-rule="evenodd" clip-rule="evenodd" d="M10.5675 138.625C13.8363 141.649 16.5604 145.245 18.3855 146.961C18.7396 147.315 20.1289 148.377 21.0823 148.977C26.3397 152.218 32.1692 154.833 37.6718 157.666C39.2518 158.484 40.859 159.219 42.3844 160.145C43.2561 160.663 44.4547 161.344 45.3809 161.725C49.5214 163.496 53.8254 164.15 57.2578 165.621C59.4642 166.574 61.3166 167.8 63.5503 168.699C65.7023 169.57 68.0995 170.142 70.306 170.932C71.777 171.45 73.82 172.403 75.3182 172.812C76.8165 173.248 78.0695 173.52 79.4043 173.793C80.6846 174.065 84.5255 175.318 84.9614 175.373C85.1248 175.373 86.7592 175.1 87.6582 175.019C90.5457 174.773 96.9744 174.174 97.3013 174.065C97.601 173.956 98.7723 173.302 99.4533 172.785C98.1458 172.213 96.7838 171.695 95.2855 171.232C92.8884 171.232 90.0281 171.232 87.7944 170.932C78.1785 168.726 71.9404 165.539 62.951 161.534C59.5732 160.445 56.2226 159.382 52.8448 158.293L45.1357 156.141L40.0417 153.362C37.6991 152.736 35.3564 151.401 33.0137 150.774C30.6438 149.412 28.3011 148.622 25.9039 147.369C22.3899 142.984 18.8758 138.598 15.3618 134.212C13.9998 133.64 12.6378 133.041 11.2757 132.469C10.5947 134.376 10.3223 136.446 10.5402 138.652L10.5675 138.625Z" fill="url(#paint43_radial_6_3642)"/>
<path fill-rule="evenodd" clip-rule="evenodd" d="M98.8268 122.553C99.0447 120.047 99.2899 117.541 99.5078 115.035C95.9393 115.28 92.3708 115.525 88.7751 115.77C84.6073 115.58 80.6301 114.871 76.7892 113.864C76.3261 115.362 75.7268 116.969 74.9369 118.93C70.7418 121.573 65.6206 123.834 59.0556 125.604C57.9388 125.577 56.8764 125.468 55.8412 125.25C55.7595 126.476 55.5144 127.729 55.0513 128.955C59.4098 130.78 63.741 132.659 67.7998 135.029C68.9984 135.329 70.2242 135.465 71.4228 135.493C73.6565 134.784 75.8903 133.994 78.124 133.041C80.4394 131.788 82.8366 130.889 85.2883 130.099C90.1098 126.993 93.6239 125.005 98.7996 122.526L98.8268 122.553Z" fill="url(#paint44_radial_6_3642)"/>
<path fill-rule="evenodd" clip-rule="evenodd" d="M98.8268 122.553C93.6511 125.005 90.1371 127.021 85.3155 130.126C82.8639 130.916 80.4394 131.815 78.1512 133.068C75.9175 134.022 73.6838 134.812 71.4501 135.52C74.1741 134.893 76.8982 134.267 79.6222 133.967C86.0782 131.406 92.8611 129.064 99.753 127.102C101.387 126.149 103.022 125.168 104.711 124.215C104.084 123.588 103.403 122.962 102.477 122.417C101.36 122.335 100.134 122.417 98.854 122.581L98.8268 122.553Z" fill="url(#paint45_radial_6_3642)"/>
<path fill-rule="evenodd" clip-rule="evenodd" d="M98.8268 122.553C100.107 122.417 101.333 122.335 102.45 122.39C103.376 122.935 104.084 123.534 104.684 124.188C107.68 122.444 110.731 120.728 113.864 118.985C120.156 117.595 126.204 115.961 131.979 114.054C127.348 113.101 122.907 113.046 118.304 112.801C115.498 113.428 112.992 113.972 110.241 114.299C106.672 114.545 103.104 114.79 99.5079 115.035C99.2899 117.541 99.0448 120.047 98.8268 122.553Z" fill="url(#paint46_radial_6_3642)"/>
<path fill-rule="evenodd" clip-rule="evenodd" d="M118.304 112.801C122.935 113.019 127.375 113.101 131.979 114.054C132.605 113.319 133.967 109.75 134.049 108.661C132.523 106.4 131.025 104.711 129.5 103.294L126.966 106.835C121.001 110.349 115.58 112.447 110.241 114.327C112.992 114 115.498 113.455 118.304 112.828V112.801Z" fill="url(#paint47_radial_6_3642)"/>
<path fill-rule="evenodd" clip-rule="evenodd" d="M110.241 114.299C115.58 112.447 121.028 110.322 126.966 106.808L129.5 103.267C128.573 98.9357 127.348 94.5772 125.904 90.246C124.787 91.0632 123.697 91.9076 122.608 92.7521C118.304 94.0597 114.109 95.3672 109.832 96.8109C105.555 97.8188 102.913 98.3637 98.5272 98.6633C92.3163 97.7644 85.37 97.7371 79.8674 94.4683C79.5133 95.912 79.2409 97.4102 79.0774 98.9085C79.0229 100.516 78.9684 102.096 78.914 103.703C78.1785 108.116 77.7426 110.758 76.762 113.891C80.6301 114.899 84.58 115.607 88.7478 115.798C92.3163 115.552 95.8848 115.307 99.4806 115.062C103.049 114.817 106.618 114.572 110.213 114.327L110.241 114.299Z" fill="url(#paint48_radial_6_3642)"/>
<path style="mix-blend-mode:multiply" opacity="0.5" fill-rule="evenodd" clip-rule="evenodd" d="M110.241 114.299C115.58 112.447 121.028 110.322 126.966 106.808L129.5 103.267C128.573 98.9357 127.348 94.5772 125.904 90.246C124.787 91.0632 123.697 91.9076 122.608 92.7521C118.304 94.0597 114.109 95.3672 109.832 96.8109C105.555 97.8188 102.913 98.3637 98.5272 98.6633C92.3163 97.7644 85.37 97.7371 79.8674 94.4683C79.5133 95.912 79.2409 97.4102 79.0774 98.9085C79.0229 100.516 78.9684 102.096 78.914 103.703C78.1785 108.116 77.7426 110.758 76.762 113.891C80.6301 114.899 84.58 115.607 88.7478 115.798C92.3163 115.552 95.8848 115.307 99.4806 115.062C103.049 114.817 106.618 114.572 110.213 114.327L110.241 114.299Z" fill="url(#paint49_radial_6_3642)"/>
<path fill-rule="evenodd" clip-rule="evenodd" d="M125.931 90.2187C127.375 94.55 128.601 98.9085 129.527 103.24C131.052 104.656 132.551 106.372 134.076 108.606C134.185 105.882 134.131 103.185 133.94 100.57C133.095 98.3364 132.632 96.1027 132.714 93.869C131.189 92.0983 129.69 90.3277 128.165 88.5571C127.429 89.1019 126.694 89.6739 125.931 90.2187Z" fill="url(#paint50_radial_6_3642)"/>
<path fill-rule="evenodd" clip-rule="evenodd" d="M109.423 114.354C108.524 113.7 107.544 113.155 106.345 112.774C99.5351 112.393 94.3866 112.774 90.6547 114.054C89.7013 114.517 88.9385 115.117 88.2575 115.743C88.9658 116.342 89.8102 116.914 90.9543 117.405C93.6239 117.895 96.3479 118.222 99.2082 118.304C101.633 118.031 104.003 117.595 106.372 117.051C107.626 116.479 108.661 115.525 109.423 114.354Z" fill="url(#paint51_radial_6_3642)"/>
<path fill-rule="evenodd" clip-rule="evenodd" d="M90.6547 114.054C89.8374 114.463 89.1837 114.953 88.5571 115.471C88.5299 115.525 88.4754 115.58 88.4482 115.634C88.4209 115.689 88.4209 115.716 88.4482 115.743C88.4482 115.743 88.5026 115.743 88.5571 115.743C88.5844 115.743 88.6116 115.743 88.6388 115.743C92.507 115.389 96.3207 115.171 100.162 114.98C100.434 114.98 100.679 114.953 100.952 114.926C103.621 114.79 106.345 114.79 109.042 114.708C109.096 114.708 109.151 114.708 109.205 114.681C109.26 114.599 109.314 114.545 109.369 114.463C109.369 114.436 109.369 114.381 109.369 114.354C109.369 114.327 109.342 114.272 109.314 114.245C108.47 113.646 107.517 113.128 106.372 112.774C99.5623 112.393 94.4138 112.774 90.6819 114.054H90.6547Z" fill="url(#paint52_radial_6_3642)"/>
<path fill-rule="evenodd" clip-rule="evenodd" d="M32.3054 147.015C32.4416 148.241 32.6868 149.494 33.0409 150.774C34.975 150.747 36.9091 150.584 38.8159 150.23C36.4732 149.276 34.3212 148.187 32.3054 147.015Z" fill="url(#paint53_radial_6_3642)"/>
<path fill-rule="evenodd" clip-rule="evenodd" d="M32.3054 147.015C34.3485 148.187 36.4732 149.276 38.8159 150.23C40.8045 150.584 42.9837 150.965 44.7543 151.537C43.7464 149.521 42.5206 146.498 42.1393 144.591C42.0848 142.929 42.1393 141.268 42.3572 139.66C38.9521 141.295 35.5198 142.739 32.033 143.855C32.033 144.918 32.142 145.953 32.3054 147.015Z" fill="url(#paint54_radial_6_3642)"/>
<path fill-rule="evenodd" clip-rule="evenodd" d="M33.0409 150.747C32.6868 149.467 32.4416 148.214 32.3054 146.988C32.142 145.926 32.0603 144.891 32.033 143.828C25.2501 141.268 19.6931 138.271 14.5718 135.084C15.7432 136.964 17.65 139.116 19.6931 141.104L20.8372 143.256C22.635 145.299 27.0752 148.704 33.0137 150.747H33.0409Z" fill="url(#paint55_radial_6_3642)"/>
<path fill-rule="evenodd" clip-rule="evenodd" d="M14.5446 135.084C19.6659 138.271 25.2502 141.267 32.0058 143.828C35.5198 142.711 38.9522 141.267 42.33 139.633C38.7887 137.181 35.7105 135.057 33.2861 132.523C31.7062 132.387 30.1535 132.333 28.6552 132.333C27.5111 131.652 26.367 130.943 25.2229 130.262C24.5691 130.126 23.9154 129.935 23.2616 129.69C21.9813 129.036 20.592 127.92 19.5296 126.884C18.2493 126.83 15.5798 126.34 14.817 125.877C14.245 128.355 14.1633 131.406 14.5174 135.111L14.5446 135.084Z" fill="url(#paint56_radial_6_3642)"/>
<path fill-rule="evenodd" clip-rule="evenodd" d="M93.9508 7.73443C90.8181 9.72299 88.1485 11.875 85.6424 14.0815C85.1248 23.2343 85.7514 28.9276 87.1951 36.7728C88.884 37.0452 90.6002 37.2632 92.3163 37.4266C94.3321 37.5901 96.3207 37.7535 98.3365 37.9169C99.3172 38.5435 100.298 39.1428 101.278 39.7693L108.061 42.3027C112.066 43.4468 116.097 44.5636 120.102 45.7077C123.425 46.4432 126.748 47.206 130.044 47.9415C131.924 47.8325 133.804 47.6691 135.602 47.3966C135.138 38.598 133.858 34.8115 130.208 26.5576C129.718 25.4408 129.227 24.3512 128.737 23.2343C124.106 13.6456 120.565 9.85919 114.299 6.99894C110.867 6.45413 107.462 5.93656 103.921 5.80035C100.57 6.12724 97.2196 6.67205 93.978 7.73443H93.9508Z" fill="url(#paint57_radial_6_3642)"/>
<path style="mix-blend-mode:screen" opacity="0.55" fill-rule="evenodd" clip-rule="evenodd" d="M93.9508 7.73443C90.8181 9.72299 88.1485 11.875 85.6424 14.0815C85.1248 23.2343 85.7514 28.9276 87.1951 36.7728C88.884 37.0452 90.6002 37.2632 92.3163 37.4266C94.3321 37.5901 96.3207 37.7535 98.3365 37.9169C99.3172 38.5435 100.298 39.1428 101.278 39.7693L108.061 42.3027C112.066 43.4468 116.097 44.5636 120.102 45.7077C123.425 46.4432 126.748 47.206 130.044 47.9415C131.924 47.8325 133.804 47.6691 135.602 47.3966C135.138 38.598 133.858 34.8115 130.208 26.5576C129.718 25.4408 129.227 24.3512 128.737 23.2343C124.106 13.6456 120.565 9.85919 114.299 6.99894C110.867 6.45413 107.462 5.93656 103.921 5.80035C100.57 6.12724 97.2196 6.67205 93.978 7.73443H93.9508Z" fill="url(#paint58_radial_6_3642)"/>
<path fill-rule="evenodd" clip-rule="evenodd" d="M104.656 36.2825C102.695 35.9284 100.706 35.656 98.6361 35.5198C97.7644 34.4029 96.7837 33.5312 95.7486 32.714C92.6159 33.8036 89.8374 35.2201 87.1678 36.7456C88.8568 37.018 90.5729 37.2359 92.2891 37.3994C94.3049 37.5628 96.2934 37.7262 98.3092 37.8897C99.2899 38.5162 100.271 39.1155 101.251 39.742L108.034 42.2754C112.038 43.4195 116.07 44.5364 120.074 45.6805C123.398 46.416 126.721 47.1787 130.017 47.9142C131.897 47.8052 133.776 47.6418 135.574 47.3694C127.484 42.9837 112.202 38.2711 104.684 36.2825H104.656Z" fill="url(#paint59_radial_6_3642)"/>
<path fill-rule="evenodd" clip-rule="evenodd" d="M95.7486 32.7412C93.0518 27.1297 91.254 22.6622 89.0747 15.6614C88.0668 15.0621 86.9227 14.5446 85.6424 14.0815C85.1248 23.2343 85.7514 28.9276 87.1951 36.7728C89.8647 35.2746 92.6432 33.8581 95.7759 32.7412H95.7486Z" fill="url(#paint60_radial_6_3642)"/>
<path fill-rule="evenodd" clip-rule="evenodd" d="M92.2891 37.3994C90.573 37.2359 88.8568 37.0453 87.1679 36.7456C86.0783 38.7886 85.1249 40.8862 84.2804 42.9837C87.2769 41.2131 89.3744 39.7421 92.2891 37.3721V37.3994Z" fill="#511334"/>
<path fill-rule="evenodd" clip-rule="evenodd" d="M130.017 47.9142C132.115 49.3307 134.239 50.72 136.337 52.1365C136.146 50.5293 135.901 48.9493 135.574 47.3966C133.776 47.669 131.924 47.8325 130.017 47.9414V47.9142Z" fill="#511334"/>
<path fill-rule="evenodd" clip-rule="evenodd" d="M134.348 49.14C134.866 48.5952 135.247 47.9959 135.547 47.3694C133.749 47.6418 131.897 47.8052 129.99 47.9142C131.434 48.4045 132.85 48.9221 134.321 49.14H134.348Z" fill="url(#paint61_radial_6_3642)"/>
<path fill-rule="evenodd" clip-rule="evenodd" d="M84.2804 43.0109C85.6152 41.5672 86.8955 40.0962 88.0123 38.489C87.7672 37.808 87.4948 37.2632 87.1679 36.7728C86.0783 38.8159 85.1249 40.9134 84.2804 43.0109Z" fill="url(#paint62_radial_6_3642)"/>
<path fill-rule="evenodd" clip-rule="evenodd" d="M58.4019 8.06128C65.5389 6.78098 72.6759 5.44619 79.8129 4.13865C88.2303 4.43829 100.298 5.69136 108.77 3.26695C109.451 3.07626 110.104 2.85834 110.731 2.61317L104.874 0.760819L92.3708 0.297729L81.7198 0.597376L73.5476 0.297729L64.2858 4.92862L55.2692 8.63333C56.3316 8.44265 57.3667 8.25196 58.4291 8.06128H58.4019Z" fill="url(#paint63_radial_6_3642)"/>
<path fill-rule="evenodd" clip-rule="evenodd" d="M99.4534 172.758C99.7803 172.158 100.107 171.559 100.434 170.96C107.707 168.426 114.572 165.512 121.191 161.153C122.199 160.935 123.207 160.744 124.188 160.527C124.733 159.764 125.277 158.974 125.795 158.211C130.317 156.304 134.948 154.779 139.769 153.825H142.766C147.07 152.463 151.02 151.074 155.242 149.467C155.242 150.611 155.16 151.782 154.915 153.035C154.043 155.596 152.845 158.048 151.047 160.39C145.681 161.671 139.579 167.446 135.084 170.878C133.286 171.995 131.298 172.894 129.227 173.657C127.92 173.874 126.612 174.065 125.305 174.283C122.799 175.836 119.421 176.898 117.296 177.225C114.872 176.462 112.992 175.591 111.33 174.692C107.38 174.065 103.43 173.411 99.4806 172.785L99.4534 172.758Z" fill="url(#paint64_radial_6_3642)"/>
<path fill-rule="evenodd" clip-rule="evenodd" d="M101.142 170.742C104.466 169.625 107.026 169.407 111.712 171.096C114.763 169.679 117.078 168.78 120.265 167.745C120.701 167.5 121.6 166.765 121.872 166.438C123.153 166.492 124.406 166.438 125.659 166.356C131.733 164.776 139.579 161.725 144.945 158.375C148.623 156.059 150.911 154.779 154.915 153.063C155.16 151.81 155.242 150.638 155.242 149.494C151.02 151.101 147.07 152.491 142.766 153.853H139.769C134.948 154.833 130.317 156.359 125.795 158.238C125.25 159.001 124.705 159.791 124.188 160.554C123.18 160.772 122.172 160.962 121.191 161.18C114.79 165.403 108.143 168.263 101.142 170.742Z" fill="url(#paint65_radial_6_3642)"/>
<path fill-rule="evenodd" clip-rule="evenodd" d="M109.75 155.487C116.533 151.455 134.022 142.875 134.131 137.508C136.609 137.072 139.007 136.364 141.377 135.438C142.194 134.566 142.929 133.667 143.529 132.66C147.124 130.562 150.557 128.219 153.934 125.713L156.55 123.234C156.55 120.783 156.386 118.331 155.787 115.988C152.981 114.844 149.93 114.081 146.607 113.755C142.875 114.626 139.197 115.689 135.656 117.078C129.2 118.331 122.853 120.102 116.615 122.09C111.93 124.242 107.544 126.694 103.267 129.254C100.38 129.772 97.4921 130.072 94.7135 130.017C94.196 130.998 93.3243 132.632 92.8612 133.014C85.4518 136.5 76.6258 138.543 68.7261 141.431C61.6708 141.295 54.6972 141.758 47.7509 142.739C47.1516 144.918 47.315 147.124 48.4591 149.385C53.7983 150.638 59.1102 152.164 64.3403 154.234C79.1047 155.814 94.3866 155.759 109.778 155.46L109.75 155.487Z" fill="url(#paint66_radial_6_3642)"/>
<path fill-rule="evenodd" clip-rule="evenodd" d="M103.267 129.227C107.244 131.979 111.194 134.73 115.062 137.072C117.35 137.808 119.802 138.462 122.935 138.571C126.83 137.944 130.535 137.59 134.131 137.481C136.609 137.045 139.007 136.337 141.377 135.411C142.194 134.539 142.929 133.64 143.529 132.632C147.124 130.535 150.557 128.192 153.934 125.686L156.55 123.207C156.55 120.755 156.386 118.304 155.787 115.961C152.981 114.817 149.93 114.054 146.607 113.727C142.875 114.599 139.197 115.661 135.656 117.051C129.2 118.304 122.853 120.074 116.615 122.063C111.93 124.215 107.544 126.667 103.267 129.227Z" fill="url(#paint67_radial_6_3642)"/>
<path fill-rule="evenodd" clip-rule="evenodd" d="M48.4318 149.385C47.2877 147.124 47.1243 144.891 47.7236 142.739C45.9257 141.703 44.1551 140.668 42.3572 139.66C42.1393 141.268 42.0848 142.929 42.1393 144.591C42.5206 146.498 43.7737 149.521 44.7544 151.537C45.9802 150.829 47.206 150.121 48.4318 149.385Z" fill="url(#paint68_radial_6_3642)"/>
<path fill-rule="evenodd" clip-rule="evenodd" d="M47.7236 142.738C54.6699 141.758 61.6707 141.295 68.6988 141.431C76.6258 138.543 85.4517 136.528 92.8339 133.014C93.297 132.632 94.1687 130.971 94.6863 130.017C97.492 130.072 100.352 129.772 103.24 129.254C107.517 126.694 111.902 124.242 116.588 122.09C122.853 120.102 129.173 118.331 135.629 117.078C139.17 115.689 142.848 114.653 146.579 113.755C149.903 114.081 152.954 114.844 155.76 115.988C156.359 118.358 156.55 120.783 156.522 123.234L162.706 116.451L157.993 111.139L149.358 109.995L131.951 114.081C126.176 115.988 120.129 117.623 113.836 119.012C110.704 120.755 107.653 122.472 104.656 124.215C102.995 125.168 101.333 126.149 99.6985 127.102C92.8067 129.064 86.0238 131.406 79.5678 133.967C76.8437 134.267 74.1197 134.893 71.3956 135.52C70.197 135.493 68.9712 135.356 67.7726 135.057L50.0935 138.298L42.33 139.688C44.1278 140.723 45.8985 141.758 47.6963 142.766L47.7236 142.738Z" fill="url(#paint69_radial_6_3642)"/>
<path fill-rule="evenodd" clip-rule="evenodd" d="M109.75 155.487C94.3866 155.759 79.0774 155.841 64.313 154.261C59.0829 152.191 53.771 150.665 48.4318 149.412C47.206 150.121 45.9802 150.829 44.7543 151.564L55.923 154.506L64.0951 157.503L73.6565 158.729L87.6309 160.118L110.077 158.647L120.864 153.471L137.835 142.984L145.326 133.885L153.962 125.713C150.584 128.219 147.124 130.562 143.556 132.659C142.956 133.667 142.194 134.566 141.404 135.438C139.034 136.391 136.609 137.072 134.158 137.508C134.049 142.875 116.56 151.455 109.777 155.487H109.75Z" fill="url(#paint70_radial_6_3642)"/>
<path fill-rule="evenodd" clip-rule="evenodd" d="M41.1314 137.563C39.7149 135.71 38.3529 134.158 37.1815 133.041C35.8467 132.823 34.5664 132.659 33.3134 132.551C35.7378 135.084 38.7887 137.209 42.3572 139.66C42.0031 138.925 41.5672 138.217 41.1314 137.59V137.563Z" fill="url(#paint71_radial_6_3642)"/>
<path fill-rule="evenodd" clip-rule="evenodd" d="M48.7042 136.473C46.2253 137.236 43.7192 137.59 41.1313 137.563C41.5672 138.217 41.9758 138.898 42.3572 139.633L50.1207 138.244L67.7998 135.002C61.2893 134.457 55.1875 135.683 48.677 136.473H48.7042Z" fill="#511334"/>
<path opacity="0.5" fill-rule="evenodd" clip-rule="evenodd" d="M41.1314 137.563C43.692 137.617 46.2254 137.263 48.7043 136.473C48.7043 135.084 48.5953 133.722 48.2957 132.333C44.5909 132.333 40.8862 132.605 37.1815 133.014C38.3529 134.131 39.7149 135.683 41.1314 137.536V137.563Z" fill="url(#paint72_radial_6_3642)"/>
<path fill-rule="evenodd" clip-rule="evenodd" d="M48.2957 132.36C48.5953 133.749 48.7043 135.111 48.7043 136.5C55.2148 135.71 61.2894 134.485 67.8271 135.029C63.7683 132.687 59.437 130.807 55.1058 128.955C52.9265 130.29 50.6383 131.379 48.3229 132.36H48.2957Z" fill="url(#paint73_radial_6_3642)"/>
<path fill-rule="evenodd" clip-rule="evenodd" d="M119.039 158.701L110.05 158.62L87.6037 160.091L73.6293 158.701L64.0679 157.476L55.8957 154.479L44.7271 151.537C42.9565 150.938 40.7772 150.557 38.7887 150.23C36.8546 150.584 34.9205 150.72 33.0137 150.774C35.3564 151.401 37.699 152.736 40.0417 153.362L45.1357 156.141L52.8448 158.293C56.2226 159.382 59.5732 160.445 62.951 161.534C71.9404 165.539 78.1785 168.726 87.7944 170.932C90.0281 171.232 92.8884 171.259 95.2855 171.232C96.7838 171.695 98.1458 172.213 99.4533 172.785C99.7802 172.185 100.107 171.586 100.434 170.987C100.679 170.905 100.897 170.823 101.142 170.742C108.143 168.263 114.79 165.403 121.191 161.18L119.067 158.701H119.039Z" fill="url(#paint74_radial_6_3642)"/>
<path fill-rule="evenodd" clip-rule="evenodd" d="M40.069 153.335C48.7042 154.125 54.6154 155.678 61.8069 158.347C63.0327 158.81 68.835 161.153 72.2128 162.488C74.5555 162.76 83.8173 162.869 87.6037 162.27C92.1801 162.188 113.019 161.698 115.117 161.071C116.125 160.772 118.059 159.628 119.039 158.729L110.05 158.647L87.6037 160.118L73.6293 158.729L64.0679 157.503L55.8957 154.506L44.7271 151.564C42.9565 150.965 40.7772 150.584 38.7887 150.257C36.8546 150.611 34.9205 150.747 33.0137 150.802C35.3564 151.428 37.699 152.763 40.0417 153.39L40.069 153.335Z" fill="url(#paint75_radial_6_3642)"/>
<path fill-rule="evenodd" clip-rule="evenodd" d="M119.039 158.701L120.864 153.444L110.05 158.62L119.039 158.701Z" fill="#511334"/>
<path fill-rule="evenodd" clip-rule="evenodd" d="M138.761 146.362L139.769 144.209C143.174 141.458 146.661 139.551 150.175 138.026C152.273 133.695 154.67 129.581 157.503 125.768C159.464 123.861 161.698 122.063 164.095 120.374C165.13 118.385 166.383 116.424 167.854 114.463L162.733 116.424L156.55 123.207L153.934 125.686L145.299 133.858L137.808 142.956L120.837 153.444L119.012 158.701C121.273 157.367 123.806 155.378 125.931 152.463C130.262 149.821 134.512 147.887 138.734 146.362H138.761Z" fill="url(#paint76_radial_6_3642)"/>
<path fill-rule="evenodd" clip-rule="evenodd" d="M139.769 144.209L138.761 146.361C134.539 147.887 130.29 149.794 125.958 152.463C123.834 155.378 121.3 157.367 119.039 158.701L121.164 161.18C122.172 160.962 123.18 160.772 124.161 160.554C124.705 159.791 125.25 159.001 125.768 158.238C130.29 156.332 134.921 154.806 139.742 153.853H142.739C147.043 152.491 150.992 151.101 155.215 149.494C157.067 148.731 158.865 147.805 160.581 146.579C160.118 146.035 159.655 145.517 159.192 144.999C156.441 142.057 153.39 139.824 150.148 138.053C146.634 139.551 143.147 141.485 139.742 144.237L139.769 144.209Z" fill="url(#paint77_radial_6_3642)"/>
<path fill-rule="evenodd" clip-rule="evenodd" d="M150.175 138.026C153.417 139.797 156.468 142.03 159.219 144.972C159.682 145.49 160.145 146.007 160.608 146.552C161.671 144.809 162.624 143.065 163.387 141.295C165.948 138.543 168.644 135.874 171.396 133.286C170.633 132.224 169.87 131.134 169.162 130.017C167.173 126.939 165.403 123.752 164.095 120.347C161.671 122.063 159.437 123.834 157.503 125.74C154.67 129.554 152.273 133.667 150.175 137.999V138.026Z" fill="url(#paint78_radial_6_3642)"/>
<path fill-rule="evenodd" clip-rule="evenodd" d="M164.122 120.374C165.457 123.752 167.201 126.966 169.189 130.044C169.897 131.134 170.66 132.224 171.423 133.313C172.54 129.091 173.112 124.651 173.493 120.51C172.594 118.222 169.516 115.498 167.854 114.49C166.411 116.424 165.13 118.385 164.095 120.401L164.122 120.374Z" fill="url(#paint79_radial_6_3642)"/>
<path fill-rule="evenodd" clip-rule="evenodd" d="M174.746 110.867C174.038 108.878 173.166 107.19 172.049 105.937C169.979 106.835 167.882 107.516 165.811 108.089L167.882 114.463C169.543 115.471 172.621 118.195 173.52 120.483C174.474 117.023 174.964 111.929 174.746 110.867Z" fill="url(#paint80_radial_6_3642)"/>
<path fill-rule="evenodd" clip-rule="evenodd" d="M172.049 105.937C173.166 107.217 174.038 108.878 174.746 110.867C174.937 110.05 176.326 107.843 177.579 106.345C178.07 105.746 178.533 105.256 178.887 105.01C179.35 104.901 179.786 104.792 180.249 104.738L178.887 97.4919C178.288 98.9357 177.606 100.298 176.871 101.605C175.454 103.158 173.875 104.602 172.077 105.937H172.049Z" fill="url(#paint81_radial_6_3642)"/>
<path fill-rule="evenodd" clip-rule="evenodd" d="M177.552 106.345C176.326 107.843 174.91 110.05 174.719 110.867C174.91 111.929 174.419 117.023 173.493 120.483L177.661 112.692L180.194 104.738C179.731 104.792 179.295 104.874 178.832 105.01C178.478 105.256 178.015 105.746 177.525 106.345H177.552Z" fill="url(#paint82_radial_6_3642)"/>
<path fill-rule="evenodd" clip-rule="evenodd" d="M160.445 107.244L158.048 111.112L162.76 116.424L167.882 114.463L165.811 108.089C163.959 107.789 162.188 107.516 160.445 107.244Z" fill="url(#paint83_radial_6_3642)"/>
<path fill-rule="evenodd" clip-rule="evenodd" d="M158.048 111.112L161.289 110.785L164.531 109.587L165.811 108.089C163.959 107.789 162.188 107.516 160.445 107.244L158.048 111.112Z" fill="url(#paint84_radial_6_3642)"/>
<path fill-rule="evenodd" clip-rule="evenodd" d="M158.048 111.112L160.445 107.244C151.156 105.8 143.447 104.466 133.94 100.597C134.131 103.24 134.185 105.909 134.076 108.633C133.994 109.723 132.605 113.292 132.006 114.027L149.413 109.941L158.048 111.085V111.112Z" fill="url(#paint85_radial_6_3642)"/>
<path fill-rule="evenodd" clip-rule="evenodd" d="M145.245 107.898C141.567 108.633 137.863 108.824 134.076 108.633C133.994 109.723 132.605 113.291 132.006 114.027L149.413 109.941C148.35 109.151 146.988 108.334 145.245 107.898Z" fill="url(#paint86_radial_6_3642)"/>
<path style="mix-blend-mode:multiply" fill-rule="evenodd" clip-rule="evenodd" d="M178.859 97.492C179.132 95.2582 179.404 93.0245 179.704 90.7908C179.867 87.4402 180.004 84.1169 180.167 80.7663C179.322 75.8357 178.478 70.9052 177.634 65.9474C175.754 61.0986 173.902 57.7208 173.548 52.5178C170.197 46.7973 167.718 41.9485 164.912 35.9283C162.052 32.8502 159.464 29.6085 156.631 26.5848C149.957 19.3933 142.384 13.8908 133.967 8.33369C133.177 7.89784 132.36 7.46199 131.57 7.02614C130.099 6.48133 128.573 6.1272 127.021 5.88204C125.25 4.68345 123.479 3.45763 121.709 2.25905C120.156 1.57804 118.522 1.19667 116.86 0.869781C115.552 1.87768 114.381 3.02178 113.373 4.30209L110.731 2.61317L104.874 0.760819L92.3707 0.297729L81.7197 0.597376L73.5475 0.297729L64.2857 4.92862L55.2691 8.63333L52.1092 9.09642L45.626 13.809L41.2947 16.5058L35.7377 20.2923L35.0022 22.2808L35.4925 23.4522V23.5067C35.3291 23.0981 35.1384 22.6894 34.9749 22.2808C33.4767 21.5998 32.605 21.5998 31.025 21.5726C24.7052 26.5576 18.0858 34.7025 12.9373 41.6761C8.82401 49.8755 5.39171 58.1839 3.13074 66.6012C2.64041 72.4034 3.2397 79.8128 4.08416 83.1907C3.2397 84.4165 2.58593 85.724 2.06836 87.1133C1.90492 88.5298 1.8232 89.9736 1.85044 91.3901C1.38735 92.8066 0.897018 94.2503 0.433929 95.6668C0.161524 99.3716 0.706334 104.983 1.90492 107.843C2.88558 109.56 3.86624 111.276 4.8469 112.965C4.52001 113.537 4.22036 114.163 4.00244 114.844C4.1114 118.44 5.63687 122.39 6.94442 124.869C7.92508 126.612 9.09642 128.355 10.4857 130.126C10.7036 130.916 11.0033 131.706 11.3301 132.469C10.6491 134.376 10.3767 136.446 10.5946 138.652C13.128 141.622 15.5797 144.4 17.9223 147.533C25.9311 155.296 31.7878 161.208 40.9951 167.664C50.0934 172.54 55.8139 175.073 65.4571 178.614C71.8041 179.595 77.2522 180.167 83.6538 180.63C85.6423 180.848 87.6036 181.093 89.5922 181.311C98.3364 180.058 101.796 179.649 110.023 176.408C110.567 175.999 111.058 175.182 111.357 174.692C113.019 175.618 114.899 176.49 117.323 177.225C119.475 176.898 122.826 175.836 125.359 174.283C126.667 174.065 127.974 173.874 129.282 173.656C131.352 172.894 133.34 171.995 135.138 170.878C139.633 167.446 145.735 161.643 151.101 160.39C152.899 158.048 154.098 155.569 154.969 153.035C155.215 151.782 155.296 150.611 155.296 149.467C157.149 148.704 158.947 147.778 160.663 146.552C161.725 144.809 162.679 143.065 163.441 141.295C166.002 138.543 168.699 135.874 171.45 133.286C172.567 129.064 173.139 124.624 173.52 120.483L177.688 112.692L180.221 104.738L178.859 97.492Z" fill="url(#paint87_radial_6_3642)"/>
<path style="mix-blend-mode:screen" fill-rule="evenodd" clip-rule="evenodd" d="M178.859 97.492C179.132 95.2582 179.404 93.0245 179.704 90.7908C179.867 87.4402 180.004 84.1169 180.167 80.7663C179.322 75.8357 178.478 70.9052 177.634 65.9474C175.754 61.0986 173.902 57.7208 173.548 52.5178C170.197 46.7973 167.718 41.9485 164.912 35.9283C162.052 32.8502 159.464 29.6085 156.631 26.5848C149.957 19.3933 142.384 13.8908 133.967 8.33369C133.177 7.89784 132.36 7.46199 131.57 7.02614C130.099 6.48133 128.573 6.1272 127.021 5.88204C125.25 4.68345 123.479 3.45763 121.709 2.25905C120.156 1.57804 118.522 1.19667 116.86 0.869781C115.552 1.87768 114.381 3.02178 113.373 4.30209L110.731 2.61317L104.874 0.760819L92.3707 0.297729L81.7197 0.597376L73.5475 0.297729L64.2857 4.92862L55.2691 8.63333L52.1092 9.09642L45.626 13.809L41.2947 16.5058L35.7377 20.2923L35.0022 22.2808L35.4925 23.4522V23.5067C35.3291 23.0981 35.1384 22.6894 34.9749 22.2808C33.4767 21.5998 32.605 21.5998 31.025 21.5726C24.7052 26.5576 18.0858 34.7025 12.9373 41.6761C8.82401 49.8755 5.39171 58.1839 3.13074 66.6012C2.64041 72.4034 3.2397 79.8128 4.08416 83.1907C3.2397 84.4165 2.58593 85.724 2.06836 87.1133C1.90492 88.5298 1.8232 89.9736 1.85044 91.3901C1.38735 92.8066 0.897018 94.2503 0.433929 95.6668C0.161524 99.3716 0.706334 104.983 1.90492 107.843C2.88558 109.56 3.86624 111.276 4.8469 112.965C4.52001 113.537 4.22036 114.163 4.00244 114.844C4.1114 118.44 5.63687 122.39 6.94442 124.869C7.92508 126.612 9.09642 128.355 10.4857 130.126C10.7036 130.916 11.0033 131.706 11.3301 132.469C10.6491 134.376 10.3767 136.446 10.5946 138.652C13.128 141.622 15.5797 144.4 17.9223 147.533C25.9311 155.296 31.7878 161.208 40.9951 167.664C50.0934 172.54 55.8139 175.073 65.4571 178.614C71.8041 179.595 77.2522 180.167 83.6538 180.63C85.6423 180.848 87.6036 181.093 89.5922 181.311C98.3364 180.058 101.796 179.649 110.023 176.408C110.567 175.999 111.058 175.182 111.357 174.692C113.019 175.618 114.899 176.49 117.323 177.225C119.475 176.898 122.826 175.836 125.359 174.283C126.667 174.065 127.974 173.874 129.282 173.656C131.352 172.894 133.34 171.995 135.138 170.878C139.633 167.446 145.735 161.643 151.101 160.39C152.899 158.048 154.098 155.569 154.969 153.035C155.215 151.782 155.296 150.611 155.296 149.467C157.149 148.704 158.947 147.778 160.663 146.552C161.725 144.809 162.679 143.065 163.441 141.295C166.002 138.543 168.699 135.874 171.45 133.286C172.567 129.064 173.139 124.624 173.52 120.483L177.688 112.692L180.221 104.738L178.859 97.492Z" fill="url(#paint88_radial_6_3642)"/>
<path style="mix-blend-mode:screen" fill-rule="evenodd" clip-rule="evenodd" d="M178.859 97.492C179.132 95.2582 179.404 93.0245 179.704 90.7908C179.867 87.4402 180.004 84.1169 180.167 80.7663C179.322 75.8357 178.478 70.9052 177.634 65.9474C175.754 61.0986 173.902 57.7208 173.548 52.5178C170.197 46.7973 167.718 41.9485 164.912 35.9283C162.052 32.8502 159.464 29.6085 156.631 26.5848C149.957 19.3933 142.384 13.8908 133.967 8.33369C133.177 7.89784 132.36 7.46199 131.57 7.02614C130.099 6.48133 128.573 6.1272 127.021 5.88204C125.25 4.68345 123.479 3.45763 121.709 2.25905C120.156 1.57804 118.522 1.19667 116.86 0.869781C115.552 1.87768 114.381 3.02178 113.373 4.30209L110.731 2.61317L104.874 0.760819L92.3707 0.297729L81.7197 0.597376L73.5475 0.297729L64.2857 4.92862L55.2691 8.63333L52.1092 9.09642L45.626 13.809L41.2947 16.5058L35.7377 20.2923L35.0022 22.2808L35.4925 23.4522V23.5067C35.3291 23.0981 35.1384 22.6894 34.9749 22.2808C33.4767 21.5998 32.605 21.5998 31.025 21.5726C24.7052 26.5576 18.0858 34.7025 12.9373 41.6761C8.82401 49.8755 5.39171 58.1839 3.13074 66.6012C2.64041 72.4034 3.2397 79.8128 4.08416 83.1907C3.2397 84.4165 2.58593 85.724 2.06836 87.1133C1.90492 88.5298 1.8232 89.9736 1.85044 91.3901C1.38735 92.8066 0.897018 94.2503 0.433929 95.6668C0.161524 99.3716 0.706334 104.983 1.90492 107.843C2.88558 109.56 3.86624 111.276 4.8469 112.965C4.52001 113.537 4.22036 114.163 4.00244 114.844C4.1114 118.44 5.63687 122.39 6.94442 124.869C7.92508 126.612 9.09642 128.355 10.4857 130.126C10.7036 130.916 11.0033 131.706 11.3301 132.469C10.6491 134.376 10.3767 136.446 10.5946 138.652C13.128 141.622 15.5797 144.4 17.9223 147.533C25.9311 155.296 31.7878 161.208 40.9951 167.664C50.0934 172.54 55.8139 175.073 65.4571 178.614C71.8041 179.595 77.2522 180.167 83.6538 180.63C85.6423 180.848 87.6036 181.093 89.5922 181.311C98.3364 180.058 101.796 179.649 110.023 176.408C110.567 175.999 111.058 175.182 111.357 174.692C113.019 175.618 114.899 176.49 117.323 177.225C119.475 176.898 122.826 175.836 125.359 174.283C126.667 174.065 127.974 173.874 129.282 173.656C131.352 172.894 133.34 171.995 135.138 170.878C139.633 167.446 145.735 161.643 151.101 160.39C152.899 158.048 154.098 155.569 154.969 153.035C155.215 151.782 155.296 150.611 155.296 149.467C157.149 148.704 158.947 147.778 160.663 146.552C161.725 144.809 162.679 143.065 163.441 141.295C166.002 138.543 168.699 135.874 171.45 133.286C172.567 129.064 173.139 124.624 173.52 120.483L177.688 112.692L180.221 104.738L178.859 97.492Z" fill="url(#paint89_radial_6_3642)"/>
<path style="mix-blend-mode:screen" opacity="0.6" fill-rule="evenodd" clip-rule="evenodd" d="M39.5514 25.9311C37.0997 27.5927 34.6209 28.5734 31.924 29.772C29.5541 30.8343 26.5032 36.9635 25.9584 37.7534C21.8995 43.474 17.3776 48.9493 14.3539 55.2691C11.9295 60.3358 11.085 66.0019 9.85921 71.4772C9.36888 73.6292 9.39612 75.8902 9.25992 78.0967C9.20544 79.0773 9.39612 80.0852 9.25992 81.0659C8.57891 85.9964 9.72301 89.8373 13.9453 96.5113C15.7159 99.317 17.0507 101.905 19.0938 104.493C21.5999 107.68 23.8336 111.167 26.9118 113.836C29.3907 115.988 32.4144 117.459 35.4381 118.685C38.0259 119.72 40.8317 120.183 43.6102 120.592C48.5408 121.273 53.553 122.172 58.5381 121.899C61.4528 121.736 64.1768 120.292 66.9554 119.284C70.878 117.868 74.6645 116.124 78.5599 114.681C85.9693 111.875 91.0632 109.777 96.5658 103.676C99.6713 100.189 102.041 96.1027 105.201 92.6703C106.808 90.927 109.26 90.1097 110.758 88.2846C112.665 85.9964 114.109 83.3269 115.253 80.6028C116.506 77.5791 116.806 74.2285 117.868 71.1231C118.712 68.6714 120.483 66.5467 120.946 64.0133C121.954 58.5652 122.39 52.9809 122.254 47.4511C122.172 43.9915 121.3 40.5592 120.238 37.2631C119.175 33.9398 117.868 30.6164 115.988 27.6744C114.327 25.1138 111.848 23.207 109.723 21.055C105.61 16.8872 95.449 11.0577 89.7285 9.80466C85.9148 8.9602 81.9104 8.63331 78.015 8.98744C73.8745 9.36881 69.9518 10.9488 65.9475 11.9567C62.0248 12.9373 57.9932 13.5094 54.234 14.9259C51.4283 15.9883 48.8132 17.5137 46.416 19.3116C43.9099 21.2184 42.2754 24.1877 39.6604 25.9311H39.5514ZM14.7625 102.777C14.5446 102.422 13.9453 102.014 13.5912 102.286C10.6764 104.357 14.1632 112.474 15.4163 115.008C16.6421 117.459 18.3583 119.856 20.7009 121.3C22.1719 122.199 24.2422 120.946 25.9039 121.436C27.4021 121.872 27.7835 123.289 29.2545 123.806C33.9943 125.468 37.3722 122.608 33.5857 120.946C31.5427 120.047 29.6358 119.339 27.6473 117.922C21.0551 113.264 18.7124 108.987 14.7625 102.804V102.777ZM103.24 103.921C102.967 103.594 102.423 103.539 102.014 103.594C101.142 103.757 100.298 104.111 99.5351 104.574C98.5272 105.201 97.5465 105.909 96.7565 106.781C96.0483 107.544 95.3673 108.388 95.0676 109.396C94.9314 109.832 95.1766 110.567 95.6397 110.676C97.1924 111.085 98.9085 111.276 100.461 110.813C102.722 110.159 104.493 105.419 103.24 103.893V103.921Z" fill="url(#paint90_radial_6_3642)"/>
<path style="mix-blend-mode:screen" fill-rule="evenodd" clip-rule="evenodd" d="M31.1069 30.2351C29.881 35.6015 30.0717 39.1155 32.1965 43.8553C32.6868 44.945 32.932 45.4898 32.9592 46.2253C33.0682 50.4203 31.9513 58.3201 30.6983 62.2972C32.932 57.0398 33.2316 53.335 34.5664 48.0776C34.7299 47.3966 35.0295 47.2876 36.2008 47.9142C38.5708 49.1945 40.8862 50.3658 43.3379 51.4282C40.3142 49.6576 35.084 47.2059 33.4223 43.9915C30.6983 38.7069 30.78 35.6015 31.1341 30.2078L31.1069 30.2351Z" fill="url(#paint91_radial_6_3642)"/>
<path style="mix-blend-mode:screen" fill-rule="evenodd" clip-rule="evenodd" d="M41.8124 24.787C41.1314 27.2931 40.4776 29.663 39.96 32.2237C39.8238 32.9864 38.9521 33.5312 38.1894 33.967C38.8704 33.6674 39.7149 33.3405 40.4776 33.4222C41.8669 34.4574 44.1551 36.4459 44.5364 38.2438C45.054 40.6137 45.4899 41.7034 46.525 44.0733C45.844 41.9213 45.4081 40.7227 45.163 38.6797C45.054 37.7262 44.9995 37.6173 45.9529 37.4538C47.3695 37.2087 49.0311 37.2359 50.3114 37.3449C51.8641 37.4538 53.1444 37.699 54.7244 38.1076C53.4169 37.4266 51.7007 37.1814 50.5021 36.8545C50.3114 36.8001 50.3114 36.6094 50.5838 36.4732C52.6814 35.4653 54.3703 34.2394 55.7595 32.8774C54.0706 34.1032 52.4634 35.1656 50.6656 36.0646C50.1752 36.3097 49.6577 36.5549 49.249 36.6366C47.6691 36.9907 44.945 36.8001 44.2368 36.2008C43.0382 35.0022 41.7579 33.9126 41.0224 32.4143C41.3221 29.881 41.3221 27.3204 41.8124 24.8142V24.787Z" fill="url(#paint92_radial_6_3642)"/>
<path style="mix-blend-mode:screen" fill-rule="evenodd" clip-rule="evenodd" d="M94.087 29.1727C91.3902 24.3512 90.464 21.3274 88.8296 15.7976C87.8762 15.1438 87.2224 14.7625 86.1873 14.2722C86.841 14.4901 88.6117 15.3073 89.1565 15.3345C93.2153 10.1316 96.1028 8.30647 101.142 7.48926C96.9745 8.46992 93.2426 11.0305 89.892 16.0428C89.7285 18.9575 92.7522 26.2852 94.087 29.1455V29.1727Z" fill="url(#paint93_radial_6_3642)"/>
<path style="mix-blend-mode:screen" fill-rule="evenodd" clip-rule="evenodd" d="M60.1725 54.8605C63.7955 56.0319 65.6751 57.0943 68.9439 60.7445C70.4966 64.9123 71.3956 69.3525 72.1311 73.7382C72.5125 75.9992 71.2594 76.0537 69.4615 77.3612C71.1777 76.5713 72.3218 76.0809 73.139 76.3533C74.0107 76.653 75.5906 78.9139 79.1319 82.3463C77.3885 80.167 75.6724 77.9878 73.929 75.8085C72.4035 72.7848 71.2321 65.3754 70.2787 61.6434C69.7339 59.5187 70.0063 59.3008 70.4694 57.067C70.2515 57.6391 70.0608 58.2384 69.8429 58.8104C69.3253 60.2542 69.1891 59.6004 67.9905 58.5925C65.2937 56.3315 64.313 55.9229 60.227 54.8333L60.1725 54.8605Z" fill="url(#paint94_radial_6_3642)"/>
<path style="mix-blend-mode:screen" fill-rule="evenodd" clip-rule="evenodd" d="M34.185 46.1981C33.9399 51.8641 31.6789 59.7638 29.7176 64.9395C27.6746 68.8894 25.4408 72.7576 23.0709 76.5985C22.0085 79.2953 21.3275 82.0738 20.8917 84.9069C22.0358 85.3427 23.1799 85.7786 24.3785 86.2416C26.6667 86.2144 29.7993 85.6424 32.8775 84.8251C35.2474 84.1986 37.5901 83.4086 39.4969 82.6186C39.6876 82.2373 39.9056 81.8287 40.0962 81.4473C40.3959 80.8753 40.6683 80.3304 40.9679 79.7584C47.9415 75.073 55.2147 70.5511 62.488 65.6478C60.9625 62.3245 58.9194 59.219 56.4678 56.3043C47.9143 53.6347 42.0031 51.51 34.185 46.1981Z" fill="url(#paint95_radial_6_3642)"/>
<path style="mix-blend-mode:screen" opacity="0.65" fill-rule="evenodd" clip-rule="evenodd" d="M49.358 36.9907C53.7165 34.8932 57.1488 31.4064 60.009 29.9082C61.0169 29.3906 64.8306 27.4565 67.1461 26.0945C74.0107 22.0901 81.0115 18.0313 84.8524 12.9101C83.8445 11.4663 82.7004 10.1315 81.5018 8.85124C79.1047 8.14299 76.7075 7.70714 74.3376 7.46198C67.4457 7.6799 61.0714 8.824 54.3703 10.5402C51.9458 12.1201 49.5487 13.7818 47.2877 15.8521C45.3809 17.8406 43.8282 20.0471 42.5751 22.4988C41.3493 25.6587 40.8045 29.091 40.5048 32.605C41.7579 34.0487 43.0927 35.4925 44.7543 36.9362C46.3071 36.8545 47.8325 36.8545 49.3852 36.9907H49.358Z" fill="url(#paint96_radial_6_3642)"/>
<path style="mix-blend-mode:screen" fill-rule="evenodd" clip-rule="evenodd" d="M29.7176 64.9395C31.6789 59.7638 33.9127 51.8641 34.1851 46.198C30.5893 40.6137 29.7721 36.6366 31.8696 25.5225C31.8424 25.3863 31.8151 25.2501 31.7879 25.1139C31.5427 23.9153 31.3793 22.744 31.0524 21.5181C24.7326 26.5031 18.1132 34.6481 12.9647 41.6216C8.85137 49.821 5.41906 58.1294 3.1581 66.5467C3.0219 69.7883 3.07638 74.2013 4.68357 77.4974C5.09218 78.3146 5.58251 79.0774 6.20904 79.7311C7.24418 79.9491 8.27932 80.1398 9.28722 80.276C10.1589 80.8752 11.0034 81.3656 11.8206 81.7469C15.0077 82.7548 17.9225 83.7627 20.9189 84.8796C21.382 82.0738 22.0358 79.2953 23.0982 76.5712C25.4409 72.7303 27.6746 68.8622 29.7449 64.9123L29.7176 64.9395Z" fill="url(#paint97_radial_6_3642)"/>
<path style="mix-blend-mode:screen" opacity="0.6" fill-rule="evenodd" clip-rule="evenodd" d="M103.049 89.8101C108.797 87.2768 117.759 83.109 122.635 78.1512C123.588 72.0765 128.955 67.7725 132.115 62.5696C129.718 60.1452 127.566 55.3509 125.55 49.2217C116.778 47.9414 109.505 46.0891 101.551 43.5012C98.4455 43.7464 95.2856 43.7191 92.0712 43.5012C85.1793 51.1286 80.7663 52.7902 70.987 55.1602L69.4888 60.4176C71.2049 65.3754 72.2673 70.3876 72.9483 75.4544C76.4896 79.1318 79.7585 82.9183 82.5915 86.8682C89.3199 88.4753 96.1028 89.6194 103.022 89.8101H103.049Z" fill="url(#paint98_radial_6_3642)"/>
<defs>
<radialGradient id="paint0_radial_6_3642" cx="0" cy="0" r="1" gradientUnits="userSpaceOnUse" gradientTransform="translate(16.0973 126.04) scale(22.4462 22.4462)">
<stop stop-color="#54143C"/>
<stop offset="1" stop-color="#9C3329"/>
</radialGradient>
<radialGradient id="paint1_radial_6_3642" cx="0" cy="0" r="1" gradientUnits="userSpaceOnUse" gradientTransform="translate(61.6707 61.0714) scale(81.0134 81.0133)">
<stop stop-color="#691731"/>
<stop offset="1" stop-color="#B84D42"/>
</radialGradient>
<radialGradient id="paint2_radial_6_3642" cx="0" cy="0" r="1" gradientUnits="userSpaceOnUse" gradientTransform="translate(60.908 121.763) scale(52.656)">
<stop offset="0.54" stop-color="white"/>
<stop offset="0.6" stop-color="#F9F5F4"/>
<stop offset="0.71" stop-color="#EBDBD9"/>
<stop offset="0.85" stop-color="#D4B2AD"/>
<stop offset="1" stop-color="#B87E76"/>
</radialGradient>
<radialGradient id="paint3_radial_6_3642" cx="0" cy="0" r="1" gradientUnits="userSpaceOnUse" gradientTransform="translate(64.1768 128.601) scale(46.0365)">
<stop stop-color="#F33218"/>
<stop offset="0.07" stop-color="#DC2D15"/>
<stop offset="0.33" stop-color="#8F1D0E"/>
<stop offset="0.56" stop-color="#511008"/>
<stop offset="0.76" stop-color="#250703"/>
<stop offset="0.91" stop-color="#0A0200"/>
<stop offset="1"/>
</radialGradient>
<radialGradient id="paint4_radial_6_3642" cx="0" cy="0" r="1" gradientUnits="userSpaceOnUse" gradientTransform="translate(45.2447 45.6805) scale(81.2313 81.2313)">
<stop stop-color="#9C3329"/>
<stop offset="1" stop-color="#4F0C35"/>
</radialGradient>
<radialGradient id="paint5_radial_6_3642" cx="0" cy="0" r="1" gradientUnits="userSpaceOnUse" gradientTransform="translate(33.6947 54.2612) scale(77.3631 77.3631)">
<stop stop-color="#8A2920"/>
<stop offset="1" stop-color="#4A0B25"/>
</radialGradient>
<radialGradient id="paint6_radial_6_3642" cx="0" cy="0" r="1" gradientUnits="userSpaceOnUse" gradientTransform="translate(77.5792 73.8744) scale(40.7791 40.7791)">
<stop stop-color="#54143C"/>
<stop offset="1" stop-color="#9C3329"/>
</radialGradient>
<radialGradient id="paint7_radial_6_3642" cx="0" cy="0" r="1" gradientUnits="userSpaceOnUse" gradientTransform="translate(20.6193 26.5304) scale(67.0117 67.0117)">
<stop stop-color="#A93F34"/>
<stop offset="1" stop-color="#6B1E3B"/>
</radialGradient>
<radialGradient id="paint8_radial_6_3642" cx="0" cy="0" r="1" gradientUnits="userSpaceOnUse" gradientTransform="translate(15.9883 57.4756) scale(44.2386 44.2386)">
<stop stop-color="#BD4124"/>
<stop offset="1" stop-color="#641A3B"/>
</radialGradient>
<radialGradient id="paint9_radial_6_3642" cx="0" cy="0" r="1" gradientUnits="userSpaceOnUse" gradientTransform="translate(30.6982 50.3658) scale(45.0286 45.0286)">
<stop stop-color="#73251E"/>
<stop offset="1" stop-color="#4A1234"/>
</radialGradient>
<radialGradient id="paint10_radial_6_3642" cx="0" cy="0" r="1" gradientUnits="userSpaceOnUse" gradientTransform="translate(50.0935 6.72654) scale(75.7014)">
<stop stop-color="#73251E"/>
<stop offset="1" stop-color="#4A1234"/>
</radialGradient>
<radialGradient id="paint11_radial_6_3642" cx="0" cy="0" r="1" gradientUnits="userSpaceOnUse" gradientTransform="translate(25.9856 12.3381) scale(16.1809 16.1809)">
<stop stop-color="#73251E"/>
<stop offset="1" stop-color="#4A1234"/>
</radialGradient>
<radialGradient id="paint12_radial_6_3642" cx="0" cy="0" r="1" gradientUnits="userSpaceOnUse" gradientTransform="translate(65.8385 3.73004) scale(46.3906 46.3906)">
<stop stop-color="#73251E"/>
<stop offset="1" stop-color="#4A1234"/>
</radialGradient>
<radialGradient id="paint13_radial_6_3642" cx="0" cy="0" r="1" gradientUnits="userSpaceOnUse" gradientTransform="translate(63.7138 78.7233) scale(44.4838 44.4838)">
<stop stop-color="#6B1E3B"/>
<stop offset="1" stop-color="#C44A3C"/>
</radialGradient>
<radialGradient id="paint14_radial_6_3642" cx="0" cy="0" r="1" gradientUnits="userSpaceOnUse" gradientTransform="translate(-21.6308 30.453) scale(66.0311)">
<stop stop-color="#6B1E3B"/>
<stop offset="1" stop-color="#DB5B4E"/>
</radialGradient>
<radialGradient id="paint15_radial_6_3642" cx="0" cy="0" r="1" gradientUnits="userSpaceOnUse" gradientTransform="translate(58.1023 28.5462) scale(28.2757 28.2757)">
<stop stop-color="#96372D"/>
<stop offset="1" stop-color="#300317"/>
</radialGradient>
<radialGradient id="paint16_radial_6_3642" cx="0" cy="0" r="1" gradientUnits="userSpaceOnUse" gradientTransform="translate(46.0619 36.6366) scale(64.6418 64.6418)">
<stop stop-color="#A93F34"/>
<stop offset="1" stop-color="#6B1E3B"/>
</radialGradient>
<radialGradient id="paint17_radial_6_3642" cx="0" cy="0" r="1" gradientUnits="userSpaceOnUse" gradientTransform="translate(56.9581 -3.62493) scale(57.9406 57.9406)">
<stop stop-color="#993329"/>
<stop offset="1" stop-color="#6E203A"/>
</radialGradient>
<radialGradient id="paint18_radial_6_3642" cx="0" cy="0" r="1" gradientUnits="userSpaceOnUse" gradientTransform="translate(57.966 17.541) scale(42.5497 42.5497)">
<stop stop-color="#73251E"/>
<stop offset="1" stop-color="#3B0F29"/>
</radialGradient>
<radialGradient id="paint19_radial_6_3642" cx="0" cy="0" r="1" gradientUnits="userSpaceOnUse" gradientTransform="translate(132.986 31.3247) scale(51.3212 51.3212)">
<stop stop-color="#73251E"/>
<stop offset="1" stop-color="#3B0E2A"/>
</radialGradient>
<radialGradient id="paint20_radial_6_3642" cx="0" cy="0" r="1" gradientUnits="userSpaceOnUse" gradientTransform="translate(74.3648 80.8208) scale(91.4192 91.4192)">
<stop stop-color="#6B1E3B"/>
<stop offset="1" stop-color="#C44A3C"/>
</radialGradient>
<radialGradient id="paint21_radial_6_3642" cx="0" cy="0" r="1" gradientUnits="userSpaceOnUse" gradientTransform="translate(70.6601 9.9681) scale(124.68 124.68)">
<stop stop-color="#BF473B"/>
<stop offset="1" stop-color="#6B1E3B"/>
</radialGradient>
<radialGradient id="paint22_radial_6_3642" cx="0" cy="0" r="1" gradientUnits="userSpaceOnUse" gradientTransform="translate(117.132 24.4328) scale(83.6012 83.6012)">
<stop stop-color="#9E3752"/>
<stop offset="1" stop-color="#571133"/>
</radialGradient>
<radialGradient id="paint23_radial_6_3642" cx="0" cy="0" r="1" gradientUnits="userSpaceOnUse" gradientTransform="translate(148.486 92.3708) scale(50.8853 50.8853)">
<stop stop-color="#6B1E3B"/>
<stop offset="1" stop-color="#C44A3C"/>
</radialGradient>
<radialGradient id="paint24_radial_6_3642" cx="0" cy="0" r="1" gradientUnits="userSpaceOnUse" gradientTransform="translate(63.2507 54.234) scale(115.445 115.445)">
<stop stop-color="#9E3359"/>
<stop offset="1" stop-color="#591931"/>
</radialGradient>
<radialGradient id="paint25_radial_6_3642" cx="0" cy="0" r="1" gradientUnits="userSpaceOnUse" gradientTransform="translate(135.656 43.8009) scale(182.049 182.049)">
<stop stop-color="#5C1233"/>
<stop offset="1" stop-color="#A93F34"/>
</radialGradient>
<radialGradient id="paint26_radial_6_3642" cx="0" cy="0" r="1" gradientUnits="userSpaceOnUse" gradientTransform="translate(132.769 50.3114) scale(77.1724 77.1724)">
<stop stop-color="#9C3329"/>
<stop offset="1" stop-color="#480F3C"/>
</radialGradient>
<radialGradient id="paint27_radial_6_3642" cx="0" cy="0" r="1" gradientUnits="userSpaceOnUse" gradientTransform="translate(144.291 69.407) scale(48.8695 48.8695)">
<stop stop-color="#9C3329"/>
<stop offset="1" stop-color="#430C3D"/>
</radialGradient>
<radialGradient id="paint28_radial_6_3642" cx="0" cy="0" r="1" gradientUnits="userSpaceOnUse" gradientTransform="translate(24.4057 95.8848) scale(42.9311 42.9311)">
<stop stop-color="#73251E"/>
<stop offset="1" stop-color="#4A1234"/>
</radialGradient>
<radialGradient id="paint29_radial_6_3642" cx="0" cy="0" r="1" gradientUnits="userSpaceOnUse" gradientTransform="translate(27.0208 97.6282) scale(100.436 100.436)">
<stop stop-color="#6B1E3B"/>
<stop offset="1" stop-color="#C44A3C"/>
</radialGradient>
<radialGradient id="paint30_radial_6_3642" cx="0" cy="0" r="1" gradientUnits="userSpaceOnUse" gradientTransform="translate(10.0771 77.6336) scale(51.076 51.076)">
<stop stop-color="#BD5348"/>
<stop offset="1" stop-color="#6B1E3B"/>
</radialGradient>
<radialGradient id="paint31_radial_6_3642" cx="0" cy="0" r="1" gradientUnits="userSpaceOnUse" gradientTransform="translate(58.1839 97.7372) scale(30.3187 30.3187)">
<stop stop-color="#6B1E3B"/>
<stop offset="1" stop-color="#C44A3C"/>
</radialGradient>
<radialGradient id="paint32_radial_6_3642" cx="0" cy="0" r="1" gradientUnits="userSpaceOnUse" gradientTransform="translate(88.5299 50.7745) scale(69.5179 69.5178)">
<stop stop-color="#BD3634"/>
<stop offset="1" stop-color="#641A3B"/>
</radialGradient>
<radialGradient id="paint33_radial_6_3642" cx="0" cy="0" r="1" gradientUnits="userSpaceOnUse" gradientTransform="translate(86.4052 16.9145) scale(75.5652 75.5653)">
<stop stop-color="#6B1E3B"/>
<stop offset="1" stop-color="#C44A3C"/>
</radialGradient>
<radialGradient id="paint34_radial_6_3642" cx="0" cy="0" r="1" gradientUnits="userSpaceOnUse" gradientTransform="translate(74.2831 75.8358) scale(64.7235 64.7235)">
<stop stop-color="#9C3329"/>
<stop offset="1" stop-color="#480A36"/>
</radialGradient>
<radialGradient id="paint35_radial_6_3642" cx="0" cy="0" r="1" gradientUnits="userSpaceOnUse" gradientTransform="translate(73.1935 73.2751) scale(65.0776 65.0776)">
<stop stop-color="#73251E"/>
<stop offset="1" stop-color="#4A1234"/>
</radialGradient>
<radialGradient id="paint36_radial_6_3642" cx="0" cy="0" r="1" gradientUnits="userSpaceOnUse" gradientTransform="translate(99.5623 65.7568) scale(88.45 88.45)">
<stop stop-color="#73251E"/>
<stop offset="1" stop-color="#4A1234"/>
</radialGradient>
<radialGradient id="paint37_radial_6_3642" cx="0" cy="0" r="1" gradientUnits="userSpaceOnUse" gradientTransform="translate(83.6266 67.9905) scale(49.6595 49.6595)">
<stop stop-color="#96372D"/>
<stop offset="1" stop-color="#380F21"/>
</radialGradient>
<radialGradient id="paint38_radial_6_3642" cx="0" cy="0" r="1" gradientUnits="userSpaceOnUse" gradientTransform="translate(152.845 92.3707) scale(107.6 107.6)">
<stop stop-color="#6B1E3B"/>
<stop offset="1" stop-color="#C44A3C"/>
</radialGradient>
<radialGradient id="paint39_radial_6_3642" cx="0" cy="0" r="1" gradientUnits="userSpaceOnUse" gradientTransform="translate(138.298 93.5965) scale(18.9866 18.9866)">
<stop stop-color="#BD4124"/>
<stop offset="1" stop-color="#641A3B"/>
</radialGradient>
<radialGradient id="paint40_radial_6_3642" cx="0" cy="0" r="1" gradientUnits="userSpaceOnUse" gradientTransform="translate(131.897 82.3462) scale(14.7371 14.7371)">
<stop stop-color="#73251E"/>
<stop offset="1" stop-color="#4A1234"/>
</radialGradient>
<radialGradient id="paint41_radial_6_3642" cx="0" cy="0" r="1" gradientUnits="userSpaceOnUse" gradientTransform="translate(122.254 80.0035) scale(20.7845 20.7845)">
<stop stop-color="#9C3329"/>
<stop offset="1" stop-color="#480A36"/>
</radialGradient>
<radialGradient id="paint42_radial_6_3642" cx="0" cy="0" r="1" gradientUnits="userSpaceOnUse" gradientTransform="translate(46.8792 110.077) scale(72.2964 72.2964)">
<stop stop-color="#A93F34"/>
<stop offset="1" stop-color="#6B1E3B"/>
</radialGradient>
<radialGradient id="paint43_radial_6_3642" cx="0" cy="0" r="1" gradientUnits="userSpaceOnUse" gradientTransform="translate(54.9696 18.8213) scale(166.222 166.222)">
<stop stop-color="#822B22"/>
<stop offset="1" stop-color="#4D1127"/>
</radialGradient>
<radialGradient id="paint44_radial_6_3642" cx="0" cy="0" r="1" gradientUnits="userSpaceOnUse" gradientTransform="translate(54.6971 123.588) scale(76.3007 76.3007)">
<stop stop-color="#5C1435"/>
<stop offset="1" stop-color="#9E3540"/>
</radialGradient>
<radialGradient id="paint45_radial_6_3642" cx="0" cy="0" r="1" gradientUnits="userSpaceOnUse" gradientTransform="translate(93.7328 95.5851) scale(45.9003 45.9003)">
<stop stop-color="#73251E"/>
<stop offset="1" stop-color="#4A1234"/>
</radialGradient>
<radialGradient id="paint46_radial_6_3642" cx="0" cy="0" r="1" gradientUnits="userSpaceOnUse" gradientTransform="translate(104.738 93.8145) scale(37.0199 37.0199)">
<stop stop-color="#8C2D2B"/>
<stop offset="1" stop-color="#520E34"/>
</radialGradient>
<radialGradient id="paint47_radial_6_3642" cx="0" cy="0" r="1" gradientUnits="userSpaceOnUse" gradientTransform="translate(101.987 84.4165) scale(41.6235 41.6235)">
<stop stop-color="#9C3329"/>
<stop offset="1" stop-color="#4F0D35"/>
</radialGradient>
<radialGradient id="paint48_radial_6_3642" cx="0" cy="0" r="1" gradientUnits="userSpaceOnUse" gradientTransform="translate(80.8208 77.6336) scale(57.8861 57.8861)">
<stop stop-color="#A93F34"/>
<stop offset="1" stop-color="#6B1E3B"/>
</radialGradient>
<radialGradient id="paint49_radial_6_3642" cx="0" cy="0" r="1" gradientUnits="userSpaceOnUse" gradientTransform="translate(106.073 67.6363) scale(57.8861 57.8861)">
<stop offset="0.62" stop-color="#B87E76"/>
<stop offset="0.69" stop-color="#D4B2AD"/>
<stop offset="0.76" stop-color="#EBDBD9"/>
<stop offset="0.81" stop-color="#F9F5F4"/>
<stop offset="0.84" stop-color="white"/>
</radialGradient>
<radialGradient id="paint50_radial_6_3642" cx="0" cy="0" r="1" gradientUnits="userSpaceOnUse" gradientTransform="translate(110.35 99.7802) scale(24.1896 24.1896)">
<stop stop-color="#73251E"/>
<stop offset="1" stop-color="#4A1234"/>
</radialGradient>
<radialGradient id="paint51_radial_6_3642" cx="0" cy="0" r="1" gradientUnits="userSpaceOnUse" gradientTransform="translate(98.0096 103.621) scale(19.5042 19.5042)">
<stop stop-color="#6B1E3B"/>
<stop offset="1" stop-color="#9E3838"/>
</radialGradient>
<radialGradient id="paint52_radial_6_3642" cx="0" cy="0" r="1" gradientUnits="userSpaceOnUse" gradientTransform="translate(98.5544 105.038) scale(22.4734 22.4734)">
<stop stop-color="#480A36"/>
<stop offset="1" stop-color="#9C3329"/>
</radialGradient>
<radialGradient id="paint53_radial_6_3642" cx="0" cy="0" r="1" gradientUnits="userSpaceOnUse" gradientTransform="translate(33.1771 143.883) scale(9.91555 9.91556)">
<stop stop-color="#A93F34"/>
<stop offset="1" stop-color="#6B1E3B"/>
</radialGradient>
<radialGradient id="paint54_radial_6_3642" cx="0" cy="0" r="1" gradientUnits="userSpaceOnUse" gradientTransform="translate(27.3749 132.578) scale(25.3065 25.3065)">
<stop stop-color="#73251E"/>
<stop offset="1" stop-color="#4A1234"/>
</radialGradient>
<radialGradient id="paint55_radial_6_3642" cx="0" cy="0" r="1" gradientUnits="userSpaceOnUse" gradientTransform="translate(21.7906 131.406) scale(23.3724 23.3724)">
<stop stop-color="#9C3329"/>
<stop offset="1" stop-color="#54143C"/>
</radialGradient>
<radialGradient id="paint56_radial_6_3642" cx="0" cy="0" r="1" gradientUnits="userSpaceOnUse" gradientTransform="translate(43.12 133.368) scale(36.8292)">
<stop stop-color="#6B1E3B"/>
<stop offset="1" stop-color="#C44A3C"/>
</radialGradient>
<radialGradient id="paint57_radial_6_3642" cx="0" cy="0" r="1" gradientUnits="userSpaceOnUse" gradientTransform="translate(162.869 40.2051) scale(88.7224 88.7224)">
<stop stop-color="#6B1E3B"/>
<stop offset="1" stop-color="#D44747"/>
</radialGradient>
<radialGradient id="paint58_radial_6_3642" cx="0" cy="0" r="1" gradientUnits="userSpaceOnUse" gradientTransform="translate(91.4991 28.519) scale(36.2027 36.2027)">
<stop stop-color="#F33218"/>
<stop offset="1"/>
</radialGradient>
<radialGradient id="paint59_radial_6_3642" cx="0" cy="0" r="1" gradientUnits="userSpaceOnUse" gradientTransform="translate(116.288 -4.03349) scale(56.2517 56.2517)">
<stop stop-color="#9C3329"/>
<stop offset="1" stop-color="#430C3D"/>
</radialGradient>
<radialGradient id="paint60_radial_6_3642" cx="0" cy="0" r="1" gradientUnits="userSpaceOnUse" gradientTransform="translate(104.602 8.74234) scale(44.729 44.729)">
<stop stop-color="#B02E34"/>
<stop offset="1" stop-color="#380F21"/>
</radialGradient>
<radialGradient id="paint61_radial_6_3642" cx="0" cy="0" r="1" gradientUnits="userSpaceOnUse" gradientTransform="translate(137.863 46.1436) scale(8.36285 8.36286)">
<stop stop-color="#9C3329"/>
<stop offset="1" stop-color="#480A36"/>
</radialGradient>
<radialGradient id="paint62_radial_6_3642" cx="0" cy="0" r="1" gradientUnits="userSpaceOnUse" gradientTransform="translate(89.0202 36.8818) scale(10.869 10.869)">
<stop stop-color="#9C3329"/>
<stop offset="1" stop-color="#480A36"/>
</radialGradient>
<radialGradient id="paint63_radial_6_3642" cx="0" cy="0" r="1" gradientUnits="userSpaceOnUse" gradientTransform="translate(97.2196 -31.8189) scale(68.5099 68.5099)">
<stop stop-color="#6B1E3B"/>
<stop offset="1" stop-color="#C44A3C"/>
</radialGradient>
<radialGradient id="paint64_radial_6_3642" cx="0" cy="0" r="1" gradientUnits="userSpaceOnUse" gradientTransform="translate(101.006 144.346) scale(56.3334 56.3334)">
<stop stop-color="#92334B"/>
<stop offset="1" stop-color="#571133"/>
</radialGradient>
<radialGradient id="paint65_radial_6_3642" cx="0" cy="0" r="1" gradientUnits="userSpaceOnUse" gradientTransform="translate(124.515 134.267) scale(65.7859 65.7859)">
<stop stop-color="#6B1E3B"/>
<stop offset="1" stop-color="#C44A3C"/>
</radialGradient>
<radialGradient id="paint66_radial_6_3642" cx="0" cy="0" r="1" gradientUnits="userSpaceOnUse" gradientTransform="translate(114.817 160.527) scale(106.32 106.32)">
<stop stop-color="#6B1E3B"/>
<stop offset="1" stop-color="#C44A3C"/>
</radialGradient>
<radialGradient id="paint67_radial_6_3642" cx="0" cy="0" r="1" gradientUnits="userSpaceOnUse" gradientTransform="translate(158.184 111.412) scale(121.956 121.956)">
<stop stop-color="#6B1E3B"/>
<stop offset="1" stop-color="#C44A3C"/>
</radialGradient>
<radialGradient id="paint68_radial_6_3642" cx="0" cy="0" r="1" gradientUnits="userSpaceOnUse" gradientTransform="translate(56.7675 141.594) scale(29.1474 29.1474)">
<stop stop-color="#8A2920"/>
<stop offset="1" stop-color="#4A0B25"/>
</radialGradient>
<radialGradient id="paint69_radial_6_3642" cx="0" cy="0" r="1" gradientUnits="userSpaceOnUse" gradientTransform="translate(74.8552 107.653) scale(125.007 125.007)">
<stop stop-color="#8A2C2C"/>
<stop offset="1" stop-color="#4D0D35"/>
</radialGradient>
<radialGradient id="paint70_radial_6_3642" cx="0" cy="0" r="1" gradientUnits="userSpaceOnUse" gradientTransform="translate(88.0123 82.1828) scale(96.7311 96.7311)">
<stop stop-color="#73251E"/>
<stop offset="1" stop-color="#4A1234"/>
</radialGradient>
<radialGradient id="paint71_radial_6_3642" cx="0" cy="0" r="1" gradientUnits="userSpaceOnUse" gradientTransform="translate(27.0753 141.485) scale(20.2942 20.2942)">
<stop stop-color="#9C3329"/>
<stop offset="1" stop-color="#4F0C35"/>
</radialGradient>
<radialGradient id="paint72_radial_6_3642" cx="0" cy="0" r="1" gradientUnits="userSpaceOnUse" gradientTransform="translate(54.6972 127.947) scale(19.8856 19.8856)">
<stop stop-color="#6B1E3B"/>
<stop offset="1" stop-color="#C44A3C"/>
</radialGradient>
<radialGradient id="paint73_radial_6_3642" cx="0" cy="0" r="1" gradientUnits="userSpaceOnUse" gradientTransform="translate(55.3782 127.838) scale(45.2465 45.2465)">
<stop stop-color="#5C1435"/>
<stop offset="1" stop-color="#9E3540"/>
</radialGradient>
<radialGradient id="paint74_radial_6_3642" cx="0" cy="0" r="1" gradientUnits="userSpaceOnUse" gradientTransform="translate(109.124 172.24) scale(102.397 102.397)">
<stop stop-color="#6B1E3B"/>
<stop offset="1" stop-color="#C44A3C"/>
</radialGradient>
<radialGradient id="paint75_radial_6_3642" cx="0" cy="0" r="1" gradientUnits="userSpaceOnUse" gradientTransform="translate(30.671 52.8993) scale(153.991 153.991)">
<stop stop-color="#993329"/>
<stop offset="1" stop-color="#591233"/>
</radialGradient>
<radialGradient id="paint76_radial_6_3642" cx="0" cy="0" r="1" gradientUnits="userSpaceOnUse" gradientTransform="translate(152.954 152.6) scale(54.59 54.59)">
<stop stop-color="#782626"/>
<stop offset="1" stop-color="#3B0A28"/>
</radialGradient>
<radialGradient id="paint77_radial_6_3642" cx="0" cy="0" r="1" gradientUnits="userSpaceOnUse" gradientTransform="translate(148.323 125.604) scale(46.663 46.6631)">
<stop stop-color="#96372D"/>
<stop offset="1" stop-color="#572121"/>
</radialGradient>
<radialGradient id="paint78_radial_6_3642" cx="0" cy="0" r="1" gradientUnits="userSpaceOnUse" gradientTransform="translate(153.798 119.72) scale(46.2 46.2)">
<stop stop-color="#8F2F26"/>
<stop offset="1" stop-color="#3D0D27"/>
</radialGradient>
<radialGradient id="paint79_radial_6_3642" cx="0" cy="0" r="1" gradientUnits="userSpaceOnUse" gradientTransform="translate(153.308 106.618) scale(36.1754 36.1754)">
<stop stop-color="#9C3329"/>
<stop offset="1" stop-color="#430C3D"/>
</radialGradient>
<radialGradient id="paint80_radial_6_3642" cx="0" cy="0" r="1" gradientUnits="userSpaceOnUse" gradientTransform="translate(172.948 120.864) scale(28.6843 28.6843)">
<stop stop-color="#6B1E3B"/>
<stop offset="1" stop-color="#C44A3C"/>
</radialGradient>
<radialGradient id="paint81_radial_6_3642" cx="0" cy="0" r="1" gradientUnits="userSpaceOnUse" gradientTransform="translate(167.636 111.357) scale(21.6835 21.6835)">
<stop stop-color="#9C3329"/>
<stop offset="1" stop-color="#480A36"/>
</radialGradient>
<radialGradient id="paint82_radial_6_3642" cx="0" cy="0" r="1" gradientUnits="userSpaceOnUse" gradientTransform="translate(163.986 103.839) scale(20.0218 20.0218)">
<stop stop-color="#9C3329"/>
<stop offset="1" stop-color="#430C3D"/>
</radialGradient>
<radialGradient id="paint83_radial_6_3642" cx="0" cy="0" r="1" gradientUnits="userSpaceOnUse" gradientTransform="translate(167.882 98.2547) scale(20.6756 20.6756)">
<stop stop-color="#9C3329"/>
<stop offset="1" stop-color="#430C3D"/>
</radialGradient>
<radialGradient id="paint84_radial_6_3642" cx="0" cy="0" r="1" gradientUnits="userSpaceOnUse" gradientTransform="translate(163.087 104.765) scale(12.5851 12.5851)">
<stop stop-color="#9C3329"/>
<stop offset="1" stop-color="#480A36"/>
</radialGradient>
<radialGradient id="paint85_radial_6_3642" cx="0" cy="0" r="1" gradientUnits="userSpaceOnUse" gradientTransform="translate(132.714 117.65) scale(32.1711 32.1711)">
<stop stop-color="#96372D"/>
<stop offset="1" stop-color="#380F21"/>
</radialGradient>
<radialGradient id="paint86_radial_6_3642" cx="0" cy="0" r="1" gradientUnits="userSpaceOnUse" gradientTransform="translate(136.037 92.1256) scale(22.4462 22.4462)">
<stop stop-color="#73251E"/>
<stop offset="1" stop-color="#4A1234"/>
</radialGradient>
<radialGradient id="paint87_radial_6_3642" cx="0" cy="0" r="1" gradientUnits="userSpaceOnUse" gradientTransform="translate(58.5925 43.4195) scale(155.298 155.298)">
<stop offset="0.57" stop-color="white"/>
<stop offset="0.69" stop-color="#D8C2CD"/>
<stop offset="0.96" stop-color="#772C51"/>
<stop offset="1" stop-color="#69163F"/>
</radialGradient>
<radialGradient id="paint88_radial_6_3642" cx="0" cy="0" r="1" gradientUnits="userSpaceOnUse" gradientTransform="translate(106.808 109.805) scale(138.382 138.382)">
<stop/>
<stop offset="0.22" stop-color="#020001"/>
<stop offset="0.38" stop-color="#0C0105"/>
<stop offset="0.52" stop-color="#1C030C"/>
<stop offset="0.65" stop-color="#330615"/>
<stop offset="0.77" stop-color="#500A22"/>
<stop offset="0.89" stop-color="#730E30"/>
<stop offset="1" stop-color="#9C1442"/>
</radialGradient>
<radialGradient id="paint89_radial_6_3642" cx="0" cy="0" r="1" gradientUnits="userSpaceOnUse" gradientTransform="translate(120.81 124.487) scale(138.382 138.382)">
<stop offset="0.04"/>
<stop offset="0.78"/>
<stop offset="0.8" stop-color="#060101"/>
<stop offset="0.83" stop-color="#190606"/>
<stop offset="0.86" stop-color="#380E0E"/>
<stop offset="0.9" stop-color="#631919"/>
<stop offset="0.94" stop-color="#9B2727"/>
<stop offset="0.98" stop-color="#DD3838"/>
<stop offset="1" stop-color="#F93F3F"/>
</radialGradient>
<radialGradient id="paint90_radial_6_3642" cx="0" cy="0" r="1" gradientUnits="userSpaceOnUse" gradientTransform="translate(54.473 31.6198) rotate(16.92) scale(102.642)">
<stop stop-color="#D41F3B"/>
<stop offset="1"/>
</radialGradient>
<radialGradient id="paint91_radial_6_3642" cx="0" cy="0" r="1" gradientUnits="userSpaceOnUse" gradientTransform="translate(34.4847 39.9327) scale(24.9796)">
<stop stop-color="#D95234"/>
<stop offset="1"/>
</radialGradient>
<radialGradient id="paint92_radial_6_3642" cx="0" cy="0" r="1" gradientUnits="userSpaceOnUse" gradientTransform="translate(45.4626 40.0417) scale(18.5236 18.5236)">
<stop stop-color="#D95234"/>
<stop offset="1"/>
</radialGradient>
<radialGradient id="paint93_radial_6_3642" cx="0" cy="0" r="1" gradientUnits="userSpaceOnUse" gradientTransform="translate(89.5378 14.3266) scale(21.5745 21.5745)">
<stop stop-color="#D95234"/>
<stop offset="1"/>
</radialGradient>
<radialGradient id="paint94_radial_6_3642" cx="0" cy="0" r="1" gradientUnits="userSpaceOnUse" gradientTransform="translate(68.3991 57.966) scale(31.817 31.8169)">
<stop stop-color="#D95234"/>
<stop offset="1"/>
</radialGradient>
<radialGradient id="paint95_radial_6_3642" cx="0" cy="0" r="1" gradientUnits="userSpaceOnUse" gradientTransform="translate(28.4373 38.9521) scale(36.2299)">
<stop stop-color="#F33218"/>
<stop offset="1"/>
</radialGradient>
<radialGradient id="paint96_radial_6_3642" cx="0" cy="0" r="1" gradientUnits="userSpaceOnUse" gradientTransform="translate(50.148 39.742) scale(31.6535)">
<stop stop-color="#F33218"/>
<stop offset="1"/>
</radialGradient>
<radialGradient id="paint97_radial_6_3642" cx="0" cy="0" r="1" gradientUnits="userSpaceOnUse" gradientTransform="translate(34.8933 46.1981) scale(25.3065)">
<stop stop-color="#F33218"/>
<stop offset="1"/>
</radialGradient>
<radialGradient id="paint98_radial_6_3642" cx="0" cy="0" r="1" gradientUnits="userSpaceOnUse" gradientTransform="translate(77.552 51.0741) scale(36.6658 36.6658)">
<stop stop-color="#F33218"/>
<stop offset="0.18" stop-color="#B82512"/>
<stop offset="0.4" stop-color="#77180B"/>
<stop offset="0.6" stop-color="#430D06"/>
<stop offset="0.77" stop-color="#1E0603"/>
<stop offset="0.91" stop-color="#080100"/>
<stop offset="1"/>
</radialGradient>
</defs>
</svg>
