<svg width="901" height="505" viewBox="0 0 901 505" fill="none" xmlns="http://www.w3.org/2000/svg">
<path fill-rule="evenodd" clip-rule="evenodd" d="M624.255 106.772L660.02 140.582C699.146 140.582 752 146.933 777.773 178.687L885.72 155.712C864.99 134.137 825.49 120.782 792.247 114.337C734.444 103.036 679.163 101.916 624.255 106.772ZM110.663 320.556C108.609 278.061 169.68 244.905 203.857 231.269L213.101 189.895C137.837 209.975 48.2851 253.871 11.3999 310.936C3.74266 322.798 0.194207 333.818 0.00744629 343.998L110.663 320.463V320.556Z" fill="url(#paint0_linear_56_19)"/>
<path fill-rule="evenodd" clip-rule="evenodd" d="M209.833 191.296C213.475 184.571 222.626 178.967 226.642 178.687L243.17 315.98C213.008 291.883 201.989 265.919 202.736 235.192C203.016 221.556 204.044 204.371 209.833 191.296Z" fill="#6C6C2E"/>
<path fill-rule="evenodd" clip-rule="evenodd" d="M222.72 357.541C217.023 332.791 229.723 324.479 255.309 318.501C365.872 292.631 704.376 273.484 653.296 384.813C650.402 391.07 645.919 396.581 641.25 401.717C634.434 409.096 626.31 415.166 618.933 421.984C565.612 472.231 515.467 486.614 440.203 473.352C388.096 464.106 235.98 415.353 222.72 357.541Z" fill="#6C6C2E"/>
<path fill-rule="evenodd" clip-rule="evenodd" d="M690.182 229.588C687.38 220.155 681.591 210.535 672.906 201.382C603.898 127.786 383.614 23.3693 308.63 45.8778C252.321 91.9221 246.065 132.269 264.367 171.402C341.219 335.966 694.197 406.387 690.182 229.588Z" fill="#6C6C2E"/>
<path fill-rule="evenodd" clip-rule="evenodd" d="M446.086 12.6287C577.472 12.6287 684.019 119.194 684.019 250.602C684.019 382.011 577.472 488.576 446.086 488.576C314.699 488.576 208.152 382.011 208.152 250.602C208.152 119.194 314.606 12.6287 446.086 12.6287Z" fill="url(#paint1_radial_56_19)"/>
<path fill-rule="evenodd" clip-rule="evenodd" d="M332.442 30.7476C328.613 32.9891 325.438 36.0712 322.263 39.2466C321.142 40.3674 320.115 41.8617 319.648 43.4495C319.368 44.4768 319.835 45.5976 320.302 46.4381C321.049 47.7457 322.637 48.3995 323.384 49.707C323.851 50.5476 324.131 51.7617 323.57 52.5089C321.143 55.6844 317.781 58.1127 314.979 61.008C310.497 65.5844 305.548 69.8806 301.719 75.0174C298.264 79.6872 291.541 96.7787 294.156 102.663C295.463 105.558 297.517 108.266 300.132 110.041C305.455 113.59 318.061 115.365 325.625 120.034C330.387 123.023 334.683 126.852 338.605 130.962C341.78 134.324 343.18 139.181 346.542 142.263C354.666 149.734 364.284 157.86 375.21 160.381C382.68 162.063 390.711 162.063 397.714 165.145C404.064 168.04 408.92 173.457 414.243 177.847C435.347 195.405 443.658 210.255 474.566 205.679C488.387 203.624 501.553 192.79 513.786 186.346C531.342 177.099 533.396 181.863 549.644 180.181C553.753 179.715 558.142 179.434 561.597 177.193C573.176 169.628 576.444 158.327 584.288 149.174C587.463 145.532 591.385 142.543 595.214 139.648C600.537 135.725 607.26 133.39 611.929 128.72C620.427 120.221 608.661 98.4598 605.673 90.241C605.019 88.4664 604.832 86.4117 605.019 84.4504C605.112 82.7693 605.299 80.9013 606.326 79.5938C608.287 76.9787 613.33 76.1381 614.263 75.0174C614.917 74.3636 615.197 73.1495 614.824 72.3089C614.077 70.2542 612.863 68.1995 611.275 66.7051C604.925 60.8212 598.202 55.2174 591.199 50.174C580.553 42.5155 569.534 35.2306 558.142 28.6929C550.858 24.49 543.388 20.6608 535.45 17.9523C526.486 14.8702 516.961 13.4693 507.81 11.2278C498.285 8.79948 488.854 5.43722 479.142 3.84948C474.193 3.10232 469.15 4.31647 464.201 4.22307C459.252 4.12967 454.396 3.84949 449.447 3.19571C443.097 2.44855 434.32 -0.259946 430.584 0.0202428C427.316 0.207035 411.255 4.87684 401.543 7.02496C394.166 8.61269 386.509 8.89288 379.225 11.041C370.634 13.5627 362.51 17.2985 354.386 20.7542C347.009 23.9297 339.445 26.8249 332.535 30.841L332.442 30.7476ZM643.958 102.943C641.25 99.674 638.169 96.7787 634.901 93.9768C633.78 93.0429 624.722 87.7193 626.403 93.5098C628.924 102.009 633.967 111.068 636.768 120.782C638.916 128.066 638.449 133.577 631.539 137.499C624.255 141.609 617.812 141.702 614.45 150.855C610.808 160.662 608.474 170.935 604.739 180.742C599.79 193.537 595.868 195.685 588.864 204.838C587.65 206.426 586.156 208.014 585.876 209.975C585.129 215.672 594.28 226.226 599.416 227.907C609.408 231.082 621.36 228.467 631.072 225.292C640.223 222.303 643.772 215.579 650.402 212.123C657.405 208.481 673.28 212.31 677.669 205.959C680.283 202.13 680.75 197.18 681.217 192.603C682.338 182.797 680.097 173.737 680.003 164.304C680.003 162.623 675.334 156.272 673.467 151.976C671.599 147.68 669.171 139.461 668.704 138.62C666.837 135.538 664.315 132.923 662.541 129.841C661.514 128.066 661.327 125.825 660.113 124.05C655.164 116.765 649.748 109.667 644.052 102.849L643.958 102.943ZM308.63 45.7844C300.039 54.7504 292.101 73.3362 288.086 76.0447C278.935 82.3957 272.865 84.357 268.196 96.6853C267.075 99.5806 266.235 102.569 266.235 105.651C266.235 106.959 267.169 108.173 268.196 108.92C275.853 114.711 277.441 114.804 275.76 121.622C275.013 124.517 274.452 127.599 274.452 130.588C274.452 131.896 274.732 133.39 275.666 134.231C276.787 135.351 278.561 135.912 280.149 136.005C285.004 136.472 289.86 135.445 294.716 135.912C300.225 136.379 301.626 139.834 304.054 144.131C305.828 147.213 306.855 150.668 308.816 153.657C310.217 155.805 312.738 157.206 313.952 159.448C317.594 165.985 319.742 173.457 323.477 179.995C324.691 182.049 326.465 183.917 328.613 184.945C331.508 186.252 334.963 185.692 337.951 186.719C340.939 187.747 344.021 188.774 346.355 190.922C350.184 194.471 352.238 199.701 355.88 203.437C361.016 208.667 366.525 213.617 372.595 217.54C375.397 219.314 378.852 219.781 382.12 220.529C386.696 221.556 391.551 221.463 396.034 222.677C399.209 223.517 402.383 224.731 404.998 226.693C410.134 230.429 414.71 234.912 418.912 239.675C425.448 246.866 429.837 256.019 437.214 262.37C442.537 266.947 449.354 269.655 456.077 271.71C464.481 274.325 473.353 275.726 482.13 276.099C487.92 276.38 493.803 275.632 499.219 273.671C510.518 269.655 520.603 262.464 531.902 258.354C538.532 255.926 545.722 254.805 552.819 254.151C560.663 253.497 568.694 253.591 576.538 254.525C583.074 255.365 589.424 257.42 595.681 259.475C607.447 263.491 618.652 268.908 630.512 272.83C637.142 274.979 643.865 277.407 650.775 277.594C654.51 277.687 658.339 276.006 661.14 273.578C670.198 265.919 671.132 259.755 675.148 250.135C676.081 247.987 677.108 245.839 678.322 243.878C679.069 242.664 679.817 241.263 681.03 240.515C682.338 239.768 684.392 240.796 686.166 240.048C689.621 238.461 690.369 234.164 690.088 229.401C692.61 235.752 691.863 257.514 692.423 263.678C692.983 270.496 695.504 280.115 695.971 283.945C696.158 285.532 690.182 295.339 688.408 301.503C685.886 309.909 686.166 319.062 683.272 327.374C681.124 333.631 676.548 338.768 673.28 344.465C670.572 349.322 668.517 354.552 665.529 359.222C652.549 379.396 637.889 381.824 615.758 378.088C585.783 373.138 569.721 371.27 538.532 371.737C487.546 372.484 475.5 382.758 434.039 394.993C424.421 397.888 414.43 399.569 404.344 400.13C382.027 401.437 361.109 393.218 340.846 384.439C323.757 377.061 304.801 364.826 292.848 350.443C286.685 342.971 283.137 333.725 278.094 325.599C272.771 317.007 267.916 308.134 261.753 300.102C255.963 292.537 248.866 285.999 242.423 278.995C239.248 275.539 235.606 272.457 232.898 268.628C230.283 264.985 227.669 261.156 226.548 256.86C222.813 242.29 219.825 220.809 219.825 205.492C219.825 198.954 221.973 193.257 220.198 186.346C218.891 181.302 214.689 179.248 215.996 170.468C216.93 164.491 219.918 158.981 221.412 153.19C222.626 148.24 222.066 142.916 224.027 138.247C226.922 131.335 231.777 125.545 235.606 119.1C237.1 116.579 238.781 114.244 239.995 111.535C241.769 107.519 242.89 104.904 245.691 101.449C247.372 99.3004 250.08 98.1796 252.134 96.4051C256.803 92.2023 259.605 86.3183 263.9 81.6485C266.702 78.5664 270.344 76.3249 273.238 73.2428C275.573 70.8145 276.974 67.5457 279.401 65.3042C286.125 59.14 294.062 54.3768 308.443 45.5976L308.63 45.7844ZM479.516 399.196C473.446 397.981 468.964 397.701 462.894 399.756C454.676 402.558 444.498 407.321 437.028 412.178C430.678 416.38 426.756 421.33 433.199 428.896C445.245 442.998 478.488 451.497 503.421 446.454C515.747 443.932 529.661 436.741 541.427 434.966C547.59 434.032 553.846 435.9 560.01 434.873C564.959 434.032 569.628 431.697 574.203 429.643C582.047 426.094 599.883 416.567 602.964 407.414C603.712 404.986 603.338 402.184 602.311 399.849C601.564 398.168 599.883 397.047 598.202 396.487C584.942 391.724 565.986 389.389 551.979 388.735C546.749 388.455 541.333 388.735 536.197 390.043C533.77 390.603 523.591 398.448 518.175 400.41C501.74 406.2 495.39 402.278 479.609 399.289L479.516 399.196ZM222.813 355.019C222.813 355.019 234.766 371.55 250.08 378.835C254.936 381.17 259.978 383.131 265.114 384.999C274.452 388.455 283.79 391.911 293.409 394.619C303.867 397.608 314.793 398.635 325.065 401.997C330.2 403.679 333.936 409.843 339.352 409.749C343.18 409.749 359.242 409.563 376.61 416.474C404.718 427.681 425.262 441.13 451.035 453.272C457.665 456.354 464.575 458.876 471.765 460.463C478.022 461.864 484.465 462.425 490.908 462.051C497.538 461.678 503.888 459.436 510.425 458.035C518.455 456.354 526.579 454.953 534.517 452.898C537.785 452.058 540.586 449.629 543.855 449.349C547.497 448.976 551.138 450.563 554.78 450.75C559.729 451.03 564.865 451.778 569.721 450.75C574.297 449.816 578.592 447.481 582.421 444.96C587.557 441.597 591.759 437.021 596.521 433.192C603.431 427.681 610.435 422.358 617.438 416.847C623.228 412.364 629.204 408.068 634.714 403.305C641.997 397.047 646.013 390.696 652.269 384.159C654.51 381.73 653.763 384.159 653.483 384.719C649.188 392.284 643.678 403.212 638.729 409.843C636.488 412.738 633.313 414.699 630.792 417.408C610.061 439.543 582.514 469.71 552.819 479.516C551.512 479.983 540.493 480.917 534.517 482.692C526.953 484.933 520.043 488.762 512.666 491.471C500.433 495.954 488.48 501.745 475.687 504.173C467.283 505.761 442.63 500.53 431.892 500.157C421.807 499.783 403.224 501.651 401.636 500.997C390.617 496.421 373.436 488.576 359.055 483.065C354.573 481.384 345.421 479.049 344.581 478.582C337.577 474.473 331.601 470.177 324.411 466.347C315.26 461.397 304.801 458.969 296.117 453.179C287.899 447.762 281.082 440.29 274.266 433.285C262.313 421.05 249.52 409.376 239.621 395.46C232.898 386.027 229.35 374.632 224.961 363.892C223.747 360.996 222.066 354.832 223 354.832L222.813 355.019ZM209.926 191.296C203.483 202.503 199.281 218.287 197.6 228C196.853 232.577 198.161 237.247 197.974 241.916C197.787 247.147 196.2 252.377 196.386 257.607C196.76 267.414 197.787 277.22 199.561 286.84C201.522 297.394 203.67 308.041 207.779 317.847C208.806 320.276 212.448 320.276 214.315 322.144C218.051 325.786 221.599 329.709 224.494 334.098C227.856 339.142 229.163 345.586 233.085 350.256C235.98 353.618 240.182 355.58 244.197 357.447C247.185 358.848 250.827 361.277 253.722 359.876C256.897 358.288 258.578 353.898 258.671 350.349C258.764 345.119 255.683 340.449 254.282 335.406C252.415 328.775 252.228 321.49 248.866 315.513C245.224 308.975 238.594 304.492 233.738 298.795C231.217 295.806 228.229 293.004 226.548 289.455C222.813 281.703 220.759 273.204 217.584 265.172C215.529 259.848 211.701 255.085 210.86 249.481C209.366 240.609 212.728 235.192 212.635 226.226C212.541 215.298 204.417 205.398 209.74 191.482L209.926 191.296Z" fill="url(#paint2_radial_56_19)"/>
<path style="mix-blend-mode:screen" fill-rule="evenodd" clip-rule="evenodd" d="M332.442 30.7476C328.613 32.9891 325.438 36.0712 322.263 39.2466C321.142 40.3674 320.115 41.8617 319.648 43.4495C319.368 44.4768 319.835 45.5976 320.302 46.4381C321.049 47.7457 322.637 48.3995 323.384 49.707C323.851 50.5476 324.131 51.7617 323.57 52.5089C321.143 55.6844 317.781 58.1127 314.979 61.008C310.497 65.5844 305.548 69.8806 301.719 75.0174C298.264 79.6872 291.541 96.7787 294.156 102.663C295.463 105.558 297.517 108.266 300.132 110.041C305.455 113.59 318.061 115.365 325.625 120.034C330.387 123.023 334.683 126.852 338.605 130.962C341.78 134.324 343.18 139.181 346.542 142.263C354.666 149.734 364.284 157.86 375.21 160.381C382.68 162.063 390.711 162.063 397.714 165.145C404.064 168.04 408.92 173.457 414.243 177.847C435.347 195.405 443.658 210.255 474.566 205.679C488.387 203.624 501.553 192.79 513.786 186.346C531.342 177.099 533.396 181.863 549.644 180.181C553.753 179.715 558.142 179.434 561.597 177.193C573.176 169.628 576.444 158.327 584.288 149.174C587.463 145.532 591.385 142.543 595.214 139.648C600.537 135.725 607.26 133.39 611.929 128.72C620.427 120.221 608.661 98.4598 605.673 90.241C605.019 88.4664 604.832 86.4117 605.019 84.4504C605.112 82.7693 605.299 80.9013 606.326 79.5938C608.287 76.9787 613.33 76.1381 614.263 75.0174C614.917 74.3636 615.197 73.1495 614.824 72.3089C614.077 70.2542 612.863 68.1995 611.275 66.7051C604.925 60.8212 598.202 55.2174 591.199 50.174C580.553 42.5155 569.534 35.2306 558.142 28.6929C550.858 24.49 543.388 20.6608 535.45 17.9523C526.486 14.8702 516.961 13.4693 507.81 11.2278C498.285 8.79948 488.854 5.43722 479.142 3.84948C474.193 3.10232 469.15 4.31647 464.201 4.22307C459.252 4.12967 454.396 3.84949 449.447 3.19571C443.097 2.44855 434.32 -0.259946 430.584 0.0202428C427.316 0.207035 411.255 4.87684 401.543 7.02496C394.166 8.61269 386.509 8.89288 379.225 11.041C370.634 13.5627 362.51 17.2985 354.386 20.7542C347.009 23.9297 339.445 26.8249 332.535 30.841L332.442 30.7476ZM643.958 102.943C641.25 99.674 638.169 96.7787 634.901 93.9768C633.78 93.0429 624.722 87.7193 626.403 93.5098C628.924 102.009 633.967 111.068 636.768 120.782C638.916 128.066 638.449 133.577 631.539 137.499C624.255 141.609 617.812 141.702 614.45 150.855C610.808 160.662 608.474 170.935 604.739 180.742C599.79 193.537 595.868 195.685 588.864 204.838C587.65 206.426 586.156 208.014 585.876 209.975C585.129 215.672 594.28 226.226 599.416 227.907C609.408 231.082 621.36 228.467 631.072 225.292C640.223 222.303 643.772 215.579 650.402 212.123C657.405 208.481 673.28 212.31 677.669 205.959C680.283 202.13 680.75 197.18 681.217 192.603C682.338 182.797 680.097 173.737 680.003 164.304C680.003 162.623 675.334 156.272 673.467 151.976C671.599 147.68 669.171 139.461 668.704 138.62C666.837 135.538 664.315 132.923 662.541 129.841C661.514 128.066 661.327 125.825 660.113 124.05C655.164 116.765 649.748 109.667 644.052 102.849L643.958 102.943ZM308.63 45.7844C300.039 54.7504 292.101 73.3362 288.086 76.0447C278.935 82.3957 272.865 84.357 268.196 96.6853C267.075 99.5806 266.235 102.569 266.235 105.651C266.235 106.959 267.169 108.173 268.196 108.92C275.853 114.711 277.441 114.804 275.76 121.622C275.013 124.517 274.452 127.599 274.452 130.588C274.452 131.896 274.732 133.39 275.666 134.231C276.787 135.351 278.561 135.912 280.149 136.005C285.004 136.472 289.86 135.445 294.716 135.912C300.225 136.379 301.626 139.834 304.054 144.131C305.828 147.213 306.855 150.668 308.816 153.657C310.217 155.805 312.738 157.206 313.952 159.448C317.594 165.985 319.742 173.457 323.477 179.995C324.691 182.049 326.465 183.917 328.613 184.945C331.508 186.252 334.963 185.692 337.951 186.719C340.939 187.747 344.021 188.774 346.355 190.922C350.184 194.471 352.238 199.701 355.88 203.437C361.016 208.667 366.525 213.617 372.595 217.54C375.397 219.314 378.852 219.781 382.12 220.529C386.696 221.556 391.551 221.463 396.034 222.677C399.209 223.517 402.383 224.731 404.998 226.693C410.134 230.429 414.71 234.912 418.912 239.675C425.448 246.866 429.837 256.019 437.214 262.37C442.537 266.947 449.354 269.655 456.077 271.71C464.481 274.325 473.353 275.726 482.13 276.099C487.92 276.38 493.803 275.632 499.219 273.671C510.518 269.655 520.603 262.464 531.902 258.354C538.532 255.926 545.722 254.805 552.819 254.151C560.663 253.497 568.694 253.591 576.538 254.525C583.074 255.365 589.424 257.42 595.681 259.475C607.447 263.491 618.652 268.908 630.512 272.83C637.142 274.979 643.865 277.407 650.775 277.594C654.51 277.687 658.339 276.006 661.14 273.578C670.198 265.919 671.132 259.755 675.148 250.135C676.081 247.987 677.108 245.839 678.322 243.878C679.069 242.664 679.817 241.263 681.03 240.515C682.338 239.768 684.392 240.796 686.166 240.048C689.621 238.461 690.369 234.164 690.088 229.401C692.61 235.752 691.863 257.514 692.423 263.678C692.983 270.496 695.504 280.115 695.971 283.945C696.158 285.532 690.182 295.339 688.408 301.503C685.886 309.909 686.166 319.062 683.272 327.374C681.124 333.631 676.548 338.768 673.28 344.465C670.572 349.322 668.517 354.552 665.529 359.222C652.549 379.396 637.889 381.824 615.758 378.088C585.783 373.138 569.721 371.27 538.532 371.737C487.546 372.484 475.5 382.758 434.039 394.993C424.421 397.888 414.43 399.569 404.344 400.13C382.027 401.437 361.109 393.218 340.846 384.439C323.757 377.061 304.801 364.826 292.848 350.443C286.685 342.971 283.137 333.725 278.094 325.599C272.771 317.007 267.916 308.134 261.753 300.102C255.963 292.537 248.866 285.999 242.423 278.995C239.248 275.539 235.606 272.457 232.898 268.628C230.283 264.985 227.669 261.156 226.548 256.86C222.813 242.29 219.825 220.809 219.825 205.492C219.825 198.954 221.973 193.257 220.198 186.346C218.891 181.302 214.689 179.248 215.996 170.468C216.93 164.491 219.918 158.981 221.412 153.19C222.626 148.24 222.066 142.916 224.027 138.247C226.922 131.335 231.777 125.545 235.606 119.1C237.1 116.579 238.781 114.244 239.995 111.535C241.769 107.519 242.89 104.904 245.691 101.449C247.372 99.3004 250.08 98.1796 252.134 96.4051C256.803 92.2023 259.605 86.3183 263.9 81.6485C266.702 78.5664 270.344 76.3249 273.238 73.2428C275.573 70.8145 276.974 67.5457 279.401 65.3042C286.125 59.14 294.062 54.3768 308.443 45.5976L308.63 45.7844ZM479.516 399.196C473.446 397.981 468.964 397.701 462.894 399.756C454.676 402.558 444.498 407.321 437.028 412.178C430.678 416.38 426.756 421.33 433.199 428.896C445.245 442.998 478.488 451.497 503.421 446.454C515.747 443.932 529.661 436.741 541.427 434.966C547.59 434.032 553.846 435.9 560.01 434.873C564.959 434.032 569.628 431.697 574.203 429.643C582.047 426.094 599.883 416.567 602.964 407.414C603.712 404.986 603.338 402.184 602.311 399.849C601.564 398.168 599.883 397.047 598.202 396.487C584.942 391.724 565.986 389.389 551.979 388.735C546.749 388.455 541.333 388.735 536.197 390.043C533.77 390.603 523.591 398.448 518.175 400.41C501.74 406.2 495.39 402.278 479.609 399.289L479.516 399.196ZM222.813 355.019C222.813 355.019 234.766 371.55 250.08 378.835C254.936 381.17 259.978 383.131 265.114 384.999C274.452 388.455 283.79 391.911 293.409 394.619C303.867 397.608 314.793 398.635 325.065 401.997C330.2 403.679 333.936 409.843 339.352 409.749C343.18 409.749 359.242 409.563 376.61 416.474C404.718 427.681 425.262 441.13 451.035 453.272C457.665 456.354 464.575 458.876 471.765 460.463C478.022 461.864 484.465 462.425 490.908 462.051C497.538 461.678 503.888 459.436 510.425 458.035C518.455 456.354 526.579 454.953 534.517 452.898C537.785 452.058 540.586 449.629 543.855 449.349C547.497 448.976 551.138 450.563 554.78 450.75C559.729 451.03 564.865 451.778 569.721 450.75C574.297 449.816 578.592 447.481 582.421 444.96C587.557 441.597 591.759 437.021 596.521 433.192C603.431 427.681 610.435 422.358 617.438 416.847C623.228 412.364 629.204 408.068 634.714 403.305C641.997 397.047 646.013 390.696 652.269 384.159C654.51 381.73 653.763 384.159 653.483 384.719C649.188 392.284 643.678 403.212 638.729 409.843C636.488 412.738 633.313 414.699 630.792 417.408C610.061 439.543 582.514 469.71 552.819 479.516C551.512 479.983 540.493 480.917 534.517 482.692C526.953 484.933 520.043 488.762 512.666 491.471C500.433 495.954 488.48 501.745 475.687 504.173C467.283 505.761 442.63 500.53 431.892 500.157C421.807 499.783 403.224 501.651 401.636 500.997C390.617 496.421 373.436 488.576 359.055 483.065C354.573 481.384 345.421 479.049 344.581 478.582C337.577 474.473 331.601 470.177 324.411 466.347C315.26 461.397 304.801 458.969 296.117 453.179C287.899 447.762 281.082 440.29 274.266 433.285C262.313 421.05 249.52 409.376 239.621 395.46C232.898 386.027 229.35 374.632 224.961 363.892C223.747 360.996 222.066 354.832 223 354.832L222.813 355.019ZM209.926 191.296C203.483 202.503 199.281 218.287 197.6 228C196.853 232.577 198.161 237.247 197.974 241.916C197.787 247.147 196.2 252.377 196.386 257.607C196.76 267.414 197.787 277.22 199.561 286.84C201.522 297.394 203.67 308.041 207.779 317.847C208.806 320.276 212.448 320.276 214.315 322.144C218.051 325.786 221.599 329.709 224.494 334.098C227.856 339.142 229.163 345.586 233.085 350.256C235.98 353.618 240.182 355.58 244.197 357.447C247.185 358.848 250.827 361.277 253.722 359.876C256.897 358.288 258.578 353.898 258.671 350.349C258.764 345.119 255.683 340.449 254.282 335.406C252.415 328.775 252.228 321.49 248.866 315.513C245.224 308.975 238.594 304.492 233.738 298.795C231.217 295.806 228.229 293.004 226.548 289.455C222.813 281.703 220.759 273.204 217.584 265.172C215.529 259.848 211.701 255.085 210.86 249.481C209.366 240.609 212.728 235.192 212.635 226.226C212.541 215.298 204.417 205.398 209.74 191.482L209.926 191.296Z" fill="url(#paint3_radial_56_19)"/>
<path style="mix-blend-mode:multiply" fill-rule="evenodd" clip-rule="evenodd" d="M501.553 18.7929C514.066 27.6655 527.513 48.5863 540.119 55.0306C544.602 57.2721 573.643 54.9372 571.962 63.4363C570.935 68.3863 561.317 69.1334 555.621 71.0013C547.87 73.6164 549.831 79.1268 554.033 81.7419C565.706 89.1202 577.378 94.9108 587.837 103.223C595.307 109.107 601.75 116.299 607.353 123.957C608.661 125.825 609.688 127.88 610.528 129.934C610.995 129.561 611.462 129.094 611.836 128.72C620.333 120.221 608.567 98.4598 605.579 90.241C604.925 88.4664 604.739 86.4117 604.925 84.4504C605.019 82.7693 605.206 80.9013 606.233 79.5938C608.194 76.9787 613.236 76.1381 614.17 75.0174C614.824 74.3636 615.104 73.1495 614.73 72.3089C613.983 70.2542 612.769 68.1995 611.182 66.7051C604.832 60.8212 598.109 55.2174 591.105 50.174C580.46 42.5155 569.441 35.2306 558.048 28.6929C550.765 24.49 543.294 20.6608 535.357 17.9523C526.393 14.8702 516.868 13.4693 507.716 11.2278C498.192 8.79948 488.76 5.43722 479.049 3.84949C474.1 3.10232 469.057 4.31647 464.108 4.22307C459.159 4.12967 454.303 3.84949 449.354 3.19571C443.004 2.44855 434.226 -0.259946 430.491 0.0202428C427.223 0.207035 411.161 4.87684 401.45 7.02496C394.073 8.61269 386.415 8.89288 379.132 11.041C370.541 13.5627 362.417 17.2985 354.293 20.7542C346.915 23.8363 339.445 26.7316 332.535 30.7476C348.036 23.4627 353.452 24.5834 365.592 20.1004C392.392 10.107 384.081 15.2438 407.613 12.3485C412.842 11.6948 417.324 7.58533 422.554 7.21175C426.849 6.83816 431.051 8.61269 435.067 10.0136C450.661 15.1504 446.272 17.2051 465.695 16.1778C472.792 15.8042 479.702 13.2825 486.799 13.7495C492.029 14.1231 497.258 15.8976 501.553 18.8863V18.7929ZM636.768 120.782C638.916 128.066 638.449 133.577 631.539 137.499C626.403 140.395 621.734 141.235 618.279 144.691C625.282 153.19 637.048 161.782 640.877 168.507C643.118 172.336 644.425 177.193 643.678 181.676C641.811 193.164 636.301 203.811 633.313 215.112C632.473 218.474 631.539 221.836 631.072 225.292C640.13 222.303 643.678 215.579 650.308 212.216C657.312 208.574 673.186 212.403 677.575 206.052C680.19 202.223 680.657 197.273 681.124 192.697C682.244 182.89 680.003 173.831 679.91 164.398C679.91 162.716 675.241 156.365 673.373 152.069C671.506 147.773 669.078 139.554 668.611 138.714C666.743 135.632 664.222 133.016 662.448 129.934C661.421 128.16 661.234 125.918 660.02 124.144C655.071 116.859 649.655 109.761 643.958 102.943C641.25 99.674 638.169 96.7787 634.9 93.9768C633.78 93.0429 624.722 87.7193 626.403 93.5098C628.924 102.009 633.967 111.068 636.768 120.782ZM661.234 273.858C658.432 276.286 654.604 277.967 650.869 277.874C645.639 277.781 640.503 276.286 635.554 274.698C636.581 287.961 634.9 301.036 624.535 314.579C618.652 322.331 609.781 327.187 602.684 333.725C596.615 339.329 590.358 344.746 584.755 350.816C578.592 357.541 573.736 364.919 569.067 372.391C583.915 373.231 597.268 375.193 615.944 378.275C638.075 381.917 652.736 379.582 665.716 359.409C668.704 354.739 670.759 349.509 673.467 344.652C676.642 338.862 681.217 333.725 683.458 327.561C686.353 319.248 686.166 310.096 688.594 301.69C690.368 295.619 696.345 285.813 696.158 284.131C695.691 280.209 693.17 270.682 692.61 263.864C692.143 257.794 692.796 236.032 690.275 229.588C690.555 234.351 689.902 238.648 686.353 240.235C684.579 241.076 682.524 239.955 681.217 240.702C680.003 241.449 679.256 242.85 678.509 244.065C677.295 246.026 676.268 248.174 675.334 250.322C671.319 259.942 670.385 266.106 661.327 273.765L661.234 273.858ZM598.109 396.487C586.623 392.378 570.935 390.043 557.768 389.109C557.582 389.389 557.395 389.576 557.208 389.856C548.43 401.25 537.785 410.87 524.151 416.1C515.747 419.369 506.503 419.836 497.912 422.451C484.465 426.467 465.602 435.9 449.354 440.103C464.761 446.921 486.052 449.91 503.328 446.454C515.654 443.932 529.567 436.741 541.333 434.966C547.496 434.032 553.753 435.9 559.916 434.873C564.865 434.032 569.534 431.697 574.11 429.643C581.954 426.094 599.789 416.567 602.871 407.414C603.618 404.986 603.245 402.184 602.217 399.849C601.47 398.168 599.79 397.047 598.109 396.487ZM534.236 452.992C526.299 455.047 518.175 456.447 510.144 458.129C503.608 459.53 497.258 461.678 490.628 462.145C484.278 462.518 477.741 461.958 471.485 460.557C464.388 458.969 457.384 456.541 450.754 453.365C441.977 449.163 433.759 444.866 425.729 440.57C407.706 436.274 393.979 428.429 372.502 426.374C365.405 425.72 358.028 427.962 351.024 426.374C339.538 423.759 328.239 419.743 317.968 414.046C301.906 405.173 292.942 399.756 285.378 392.191C278.561 389.949 271.744 387.428 264.928 384.906C259.885 383.038 254.842 381.077 249.893 378.742C234.579 371.55 222.906 354.926 222.626 354.926C221.692 354.926 223.467 361.09 224.587 363.985C228.976 374.726 232.525 386.12 239.248 395.553C249.146 409.469 261.939 421.144 273.892 433.379C280.802 440.383 287.526 447.855 295.743 453.272C304.427 458.969 314.886 461.491 324.037 466.441C331.228 470.27 337.204 474.566 344.207 478.676C345.048 479.143 354.199 481.478 358.681 483.159C373.062 488.669 390.244 496.514 401.263 501.091C402.85 501.745 421.433 499.97 431.518 500.25C442.257 500.624 466.909 505.854 475.313 504.266C488.107 501.838 500.059 496.047 512.292 491.564C519.669 488.856 526.673 485.027 534.143 482.785C540.119 481.011 551.138 480.077 552.446 479.61C582.234 469.803 609.688 439.73 630.418 417.501C632.94 414.793 636.208 412.831 638.356 409.936C643.305 403.305 648.814 392.378 653.11 384.813C653.39 384.252 654.23 381.824 651.896 384.252C645.733 390.79 641.624 397.047 634.34 403.398C628.831 408.162 622.761 412.458 617.065 416.941C610.061 422.358 603.058 427.775 596.148 433.285C591.385 437.114 587.183 441.691 582.047 445.053C578.125 447.575 573.83 449.91 569.348 450.844C564.492 451.871 559.356 451.124 554.407 450.844C550.765 450.657 547.123 449.069 543.481 449.443C540.119 449.816 537.318 452.151 534.143 452.992H534.236ZM248.306 337.274C243.543 331.016 235.419 327.374 231.591 320.556C215.436 291.977 212.261 278.341 213.008 255.739C211.981 253.684 211.234 251.536 210.86 249.295C209.366 240.422 212.728 235.005 212.635 226.039C212.541 215.112 204.417 205.212 209.74 191.296C203.296 202.503 199.094 218.287 197.414 228C196.666 232.577 197.974 237.247 197.787 241.916C197.6 247.147 196.013 252.377 196.2 257.607C196.573 267.414 197.6 277.22 199.375 286.84C201.335 297.394 203.483 308.041 207.592 317.847C208.619 320.276 212.261 320.276 214.129 322.144C217.864 325.786 221.412 329.709 224.307 334.098C227.669 339.142 228.976 345.586 232.898 350.256C235.793 353.618 239.995 355.58 244.01 357.447C246.998 358.848 250.64 361.277 253.535 359.876C256.056 358.662 257.644 355.673 258.204 352.778C255.123 347.454 251.854 342.224 248.119 337.367L248.306 337.274Z" fill="url(#paint4_radial_56_19)"/>
<path style="mix-blend-mode:multiply" opacity="0.5" fill-rule="evenodd" clip-rule="evenodd" d="M237.287 174.391C241.022 165.705 259.325 179.808 262.126 184.104C271.091 197.927 267.075 212.31 270.717 226.693C273.519 237.714 280.802 242.664 284.631 246.96C285.565 247.987 285.378 250.322 284.257 251.163C282.763 252.283 280.429 252.284 278.654 251.536C268.569 246.96 255.309 238.741 250.173 228.467C244.757 217.54 248.679 205.399 245.971 197.46C244.757 193.724 241.022 191.389 238.408 188.494C234.579 184.198 235.326 178.687 237.194 174.391H237.287ZM389.217 44.2902C387.069 39.2468 369.98 32.8959 380.626 21.6883C383.054 19.1666 386.976 16.3647 392.765 13.1893C400.983 8.79964 409.947 5.90436 418.725 2.6355C413.029 4.12984 406.399 5.81096 401.45 6.93172C400.516 7.11851 399.675 7.30531 398.742 7.4921C393.326 8.42606 388.75 9.73361 383.707 11.8817C362.977 20.4742 346.355 29.2534 342.9 36.0713C342.713 36.5383 342.527 36.9119 342.433 37.3789C342.06 38.9666 343.647 41.0213 345.235 41.3949C355.507 43.9166 365.965 44.2902 376.704 45.7845C380.159 46.2515 381.373 47.5591 381.373 48.96C381.373 50.4543 379.972 52.0421 378.291 52.976C365.685 59.9808 327.399 81.5553 334.122 101.542C337.391 111.255 365.872 101.822 385.855 117.419C392.859 122.93 396.22 131.989 402.944 137.686C420.779 152.817 439.175 134.884 461.867 141.235C469.524 143.384 474.753 150.949 482.13 153.937C496.978 160.008 516.868 155.245 528.26 143.944C533.583 138.714 530.501 128.907 534.237 122.463C536.664 118.353 540.306 115.178 544.322 112.376C556.648 104.064 573.176 99.9543 572.429 87.8128C571.869 78.3798 558.235 66.0515 558.142 59.1402C558.049 52.5091 560.85 47.5591 561.41 42.3289C561.877 38.0327 560.757 33.5496 554.874 28.0393C552.632 25.8911 550.391 24.3034 547.59 22.9959C543.575 21.0345 539.466 19.26 535.264 17.8591C527.233 15.0572 518.829 13.7496 510.518 11.7883C512.105 12.3487 513.693 12.8157 515.28 13.3761C523.778 16.1779 544.042 23.8364 547.683 35.3242C548.617 38.2194 548.524 41.3015 546.936 44.5704C544.695 49.3336 525.365 61.1949 534.61 66.8921C568.04 87.4392 548.15 85.1977 533.77 103.503C533.116 104.344 532.556 105.185 531.995 106.025C521.443 122.089 530.968 135.351 493.616 131.802C484.838 130.962 466.536 125.451 460.186 125.825C447.299 126.479 434.88 131.429 421.993 131.429C416.764 131.429 411.628 128.814 407.239 125.825C399.489 120.501 399.582 111.816 384.548 107.146C339.258 93.1364 376.144 70.4411 386.509 55.0308C387.443 53.6298 388.47 52.2289 389.03 50.7345C389.777 48.8666 390.057 46.8119 389.03 44.2902H389.217ZM439.082 153.47C419.192 158.42 446.086 170.095 452.809 175.232C462.24 182.423 470.458 187.373 473.913 183.17C477.648 178.687 469.524 163.277 466.816 159.634C461.307 152.256 448.046 151.322 438.989 153.564L439.082 153.47ZM632.473 152.35C629.671 153.47 626.683 154.778 624.535 156.926C623.788 157.673 623.135 158.514 622.481 159.354C621.174 161.222 620.147 163.277 619.586 165.425C617.905 172.523 619.493 180.182 617.158 187.093C615.664 191.669 612.209 195.592 608.567 198.861C604.739 202.223 599.509 204.651 595.214 206.426C586.81 209.788 598.949 209.041 608.754 206.986C616.972 205.305 634.154 198.954 634.06 188.307C634.06 181.676 630.418 175.418 630.045 168.787C630.045 167.573 630.045 166.266 630.418 165.051C630.792 163.557 631.446 162.063 632.379 160.849C634.247 158.42 637.142 157.019 639.943 155.899C644.519 154.031 649.841 154.311 654.23 152.163C656.191 151.135 657.405 148.894 658.246 146.746C658.526 145.999 658.806 145.251 658.993 144.504C659.646 142.169 659.927 139.648 660.02 137.219C660.02 134.791 659.927 132.269 659.553 129.841C658.713 124.331 656.752 119.754 653.483 115.271C650.402 111.068 647.133 106.959 643.772 102.943C643.492 102.663 643.211 102.289 642.931 102.009C646.013 109.387 649.468 116.579 651.616 124.237C652.456 127.133 652.83 130.215 652.923 133.297C652.923 135.445 652.923 137.686 652.736 139.835C652.55 142.356 651.896 145.438 649.748 146.839C644.519 150.015 637.889 150.108 632.193 152.443L632.473 152.35ZM304.708 179.248C302.28 174.017 271.464 157.393 263.34 147.773C259.792 143.57 262.313 136.659 260.539 131.429C259.512 128.534 257.551 126.012 255.776 123.397C254.282 121.155 252.882 118.914 252.601 116.299C252.508 115.085 252.601 113.497 252.788 111.722C254.002 102.85 259.418 88.2798 265.768 80.0609C265.114 80.6213 264.554 81.2751 263.994 81.8355C259.792 86.5053 256.897 92.3892 252.228 96.5921C248.773 99.5807 246.438 102.85 244.757 107.146C244.104 108.827 243.543 110.508 243.357 111.816C242.703 115.551 244.384 119.381 244.197 123.117C244.197 123.677 244.197 124.237 244.01 124.798C243.077 132.176 238.968 139.928 241.582 146.746C244.757 154.965 255.403 163.09 264.087 170.562C268.476 174.298 272.305 177.753 274.546 181.022C278.468 186.719 279.962 193.911 281.643 200.635C281.643 200.729 281.643 200.822 281.643 200.916C284.351 211.656 280.802 224.825 287.619 233.604C297.144 245.933 313.112 251.443 326.652 259.101C352.892 273.858 354.573 274.232 380.346 292.911C383.894 295.526 387.443 298.141 390.991 300.756C398.088 305.986 405.372 310.936 413.309 314.392C433.479 323.078 463.921 326.627 486.613 324.199C496.044 323.171 504.168 321.117 509.678 317.941C516.308 314.112 517.988 309.722 506.689 312.337C495.017 315.046 454.303 316.914 432.078 299.168C431.892 299.075 431.798 298.982 431.612 298.795C423.768 292.35 417.978 283.758 410.508 276.847C407.986 274.512 405.092 272.177 401.73 271.243C372.782 263.304 351.024 270.402 331.695 244.158C307.042 210.816 315.82 203.344 304.614 178.874L304.708 179.248ZM480.449 350.816C433.759 349.602 430.304 342.971 390.524 332.137C386.696 331.11 382.493 333.071 378.572 332.137C367.272 329.429 361.296 318.595 352.332 309.816C350.09 307.667 346.916 305.239 343.367 303.184C337.858 299.916 331.321 297.394 326.278 297.3C324.224 297.3 321.143 297.674 320.582 299.635C320.022 301.597 323.01 303.278 324.504 303.838C353.546 316.166 358.588 349.416 385.575 349.602C391.458 349.602 397.061 346.987 402.85 346.987C431.798 346.987 448.233 357.728 472.886 360.716C478.302 361.37 483.438 357.728 488.76 357.354C498.472 356.7 508.37 358.942 517.988 357.728C528.821 356.42 539.092 352.124 549.831 349.976C567.293 346.427 579.526 352.404 596.801 349.976C600.63 349.416 603.712 346.147 607.54 345.773C620.987 344.652 628.364 349.602 645.359 344.933C647.414 344.372 649.281 343.158 651.149 341.944C653.577 340.356 656.098 338.675 658.899 338.488C661.607 338.301 664.502 338.208 667.304 337.928C667.677 337.928 668.144 337.834 668.518 337.741C676.455 336.527 682.525 331.016 684.392 323.171C685.326 319.249 685.793 315.139 686.447 311.03C684.299 317.007 681.311 321.21 671.973 324.946C670.198 325.693 668.144 326.347 665.81 327.094C659.74 328.962 653.11 328.121 647.133 329.896C644.892 330.55 642.931 331.203 641.064 331.857C624.069 337.834 620.053 343.251 595.401 343.438C578.966 343.625 563.091 336.527 548.057 335.873C540.96 335.593 533.863 337.181 526.953 339.049C508.09 344.279 503.888 351.19 480.356 350.63L480.449 350.816Z" fill="url(#paint5_radial_56_19)"/>
<path style="mix-blend-mode:screen" fill-rule="evenodd" clip-rule="evenodd" d="M308.816 153.844C306.855 150.855 305.828 147.399 304.054 144.317C301.626 140.021 300.225 136.565 294.716 136.098C289.86 135.631 285.004 136.659 280.149 136.192C278.561 136.005 276.787 135.538 275.666 134.417C274.733 133.483 274.452 131.989 274.452 130.775C274.452 127.786 275.013 124.704 275.76 121.809C277.441 114.991 275.853 114.804 268.196 109.107C267.355 108.453 266.515 107.519 266.328 106.492C266.328 106.305 266.142 106.118 265.861 106.025C265.021 105.838 262.033 108.64 259.605 112.002C256.243 116.485 253.348 122.089 252.695 123.49C248.119 132.736 247.465 143.477 243.543 152.91C239.621 162.249 232.711 170.095 229.256 179.621C225.708 189.147 223.093 199.328 222.533 209.508C221.973 218.754 223.747 228 225.708 236.966C227.949 247.053 231.871 256.673 235.233 266.386C236.073 268.908 236.913 271.523 237.661 274.045C239.341 275.819 241.116 277.5 242.796 279.275C249.24 286.28 256.337 292.817 262.126 300.382C268.289 308.414 273.145 317.287 278.468 325.88C278.561 326.066 278.654 326.253 278.841 326.44C283.51 329.055 288.366 331.203 293.409 332.884C307.976 337.741 323.104 341.383 338.418 342.878C349.624 343.998 361.203 342.784 372.222 340.449C385.482 337.741 397.808 331.67 410.788 328.121C418.912 325.973 427.876 327 435.44 323.358C446.459 318.034 456.171 310.096 465.322 301.877C469.524 298.047 471.205 291.977 474.847 287.587C478.208 283.571 482.224 280.022 486.146 276.566C484.932 276.566 483.624 276.566 482.41 276.566C473.633 276.193 464.762 274.792 456.357 272.177C449.634 270.122 442.817 267.414 437.494 262.837C430.117 256.486 425.729 247.333 419.192 240.142C414.896 235.472 410.321 230.989 405.278 227.16C402.664 225.198 399.489 223.984 396.314 223.144C391.738 221.93 386.976 221.93 382.4 220.996C379.132 220.248 375.677 219.875 372.875 218.007C366.806 213.991 361.296 209.041 356.16 203.904C352.518 200.168 350.464 194.938 346.635 191.389C344.394 189.241 341.219 188.214 338.231 187.186C335.243 186.159 331.788 186.719 328.893 185.412C326.745 184.384 324.878 182.516 323.757 180.462C320.022 173.924 317.874 166.546 314.232 159.915C312.925 157.673 310.497 156.272 309.096 154.124L308.816 153.844ZM338.698 130.868C341.873 134.231 343.274 139.087 346.635 142.169C354.759 149.641 364.378 157.766 375.303 160.288C382.774 161.969 390.804 161.969 397.808 165.051C404.158 167.947 409.013 173.364 414.336 177.753C435.44 195.312 443.751 210.162 474.66 205.585C488.48 203.531 501.647 192.697 513.88 186.252C516.588 184.851 518.922 183.731 520.977 182.89C530.128 179.154 536.571 172.43 539.839 163.09C541.053 159.448 542.361 155.898 543.294 152.163C545.069 145.345 547.964 138.433 547.31 131.429C546.283 121.342 542.174 111.722 538.159 102.382C536.198 97.8994 532.089 94.5372 529.381 90.4277C522.844 80.4344 517.988 69.2268 510.238 60.1674C503.701 52.5089 495.857 45.691 487.173 40.6476C479.142 36.0712 469.617 35.0438 460.933 31.8683C457.198 30.5608 453.743 28.4127 450.007 27.2919C443.844 25.424 437.681 23.3693 431.331 22.7155C424.982 22.0617 418.538 22.9023 412.188 23.5561C404.811 24.2098 397.528 25.1438 390.337 26.5448C380.719 28.4127 371.008 30.374 361.67 33.5495C356.814 35.1372 352.798 38.5929 348.129 40.741C343.274 42.9825 337.671 43.9164 333.189 46.9051C328.613 50.0806 325.905 55.4976 321.423 58.8598C320.489 59.607 319.368 60.074 318.341 60.541C314.886 62.0353 312.178 63.8098 309.47 66.5183C306.855 69.1334 304.241 71.8419 302 74.8306C298.545 79.5004 291.821 96.5919 294.436 102.476C295.743 105.371 297.797 108.08 300.412 109.854C305.735 113.403 318.341 115.178 325.905 119.848C330.667 122.836 334.963 126.665 338.885 130.775L338.698 130.868Z" fill="url(#paint6_radial_56_19)"/>
<g style="mix-blend-mode:screen" opacity="0.5">
<path fill-rule="evenodd" clip-rule="evenodd" d="M452.996 391.444C444.591 394.152 436.561 398.168 428.156 400.783C422.46 402.558 416.577 403.772 410.601 404.332C406.679 404.799 402.664 404.332 398.648 403.959C392.672 403.398 386.696 401.997 380.719 401.344C378.198 401.063 375.49 400.596 373.062 401.344C370.354 402.184 371.475 403.398 372.222 403.772C375.21 405.079 378.665 406.107 381.653 407.788C387.816 411.057 392.392 414.326 398.835 416.847C400.703 417.595 403.691 416.007 405.465 416.941C411.908 420.396 416.484 426.654 422.554 430.67C425.822 432.818 430.118 434.873 433.292 435.433C433.666 435.433 434.88 435.433 433.666 434.406C429.931 431.604 426.849 427.681 424.701 423.479C423.487 421.144 423.487 418.248 424.141 415.727C424.701 413.392 426.009 411.15 427.876 409.749C432.732 406.013 438.428 403.585 443.751 400.596C448.14 398.168 452.902 396.207 457.104 393.405C457.665 393.031 458.132 391.724 457.478 391.444C455.984 390.79 454.21 390.977 452.716 391.444H452.996ZM335.803 387.334C327.119 383.505 318.154 380.329 309.937 375.566C303.307 371.83 296.864 367.534 291.634 362.024C287.339 357.541 284.911 351.657 282.11 346.146C276.787 335.686 271.838 327.374 266.982 318.314C264.928 314.579 265.301 309.629 262.78 306.173C260.726 303.278 257.177 301.596 254.002 300.009C252.601 299.262 250.64 298.514 249.24 299.168C248.026 299.729 247.559 301.69 248.026 302.904C249.333 306.546 252.975 308.975 254.189 312.617C255.683 317.007 255.029 322.05 256.15 326.533C256.99 329.896 258.765 332.978 260.352 336.06C262.126 339.422 263.62 342.411 264.741 346.053C265.581 348.668 265.021 351.47 265.955 353.992C268.196 360.063 273.332 364.919 275.293 371.083C278.001 379.582 267.262 375.473 263.994 373.698C257.924 370.43 252.788 365.853 246.905 362.397C245.224 361.37 243.263 359.969 241.302 360.436C240.275 360.623 240.835 362.678 241.302 363.612C242.89 366.787 244.291 370.523 247.279 372.391C252.321 375.566 258.765 375.66 264.181 377.995C266.889 379.115 268.85 382.011 271.744 382.758C282.296 385.653 291.074 383.225 305.735 388.548C308.536 389.576 311.151 390.977 313.859 391.911C316.567 392.845 319.555 392.938 321.983 394.339C326.372 396.861 329.453 401.624 334.122 403.492C339.539 405.733 362.043 406.013 364.004 401.811C365.965 397.608 343.274 390.696 335.71 387.334H335.803ZM529.848 379.676C525.926 378.088 521.63 378.088 517.428 377.901C514.627 377.808 511.825 378.835 508.931 378.742C506.783 378.742 504.915 377.434 502.767 377.341C493.803 377.154 478.769 382.197 470.458 385.373C469.057 385.933 467.19 386.961 467.283 388.455C467.376 389.669 469.617 389.389 470.738 389.109C474.38 388.362 478.115 387.241 483.344 387.521C485.492 387.614 487.453 387.801 489.601 387.801C491.468 387.801 493.243 386.774 495.11 387.147C498.098 387.801 500.153 390.51 502.861 391.817C505.289 393.031 507.81 394.619 510.518 394.619C517.148 394.619 546.843 386.587 529.848 379.676ZM245.785 296.927C247.185 296.46 248.866 295.432 248.96 293.938C249.146 291.51 248.213 288.801 246.532 286.933C244.01 284.131 239.715 283.478 237.194 280.769C233.645 276.94 232.245 269.655 226.268 263.864C225.801 263.397 224.494 263.211 224.307 263.864C223.747 265.172 224.027 266.853 224.494 268.254C226.735 274.512 228.789 280.956 232.245 286.56C233.458 288.428 236.447 288.334 238.034 289.922C239.808 291.79 239.902 294.779 241.769 296.46C242.796 297.394 244.477 297.3 245.785 296.833V296.927ZM323.944 163.65C323.384 163.183 322.17 163.837 322.076 164.491C321.89 167.106 322.45 169.721 323.29 172.243C324.224 174.858 325.625 177.473 327.492 179.621C329.92 182.33 335.71 183.357 339.165 182.61C341.313 182.143 341.219 177.66 339.912 176.352C337.671 174.111 334.122 173.55 331.695 171.589C329.173 169.534 327.026 166.359 323.944 163.744V163.65ZM286.032 109.761C287.619 110.508 287.806 113.03 287.619 114.711C287.339 117.886 284.818 120.688 284.631 123.864C284.538 125.451 285.378 127.506 286.779 128.253C291.541 130.775 297.237 130.868 302.093 133.203C304.614 134.417 305.922 137.313 308.256 138.807C318.715 145.251 324.878 144.317 334.963 156.552C338.325 160.662 340.379 165.798 344.581 168.881C349.063 172.149 353.359 172.803 358.775 174.017C365.592 175.605 372.875 175.605 379.038 178.781C382.027 180.275 384.455 184.664 387.443 186.252C394.913 190.268 400.889 191.949 408.92 194.751C414.99 196.806 421.526 198.02 426.849 201.476C441.977 211.469 440.856 223.144 470.831 226.973C487.827 229.121 493.429 217.54 502.674 209.414C507.81 204.931 513.226 200.729 519.016 197.086C522.097 195.125 525.926 194.564 529.007 192.51C530.408 191.576 532.743 189.895 531.995 188.307C531.155 186.626 528.26 186.626 526.393 187.093C520.043 188.774 514.16 191.576 508.277 194.471C501.273 197.927 495.017 202.783 488.013 206.239C470.925 214.551 454.21 215.579 438.242 203.437C426.102 194.191 415.83 182.797 403.971 173.177C400.142 170.095 396.22 167.013 391.645 165.238C387.723 163.744 383.241 164.398 379.132 163.65C372.689 162.436 365.965 162.063 359.989 159.261C343.367 151.509 334.122 142.543 324.784 127.973C323.104 125.358 321.329 122.556 318.621 120.968C313.672 118.166 307.883 117.139 302.467 115.178C298.638 113.777 294.156 113.497 291.168 110.788C288.459 108.36 287.059 104.624 286.592 101.075C285.751 95.3777 288.459 88.2796 291.728 83.7032C293.502 81.1815 295.93 79.1268 297.798 76.6051C298.171 76.0447 299.198 75.1107 298.638 74.7372C297.984 74.2702 296.864 75.0174 296.21 75.5777C293.128 78.1928 290.701 81.6485 287.526 84.2636C279.962 90.4277 272.211 94.6306 270.25 101.355C269.783 102.943 269.597 105.558 271.091 106.305C275.573 108.733 281.456 107.426 286.032 109.667V109.761ZM630.605 230.335C620.987 231.269 611.462 233.511 601.751 234.351C598.576 234.631 594.934 235.285 592.226 233.791C589.891 232.483 590.545 228.467 588.491 226.786C584.382 223.517 577.939 223.704 574.39 219.781C572.616 217.82 573.736 214.271 574.764 211.843C576.258 208.2 578.872 205.212 581.487 202.316C584.102 199.421 587.744 197.647 590.265 194.751C592.879 191.669 594.934 188.12 596.801 184.571C599.323 180.088 601.47 175.418 603.431 170.655C603.805 169.721 604.365 168.507 603.712 167.76C603.151 167.106 601.844 167.76 601.19 168.227C598.856 170.468 597.362 173.27 595.307 175.792C593.627 177.847 592.226 180.181 590.265 181.863C586.996 184.571 583.448 187.093 579.619 188.961C573.643 191.763 566.359 191.669 561.13 195.498C556.555 198.861 555.714 205.585 551.792 209.601C544.695 216.699 534.89 220.902 528.354 228.467C526.019 231.176 524.712 235.939 526.579 239.021C528.167 241.636 532.649 240.889 535.731 240.422C546.563 238.554 556.648 233.511 567.573 232.016C570.748 231.643 574.017 233.23 576.725 235.005C579.993 237.153 581.394 241.73 584.849 243.317C588.677 245.092 593.253 245.372 597.362 244.531C602.031 243.504 605.579 239.301 610.061 237.807C617.065 235.379 624.629 234.631 631.726 232.67C632.66 232.39 634.527 231.83 634.154 230.989C633.593 229.868 631.726 230.148 630.512 230.335H630.605ZM485.772 268.534C497.351 266.573 496.511 257.047 501.46 253.03C504.355 250.696 509.958 252.377 512.199 249.388C514.44 246.399 516.868 242.29 515.467 238.834C510.144 225.946 476.621 243.691 471.765 245.372C467.19 246.96 462.24 247.52 457.385 247.053C442.724 245.839 441.79 237.713 432.078 230.989C428.437 228.467 424.328 226.599 420.032 225.665C418.632 225.292 416.297 225.759 416.017 227.16C415.737 228.747 417.791 229.962 419.099 230.989C431.892 241.169 431.425 243.411 438.615 253.03C450.288 268.628 453.556 260.315 462.801 261.81C469.617 262.93 477.461 269.935 485.772 268.534Z" fill="url(#paint7_radial_56_19)"/>
</g>
<path fill-rule="evenodd" clip-rule="evenodd" d="M777.679 178.687C804.386 211.563 758.816 254.245 698.306 285.719C572.429 351.283 374.276 389.949 232.992 378.555C174.442 373.792 112.437 356.047 110.663 320.556C73.778 318.968 36.8927 326.533 0.00746751 344.092C-0.459434 370.243 21.0181 390.603 50.4329 403.212C157.447 449.256 353.452 432.351 482.317 406.761C611.089 381.17 794.208 323.451 874.328 238.741C908.038 203.064 905.05 175.792 885.72 155.618C845.754 158.794 810.269 166.919 777.773 178.594L777.679 178.687Z" fill="url(#paint8_linear_56_19)"/>
<path style="mix-blend-mode:multiply" fill-rule="evenodd" clip-rule="evenodd" d="M181.352 221.65C162.396 228.654 134.195 241.169 114.305 254.151C2.99567 326.627 80.408 379.302 176.31 394.059C318.528 415.914 552.726 370.43 641.437 340.636C451.035 406.2 281.456 424.599 174.349 413.299C87.4115 404.146 36.0523 375.753 28.7687 338.395C22.0453 304.212 80.0345 246.306 181.259 221.556L181.352 221.65Z" fill="url(#paint9_radial_56_19)"/>
<path style="mix-blend-mode:screen" fill-rule="evenodd" clip-rule="evenodd" d="M136.156 260.689C118.04 273.017 96.0025 294.498 96.3761 318.781C97.3099 380.796 233.832 389.015 277.908 390.043C239.622 393.125 124.203 392.845 86.1042 344.279C75.1787 330.363 76.486 316.073 83.6763 303.278C94.9754 283.104 120.748 266.573 136.249 260.689H136.156Z" fill="url(#paint10_radial_56_19)"/>
<path style="mix-blend-mode:multiply" fill-rule="evenodd" clip-rule="evenodd" d="M679.07 129.374C761.991 133.203 798.783 159.915 804.759 189.148C813.911 233.604 748.451 293.471 669.545 331.297C786.083 290.95 853.317 229.121 840.244 184.758C831.186 154.031 775.158 121.155 679.07 129.374Z" fill="url(#paint11_radial_56_19)"/>
<path style="mix-blend-mode:screen" fill-rule="evenodd" clip-rule="evenodd" d="M793.647 124.144C821.475 127.693 876.756 141.049 886.934 176.165C915.135 273.391 646.293 361.277 553.286 377.714C636.395 354.459 883.292 279.555 867.978 179.341C863.029 146.559 824.649 133.016 793.647 124.144Z" fill="url(#paint12_radial_56_19)"/>
<defs>
<linearGradient id="paint0_linear_56_19" x1="-11.0114" y1="291.977" x2="874.621" y2="103.751" gradientUnits="userSpaceOnUse">
<stop stop-color="#87E300"/>
<stop offset="1" stop-color="#13A300"/>
</linearGradient>
<radialGradient id="paint1_radial_56_19" cx="0" cy="0" r="1" gradientUnits="userSpaceOnUse" gradientTransform="translate(345.421 145.345) scale(405.084 405.153)">
<stop stop-color="#23D1D1"/>
<stop offset="0.12" stop-color="#1CC4C4"/>
<stop offset="0.34" stop-color="#0DA4A4"/>
<stop offset="0.5" stop-color="#008A8A"/>
<stop offset="0.92" stop-color="#004242"/>
</radialGradient>
<radialGradient id="paint2_radial_56_19" cx="0" cy="0" r="1" gradientUnits="userSpaceOnUse" gradientTransform="translate(359.335 158.514) scale(393.598 393.665)">
<stop stop-color="#DEDE00"/>
<stop offset="0.15" stop-color="#D1D100"/>
<stop offset="0.42" stop-color="#B1B100"/>
<stop offset="0.47" stop-color="#ABAB00"/>
<stop offset="0.51" stop-color="#A5A500"/>
<stop offset="0.77" stop-color="#7D7D00"/>
<stop offset="0.91" stop-color="#6E6E00"/>
</radialGradient>
<radialGradient id="paint3_radial_56_19" cx="0" cy="0" r="1" gradientUnits="userSpaceOnUse" gradientTransform="translate(464.855 277.594) scale(281.262 281.309)">
<stop offset="0.04"/>
<stop offset="0.84"/>
<stop offset="0.87" stop-color="#2E2E15"/>
<stop offset="0.92" stop-color="#6E6E33"/>
<stop offset="0.96" stop-color="#9D9D49"/>
<stop offset="0.98" stop-color="#BABA56"/>
<stop offset="1" stop-color="#C5C55C"/>
</radialGradient>
<radialGradient id="paint4_radial_56_19" cx="0" cy="0" r="1" gradientUnits="userSpaceOnUse" gradientTransform="translate(406.212 171.122) scale(351.577 351.637)">
<stop offset="0.61" stop-color="white"/>
<stop offset="0.66" stop-color="#FCFCFA"/>
<stop offset="0.71" stop-color="#F5F5EE"/>
<stop offset="0.76" stop-color="#E9E9D9"/>
<stop offset="0.82" stop-color="#D8D8BC"/>
<stop offset="0.87" stop-color="#C2C297"/>
<stop offset="0.92" stop-color="#A7A769"/>
<stop offset="0.98" stop-color="#888833"/>
<stop offset="1" stop-color="#7A7A1B"/>
</radialGradient>
<radialGradient id="paint5_radial_56_19" cx="0" cy="0" r="1" gradientUnits="userSpaceOnUse" gradientTransform="translate(216.463 49.0534) scale(835.661 835.802)">
<stop stop-color="#848431"/>
<stop offset="1" stop-color="white"/>
</radialGradient>
<radialGradient id="paint6_radial_56_19" cx="0" cy="0" r="1" gradientUnits="userSpaceOnUse" gradientTransform="translate(151.564 25.0504) scale(448.319 448.395)">
<stop stop-color="#C5C55C"/>
<stop offset="1" stop-color="#000A00"/>
</radialGradient>
<radialGradient id="paint7_radial_56_19" cx="0" cy="0" r="1" gradientUnits="userSpaceOnUse" gradientTransform="translate(335.336 106.398) scale(359.141 359.202)">
<stop stop-color="#72D6D3"/>
<stop offset="1"/>
</radialGradient>
<linearGradient id="paint8_linear_56_19" x1="14.9483" y1="420.023" x2="909.826" y2="229.837" gradientUnits="userSpaceOnUse">
<stop stop-color="#87E300"/>
<stop offset="1" stop-color="#13A300"/>
</linearGradient>
<radialGradient id="paint9_radial_56_19" cx="0" cy="0" r="1" gradientUnits="userSpaceOnUse" gradientTransform="translate(230.19 669.017) scale(499.585 499.67)">
<stop stop-color="#009933"/>
<stop offset="1" stop-color="white"/>
</radialGradient>
<radialGradient id="paint10_radial_56_19" cx="0" cy="0" r="1" gradientUnits="userSpaceOnUse" gradientTransform="translate(137.93 440.29) scale(370.253 370.316)">
<stop stop-color="#8FE561"/>
<stop offset="1"/>
</radialGradient>
<radialGradient id="paint11_radial_56_19" cx="0" cy="0" r="1" gradientUnits="userSpaceOnUse" gradientTransform="translate(932.317 433.846) scale(374.922 374.986)">
<stop stop-color="#009933"/>
<stop offset="1" stop-color="white"/>
</radialGradient>
<radialGradient id="paint12_radial_56_19" cx="0" cy="0" r="1" gradientUnits="userSpaceOnUse" gradientTransform="translate(766.847 390.416) scale(389.49 389.555)">
<stop stop-color="#8FE561"/>
<stop offset="1"/>
</radialGradient>
</defs>
</svg>
