<svg width="446" height="436" viewBox="0 0 446 436" fill="none" xmlns="http://www.w3.org/2000/svg">
<path fill-rule="evenodd" clip-rule="evenodd" d="M224.267 7.87286C340.4 7.87286 434.6 102.083 434.6 218.23C434.6 334.376 340.4 428.587 224.267 428.587C108.133 428.587 13.9333 334.376 13.9333 218.23C13.9333 102.083 108.133 7.87286 224.267 7.87286Z" fill="url(#paint0_radial_6_3546)"/>
<path style="mix-blend-mode:screen" fill-rule="evenodd" clip-rule="evenodd" d="M224.267 7.87286C340.4 7.87286 434.6 102.083 434.6 218.23C434.6 334.376 340.4 428.587 224.267 428.587C108.133 428.587 13.9333 334.376 13.9333 218.23C13.9333 102.083 108.133 7.87286 224.267 7.87286Z" fill="url(#paint1_radial_6_3546)"/>
<path style="mix-blend-mode:multiply" fill-rule="evenodd" clip-rule="evenodd" d="M315.533 340.31C311.933 340.977 296.133 338.31 290.6 338.377C263.267 338.643 220.8 346.111 195.333 355.979C188.067 358.779 180.533 361.846 174.533 366.846C168.467 371.98 170.467 381.515 157.6 381.048C148.667 380.715 138.2 376.381 139.067 366.513C139.867 357.779 140.667 345.911 135.333 340.977C117 324.042 96.4 309.707 75.7333 295.638C62 286.304 54.8667 291.571 46.8 288.838C36.7333 285.437 31.8 271.302 29.4 261.901C24.4 241.832 33.2 209.695 32.8 197.494C32.3334 183.759 15.4 202.895 25.8667 148.222C18.1333 170.091 13.9333 193.627 13.9333 218.163C13.9333 334.31 108.133 428.52 224.267 428.52C340.4 428.52 434.6 334.31 434.6 218.163C434.6 102.017 340.4 7.80615 224.267 7.80615C179.267 7.80615 137.533 21.9411 103.333 46.0104C125.4 33.1423 146.2 24.4747 171.4 20.6743C198.6 16.6071 211 18.074 236.6 22.0077C243.933 23.1412 247.667 21.8744 254.133 22.0077C272.733 22.3411 294.133 36.5427 309.733 48.9441C320.333 57.3451 325.8 71.48 330.8 76.4805C337.067 82.7479 337.533 77.414 344.733 82.6146C359.6 93.4158 390.4 154.023 388.667 172.225C388.067 178.425 384.4 178.425 384.067 184.626C383.8 190.56 387.333 201.361 386.933 207.295C384.333 248.166 366.667 245.833 360.333 279.17C359.267 284.771 359.867 301.973 358.267 310.84C357.533 315.107 355.6 319.441 352.467 322.441C342.667 331.843 328.533 337.71 315.333 340.177L315.533 340.31Z" fill="url(#paint2_radial_6_3546)"/>
<path style="mix-blend-mode:screen" fill-rule="evenodd" clip-rule="evenodd" d="M34.8666 186.093C37.2666 189.427 42.1999 190.627 44.0666 194.294C46.9333 199.961 55.6 229.964 55.6666 236.565C55.6666 240.432 52.1333 243.633 51.9333 247.5C51.2666 258.301 65.5333 274.903 73.0666 270.302C77.7999 267.435 80.5333 261.835 85.3333 259.034C89.5999 256.567 98.8666 260.034 102.733 258.701C104.2 258.234 104.867 256.101 104.8 254.634C104.667 252.9 104.133 251.167 103.4 249.5C99.0666 238.899 100.067 228.031 107.867 218.897C119 205.828 132.733 195.427 147.067 185.826C160.4 176.892 179.533 174.425 190.333 173.291C197.4 172.558 200.6 166.957 193.6 160.557C183.333 151.222 169.267 139.088 159.667 116.352C156.333 108.417 157.4 85.9483 162.733 78.8808C172.8 65.4126 189.4 54.3447 206.667 54.3447C225 54.3447 250.533 63.4124 267.8 70.2132C283.2 76.2805 285.867 74.8804 287.867 72.0134C289.733 69.2797 284.933 59.3453 272.2 48.4107C236.733 17.9406 197.467 18.274 154.2 32.2089C147.933 34.2091 106.333 52.2111 107.533 62.2122C107.6 63.0123 123.667 81.7478 125.933 86.0816C127.733 89.482 128.6 93.4824 128.333 97.3495C126.4 121.486 121.2 142.421 108.933 163.424C107.333 166.157 104.133 167.957 101.067 168.891C88.7999 172.625 59.3333 179.225 46.5999 177.759C42.9999 177.359 40.1999 171.958 36.7333 172.958C34.1999 173.691 34 184.759 35 186.226L34.8666 186.093ZM286.533 85.6816C287.667 91.8156 295.733 105.15 299.8 109.284C301.267 110.751 304.733 111.084 306.067 109.484C311.533 102.75 303.267 83.2813 299.133 77.5473C295.467 72.4134 285.6 80.3476 286.6 85.6816H286.533ZM310.267 117.418C311.8 118.485 313.267 120.219 313.4 122.086C313.6 124.886 312.533 127.686 311.2 130.153C310.333 131.82 308.933 133.62 307.133 134.02C305.6 134.354 303.8 133.154 303.133 131.753C301.533 128.553 300.6 124.819 300.867 121.219C301 119.085 302.2 116.618 304.2 115.818C306.133 115.018 308.533 116.218 310.267 117.418ZM244.333 185.226C243.733 185.96 243.867 187.426 244.6 188.026C252.267 194.36 261.533 199.361 271.4 201.095C281.2 202.828 281.667 187.426 277.933 183.759C275.667 181.559 272.067 181.226 268.933 181.092C263.733 180.892 248 181.092 244.4 185.159L244.333 185.226Z" fill="url(#paint3_radial_6_3546)"/>
<path fill-rule="evenodd" clip-rule="evenodd" d="M396.2 140.754C406.667 131.42 416.8 121.819 425.867 111.284C420.133 100.95 408.467 89.2153 398.933 82.7479C394.467 82.4145 390.267 82.9479 386.2 83.948C386.267 90.4154 392.933 132.954 396.2 140.754Z" fill="url(#paint4_radial_6_3546)"/>
<path fill-rule="evenodd" clip-rule="evenodd" d="M425.867 111.218C416.8 121.819 406.667 131.42 396.2 140.688C398.533 145.888 421.8 175.092 431.533 182.026C435.733 178.559 441.333 170.358 443.133 165.624C444.533 160.69 445.467 155.023 446 149.889C442.867 136.287 435.867 121.686 425.933 111.218H425.867Z" fill="url(#paint5_radial_6_3546)"/>
<path fill-rule="evenodd" clip-rule="evenodd" d="M398.933 82.7479C408.467 89.2153 420.133 100.883 425.867 111.284C435.8 121.752 442.8 136.354 445.933 149.956C444.933 142.488 443.6 135.154 441.2 128.22C434.133 113.685 425.067 100.483 418.933 94.6826C416.067 91.949 405.133 84.2815 398.867 82.6813L398.933 82.7479Z" fill="url(#paint6_radial_6_3546)"/>
<path fill-rule="evenodd" clip-rule="evenodd" d="M402.733 285.637C405.467 271.902 409.667 258.634 415.067 245.699C403.933 255.434 391.667 268.902 385.6 278.636C390.867 281.637 396.4 284.17 402.733 285.637Z" fill="url(#paint7_radial_6_3546)"/>
<path fill-rule="evenodd" clip-rule="evenodd" d="M402.733 285.637C396.4 284.171 390.867 281.637 385.6 278.637C381.6 286.371 377.8 296.305 376.2 305.24C385.267 304.906 394.2 303.573 403.067 300.839C402.6 295.839 402.467 290.771 402.8 285.637H402.733Z" fill="url(#paint8_radial_6_3546)"/>
<path fill-rule="evenodd" clip-rule="evenodd" d="M403 300.839C394.2 303.573 385.267 304.973 376.133 305.24C375.4 312.107 375.4 319.108 376.133 326.375C385.867 320.841 395.8 315.907 406.467 312.64C404.8 308.84 403.733 304.839 402.933 300.772L403 300.839Z" fill="url(#paint9_radial_6_3546)"/>
<path fill-rule="evenodd" clip-rule="evenodd" d="M406.533 312.707C395.867 316.041 385.933 320.975 376.2 326.442C380.933 330.109 391.8 335.51 397.867 336.976C403.667 335.376 413.867 330.376 419.667 326.175C414.6 322.375 410.267 317.841 406.467 312.707H406.533Z" fill="url(#paint10_radial_6_3546)"/>
<path fill-rule="evenodd" clip-rule="evenodd" d="M403 300.839C403.733 304.906 404.867 308.84 406.533 312.707C410.333 317.841 414.667 322.375 419.733 326.175C434.6 305.506 443.8 278.036 445.533 265.702C445.533 256.101 438.467 240.766 433.867 235.298C427.267 238.032 421 241.499 415.067 245.766C409.667 258.701 405.467 271.969 402.733 285.704C402.4 290.838 402.533 295.905 403 300.906V300.839Z" fill="url(#paint11_radial_6_3546)"/>
<path fill-rule="evenodd" clip-rule="evenodd" d="M178.6 14.6069C176.733 10.5398 172 2.60557 169.4 0.271973C165.067 0.805366 161 2.60557 157.133 4.67247C154.8 11.0065 153.467 17.4072 152.733 23.7413C162.133 19.5408 168.733 17.4072 178.667 14.6069H178.6Z" fill="url(#paint12_radial_6_3546)"/>
<path fill-rule="evenodd" clip-rule="evenodd" d="M169.4 0.271973C172 2.60557 176.733 10.6065 178.6 14.6069C186.733 13.4735 194.733 13.0067 202.667 12.8734C203.467 12.8734 204.2 12.8734 204.8 12.8734C202.867 9.13963 200.667 5.80593 198 3.00561C189.667 1.13874 178.667 0.405321 169.4 0.271973Z" fill="url(#paint13_radial_6_3546)"/>
<path fill-rule="evenodd" clip-rule="evenodd" d="M202.733 12.8734C194.8 13.0067 186.8 13.4734 178.667 14.6069C168.733 17.4739 162.133 19.5408 152.733 23.7412C163.933 19.0074 191.2 13.3401 202.733 12.8734Z" fill="url(#paint14_radial_6_3546)"/>
<path style="mix-blend-mode:multiply" fill-rule="evenodd" clip-rule="evenodd" d="M299.6 298.639L339 252.634C344.533 259.634 353.4 273.436 354.4 276.903C355.867 281.97 356.733 292.171 355.933 295.438C355.733 296.305 350.067 305.04 347.933 306.506C341.067 311.107 333.867 313.174 325.733 314.574C322.933 315.041 319 313.507 316.6 311.907C310.533 307.973 305.267 302.973 299.533 298.572L299.6 298.639Z" fill="url(#paint15_radial_6_3546)"/>
<path style="mix-blend-mode:multiply" fill-rule="evenodd" clip-rule="evenodd" d="M303.4 202.961L324.8 160.223C331.067 163.824 339.867 172.025 341.333 174.425C343.533 178.025 346.4 185.759 346.467 188.493C346.467 189.227 344 197.161 342.6 198.761C338.267 203.828 333.067 206.962 327.067 209.762C325 210.762 321.6 210.362 319.467 209.629C313.933 207.895 308.733 205.162 303.4 202.895V202.961Z" fill="url(#paint16_radial_6_3546)"/>
<path fill-rule="evenodd" clip-rule="evenodd" d="M297.333 196.961C306.133 196.094 314.733 194.227 322.933 190.627C325.467 186.56 327.533 182.426 329.067 178.092C325.933 170.624 322.2 164.424 318.333 158.556C314.333 161.157 308.333 167.224 306.667 169.691C303.267 175.758 297.267 193.427 297.333 196.961Z" fill="url(#paint17_radial_6_3546)"/>
<path fill-rule="evenodd" clip-rule="evenodd" d="M322.933 190.627C314.733 194.227 306.133 196.094 297.333 196.961C298.8 199.161 300.733 201.361 304.067 203.428C306.4 204.028 318.667 203.828 321.533 203.228C322.533 199.094 323 194.894 323 190.693L322.933 190.627Z" fill="url(#paint18_radial_6_3546)"/>
<path fill-rule="evenodd" clip-rule="evenodd" d="M322.933 190.627C322.933 194.827 322.467 199.028 321.467 203.162C324.133 202.161 334.4 192.294 335.4 189.493C336.067 185.159 336.333 180.692 336.267 176.092C333.8 176.225 331.4 176.892 329.067 178.025C327.533 182.359 325.533 186.493 322.933 190.56V190.627Z" fill="url(#paint19_radial_6_3546)"/>
<path fill-rule="evenodd" clip-rule="evenodd" d="M318.267 158.556C322.133 164.424 325.867 170.624 329 178.092C331.333 176.892 333.8 176.292 336.2 176.158C334.4 171.825 332.333 167.891 329.933 164.49C325.667 160.223 321.733 158.29 318.2 158.556H318.267Z" fill="url(#paint20_radial_6_3546)"/>
<path style="mix-blend-mode:multiply" fill-rule="evenodd" clip-rule="evenodd" d="M355.933 382.315C338.2 367.78 325.133 358.712 303.867 346.511L217.667 428.52C219.867 428.587 222.067 428.653 224.267 428.653C274.133 428.653 319.933 411.318 355.933 382.315Z" fill="url(#paint21_radial_6_3546)"/>
<path fill-rule="evenodd" clip-rule="evenodd" d="M197.667 402.917C199.533 397.317 201.333 388.116 202.2 381.448C199.533 380.915 183.533 372.514 181.733 370.58C183.6 379.648 190.133 391.649 197.733 402.851L197.667 402.917Z" fill="url(#paint22_radial_6_3546)"/>
<path fill-rule="evenodd" clip-rule="evenodd" d="M202.133 381.515C207.133 382.515 237.533 384.248 244.733 384.982C264.533 375.247 281.2 365.58 293.6 355.979C291.6 352.111 290.8 348.444 289.667 344.111C255.133 344.244 205.2 354.112 181.6 370.714C183.4 372.647 199.4 381.048 202.067 381.581L202.133 381.515Z" fill="url(#paint23_radial_6_3546)"/>
<path fill-rule="evenodd" clip-rule="evenodd" d="M293.667 355.912C281.267 365.513 264.667 375.181 244.8 384.915C271.067 401.117 299.133 412.452 320.8 412.118C324.2 407.784 327.4 403.317 330.267 398.583C323 391.783 302.933 368.78 293.667 355.912Z" fill="url(#paint24_radial_6_3546)"/>
<path fill-rule="evenodd" clip-rule="evenodd" d="M293.667 355.912C302.933 368.78 323 391.783 330.267 398.583C331.333 395.316 332.333 392.049 333.067 388.582C332.067 382.582 330.6 376.648 328.133 370.714C320.933 361.846 310.667 351.578 303.867 346.511C300.267 345.577 294.533 344.577 289.733 344.111C290.867 348.444 291.667 352.111 293.667 355.979V355.912Z" fill="url(#paint25_radial_6_3546)"/>
<path fill-rule="evenodd" clip-rule="evenodd" d="M320.8 412.118C299.133 412.452 271 401.117 244.8 384.915C237.533 384.182 207.2 382.448 202.2 381.448C201.4 388.116 199.533 397.317 197.667 402.917C208 418.252 220.133 432.054 224.467 434.721C265.733 440.255 306.333 422.92 320.867 412.185L320.8 412.118Z" fill="url(#paint26_radial_6_3546)"/>
<path style="mix-blend-mode:multiply" fill-rule="evenodd" clip-rule="evenodd" d="M199.933 427.187C192.2 421.453 185.467 414.785 179.8 407.051C171.467 410.318 163.067 413.585 154.733 416.852C169.133 421.919 184.267 425.386 199.933 427.187Z" fill="url(#paint27_radial_6_3546)"/>
<path fill-rule="evenodd" clip-rule="evenodd" d="M115.2 403.584C121.467 405.784 127.867 407.384 134.467 408.385C137.267 401.384 139.667 393.85 141.533 386.915C136.733 386.382 125.267 388.916 120.267 391.183C118.6 393.583 115.867 399.784 115.2 403.584Z" fill="url(#paint28_radial_6_3546)"/>
<path fill-rule="evenodd" clip-rule="evenodd" d="M134.467 408.318C127.867 407.318 121.4 405.718 115.2 403.517C116.933 408.051 121.933 416.385 127.267 421.253C130.467 423.986 144.733 432.387 148.133 433.521C141.867 425.053 137.333 416.652 134.533 408.318H134.467Z" fill="url(#paint29_radial_6_3546)"/>
<path fill-rule="evenodd" clip-rule="evenodd" d="M134.467 408.318C137.267 416.652 141.8 425.053 148.067 433.521C150.4 433.254 159.133 431.054 161.533 429.654C166.667 426.787 174.267 420.919 178.667 416.319C179.4 414.252 180 409.051 179.733 407.051C167.533 399.517 154.667 392.916 141.533 386.849C139.667 393.783 137.267 401.317 134.467 408.318Z" fill="url(#paint30_radial_6_3546)"/>
<path style="mix-blend-mode:multiply" fill-rule="evenodd" clip-rule="evenodd" d="M303.667 54.6114C324.867 54.8781 341.4 55.2782 361.2 58.6119C342.267 42.3434 320.467 29.4086 296.6 20.6743L303.667 54.6114Z" fill="url(#paint31_radial_6_3546)"/>
<path fill-rule="evenodd" clip-rule="evenodd" d="M294.267 50.1443C286.533 45.8104 275.4 37.8762 266.8 28.1418C273.733 37.2761 281.333 45.6771 289.533 53.5446C291.333 52.6112 292.933 51.5444 294.333 50.1443H294.267Z" fill="url(#paint32_radial_6_3546)"/>
<path fill-rule="evenodd" clip-rule="evenodd" d="M316.133 45.7438C309.267 47.8773 302.067 49.4775 294.267 50.1443C292.867 51.5444 291.267 52.6112 289.467 53.5447C298.8 54.8115 308.267 55.0115 317.933 54.078C317.133 51.3444 316.533 48.6108 316.133 45.7438Z" fill="url(#paint33_radial_6_3546)"/>
<path fill-rule="evenodd" clip-rule="evenodd" d="M316.133 45.7438C316.533 48.6108 317.133 51.4111 317.933 54.078C321.8 49.8109 325.2 45.2104 328 40.2098C325.4 39.8098 322.733 39.2097 320.067 38.2096C318.6 40.5432 317.2 42.9435 316.133 45.6771V45.7438Z" fill="url(#paint34_radial_6_3546)"/>
<path fill-rule="evenodd" clip-rule="evenodd" d="M312.6 14.2735C314.933 22.6745 316.8 30.142 320.067 38.2762C322.733 39.2763 325.4 39.8764 328 40.2765C326.4 28.2751 323.2 16.9405 318.2 6.53933C316.533 5.13918 314.667 3.93904 312.4 3.20563C312.133 6.67268 312.133 10.8065 312.6 14.3402V14.2735Z" fill="url(#paint35_radial_6_3546)"/>
<path fill-rule="evenodd" clip-rule="evenodd" d="M280.4 10.0064C291.267 10.0064 301.867 12.8067 312.6 14.2069C312.2 10.6731 312.2 6.53934 312.4 3.07229C303.867 2.0055 293.2 2.40554 283.933 4.13907C277.467 6.27264 271.333 9.07296 265.4 12.4733C270.8 10.8732 278.8 10.0064 280.333 9.93972L280.4 10.0064Z" fill="url(#paint36_radial_6_3546)"/>
<path fill-rule="evenodd" clip-rule="evenodd" d="M312.6 14.2736C301.867 12.8734 291.2 10.0064 280.4 10.0731C278.867 10.0731 270.8 11.0065 265.467 12.6067C265.333 18.1407 265.733 23.3413 266.8 28.2085C275.4 37.9429 286.6 45.8771 294.267 50.2109C302.067 49.5442 309.267 47.944 316.133 45.8105C317.2 43.0768 318.6 40.6765 320.067 38.3429C316.867 30.2087 314.933 22.7412 312.6 14.3402V14.2736Z" fill="url(#paint37_radial_6_3546)"/>
<path style="mix-blend-mode:multiply" fill-rule="evenodd" clip-rule="evenodd" d="M148.667 365.313C155.533 360.046 164.733 350.711 171.067 340.11C178.867 337.577 186.333 335.643 189.667 335.91C201.333 339.977 219.533 343.377 230.2 344.777C242.733 344.044 272.733 335.043 297.333 318.174C301.333 315.441 313.867 297.572 319.8 286.504C321.267 271.969 320 258.701 317.4 245.966C297.4 228.698 273.133 218.43 252.667 205.228C213.933 232.431 176.467 258.501 138.8 284.704C164.467 335.91 158.333 338.243 124.267 294.838C101.467 310.774 78.4667 326.775 55 343.244C66.0667 358.246 79.0667 371.647 93.6667 383.182C102.533 381.782 135.533 371.58 148.533 365.246L148.667 365.313Z" fill="url(#paint38_radial_6_3546)"/>
<path fill-rule="evenodd" clip-rule="evenodd" d="M199.867 183.893C187.8 185.493 176.6 188.76 165.933 193.027C148 202.628 133.133 214.563 119.867 227.631C117.4 234.098 116.2 240.899 115.533 247.833C121.933 265.902 137.267 290.571 152.667 306.106C168.067 313.44 195.933 322.308 215.133 324.775C233.133 319.574 250.333 311.507 266.533 300.239C277.267 287.771 285.2 273.703 290.467 258.101C291.333 253.9 291.933 249.567 292.267 245.166C280.733 230.164 267.6 217.163 253.2 205.628C237.067 196.894 219 190.027 200 183.893H199.867Z" fill="#7A369E"/>
<path fill-rule="evenodd" clip-rule="evenodd" d="M152.6 306.106C159.2 301.906 165.133 296.772 170 289.838C153.067 273.303 134.667 259.834 115.533 247.833C121.933 265.902 137.267 290.571 152.667 306.106H152.6Z" fill="url(#paint39_radial_6_3546)"/>
<path fill-rule="evenodd" clip-rule="evenodd" d="M169.933 289.838C165.133 296.772 159.133 301.906 152.533 306.106C167.933 313.44 195.8 322.308 215 324.775C214.467 314.441 212.4 305.706 208.733 298.572C195.8 297.305 182.867 294.438 169.933 289.771V289.838Z" fill="url(#paint40_radial_6_3546)"/>
<path fill-rule="evenodd" clip-rule="evenodd" d="M229.067 274.303C223.533 282.97 216.667 291.038 208.733 298.639C212.4 305.773 214.467 314.507 215 324.842C233 319.641 250.2 311.574 266.4 300.306C277.133 287.838 285.067 273.769 290.333 258.168C291.2 253.967 291.8 249.633 292.133 245.233C284.667 246.7 276.667 246.966 268.2 246.166C256.667 257.301 243.6 266.635 229.133 274.303H229.067Z" fill="url(#paint41_radial_6_3546)"/>
<path fill-rule="evenodd" clip-rule="evenodd" d="M219.267 228.364C221 243.966 224.333 259.234 229.067 274.303C243.533 266.635 256.6 257.301 268.133 246.166C251.533 241.032 235.2 235.098 219.2 228.364H219.267Z" fill="url(#paint42_radial_6_3546)"/>
<path fill-rule="evenodd" clip-rule="evenodd" d="M219.267 228.364C235.267 235.098 251.6 241.032 268.2 246.166C276.667 246.9 284.667 246.633 292.133 245.233C280.6 230.231 267.467 217.23 253.067 205.695C236.933 196.961 218.867 190.093 199.867 183.959C187.8 185.559 176.6 188.826 165.933 193.094C182.533 206.228 199.8 218.63 219.267 228.364Z" fill="url(#paint43_radial_6_3546)"/>
<path fill-rule="evenodd" clip-rule="evenodd" d="M229.067 274.303C224.333 259.234 221 243.899 219.267 228.364C199.733 218.63 182.533 206.228 165.933 193.094C148 202.695 133.133 214.629 119.867 227.698C117.4 234.165 116.2 240.966 115.533 247.9C134.667 259.901 153.067 273.369 170 289.905C182.933 294.572 195.867 297.439 208.8 298.706C216.733 291.105 223.533 283.037 229.133 274.369L229.067 274.303Z" fill="url(#paint44_radial_6_3546)"/>
<path fill-rule="evenodd" clip-rule="evenodd" d="M92.5333 273.969C84.8666 277.17 52.1999 293.038 39.2666 304.773C40.4666 319.575 39.2666 334.576 37.2 349.645C38.8666 351.845 40.8666 353.912 43.1333 355.979C49.1333 357.312 65.5333 353.645 72.1333 350.511C75.9333 347.911 79.2666 344.577 81.8666 340.31C85.6666 334.043 88.9999 327.375 91.9999 320.641C94.1999 304.773 94.3999 289.171 92.4666 273.969H92.5333Z" fill="url(#paint45_radial_6_3546)"/>
<path fill-rule="evenodd" clip-rule="evenodd" d="M103.933 337.977C96.2 337.843 88.9333 338.777 81.8666 340.31C79.2 344.577 75.8666 347.911 72.1333 350.511C65.6 353.645 49.1333 357.312 43.1333 355.979C52.4666 364.38 65.8666 371.58 75.8666 376.381C84.9333 376.381 93.3333 375.181 101.333 373.047C112.067 367.647 122.333 361.446 131.867 354.245C129 349.911 125.933 345.644 122.4 341.71C116.133 340.11 110 338.977 104 337.977H103.933Z" fill="url(#paint46_radial_6_3546)"/>
<path fill-rule="evenodd" clip-rule="evenodd" d="M81.8667 340.377C88.9334 338.777 96.2 337.843 103.933 338.043C99.4 332.509 95.4 326.775 92 320.708C88.9334 327.509 85.6667 334.11 81.8667 340.377Z" fill="url(#paint47_radial_6_3546)"/>
<path fill-rule="evenodd" clip-rule="evenodd" d="M142.667 325.575C135.533 329.842 128.733 335.176 122.333 341.777C125.933 345.778 128.933 350.045 131.8 354.312C131.8 354.312 131.933 354.245 131.933 354.179C137 345.178 140.6 335.643 142.6 325.575H142.667Z" fill="url(#paint48_radial_6_3546)"/>
<path fill-rule="evenodd" clip-rule="evenodd" d="M122.333 341.71C128.667 335.11 135.467 329.776 142.667 325.509C136.8 312.841 129.533 301.039 120.733 290.171C115.467 285.371 109.733 280.837 103.667 276.436C99.9333 274.836 96.2 274.103 92.4667 273.903C94.3333 289.171 94.2 304.706 92 320.575C95.4 326.642 99.4 332.376 103.933 337.91C109.933 338.91 116.067 340.11 122.333 341.644V341.71Z" fill="url(#paint49_radial_6_3546)"/>
<path fill-rule="evenodd" clip-rule="evenodd" d="M341.4 270.836C340.267 266.035 337.467 255.234 339 252.7C341.8 258.168 343.867 264.168 345.467 270.436C344.067 270.369 342.733 270.436 341.4 270.836Z" fill="url(#paint50_radial_6_3546)"/>
<path fill-rule="evenodd" clip-rule="evenodd" d="M333.067 288.038C336.333 282.57 339.133 276.836 341.4 270.836C342.733 270.436 344.133 270.302 345.467 270.436C344.933 277.437 343.867 284.304 342.133 290.971C339.2 289.838 336.2 288.771 333.067 288.038Z" fill="url(#paint51_radial_6_3546)"/>
<path fill-rule="evenodd" clip-rule="evenodd" d="M333.067 288.038C336.267 288.704 339.267 289.771 342.133 290.971C340.067 294.372 333.467 301.239 328 305.64C327.667 300.906 327.667 296.239 328.133 291.571C330.067 290.638 331.6 289.371 333.067 288.038Z" fill="url(#paint52_radial_6_3546)"/>
<path fill-rule="evenodd" clip-rule="evenodd" d="M328.2 291.571C327.733 296.239 327.733 300.906 328.067 305.64C325.267 307.373 322.333 308.973 318.933 310.507C315.2 308.773 303.733 301.839 299.6 298.706C298.8 297.239 297.133 293.972 296.667 291.771C300.267 290.038 303.533 287.838 306.6 285.371C314.333 289.571 321.533 291.505 328.2 291.571Z" fill="url(#paint53_radial_6_3546)"/>
<path fill-rule="evenodd" clip-rule="evenodd" d="M312.933 259.635C309.667 268.569 307.533 277.17 306.6 285.304C303.533 287.838 300.267 289.971 296.667 291.705C299.333 282.637 305.8 266.569 310.4 257.568C311.267 258.234 312.067 258.901 312.933 259.635Z" fill="url(#paint54_radial_6_3546)"/>
<path fill-rule="evenodd" clip-rule="evenodd" d="M312.933 259.634C312.067 258.968 311.267 258.301 310.4 257.568C314.133 253.967 320.533 249.767 325.4 247.5C321 251.367 316.6 255.301 312.933 259.634Z" fill="url(#paint55_radial_6_3546)"/>
<path fill-rule="evenodd" clip-rule="evenodd" d="M312.933 259.634C316.6 255.301 321 251.434 325.4 247.5C330.2 248.7 334.733 250.367 339.067 252.634C337.533 255.167 340.333 265.969 341.467 270.769C339.2 276.836 336.4 282.504 333.133 287.971C331.733 289.304 330.133 290.505 328.2 291.505C321.467 291.438 314.333 289.504 306.6 285.304C307.533 277.17 309.667 268.635 312.933 259.634Z" fill="url(#paint56_radial_6_3546)"/>
<path style="mix-blend-mode:multiply" fill-rule="evenodd" clip-rule="evenodd" d="M31.4 164.29C35 167.157 43.9334 175.358 53.6667 176.158C72.2 175.758 101.267 170.158 114.8 163.357C124.8 148.489 128.133 122.352 129.267 102.15C126.067 93.8158 123.267 88.4819 117.4 81.0144C92 111.018 56.8 134.22 31.4 164.29Z" fill="url(#paint57_radial_6_3546)"/>
<path fill-rule="evenodd" clip-rule="evenodd" d="M54.8667 172.158C49.2 167.557 44.0667 162.424 39.6 156.623C31.8 155.689 20.9333 151.622 16.5333 148.955C23.3333 158.09 31.6 165.357 41.1333 171.091C43.4 171.691 52.4 172.491 54.8 172.158H54.8667Z" fill="url(#paint58_radial_6_3546)"/>
<path fill-rule="evenodd" clip-rule="evenodd" d="M39.6 156.623C44.0666 162.357 49.2 167.557 54.8666 172.158C64.9333 171.091 99.2666 159.156 104.533 154.623C98.7333 147.689 93.9333 139.354 89.9333 130.087C74.2 140.354 57.3333 149.089 39.6 156.69V156.623Z" fill="url(#paint59_radial_6_3546)"/>
<path fill-rule="evenodd" clip-rule="evenodd" d="M90 130.02C94 139.288 98.7333 147.622 104.6 154.556C114.533 135.954 119.333 122.419 123.333 101.083C123.2 96.8828 122.733 92.6824 121.667 88.6152C119.067 83.4147 116 78.4141 112.667 73.5469C107 93.6825 99.1333 112.285 90 129.953V130.02Z" fill="url(#paint60_radial_6_3546)"/>
<path fill-rule="evenodd" clip-rule="evenodd" d="M39.6 156.623C57.3333 149.022 74.2 140.288 89.9333 130.02C99 112.351 106.933 93.7491 112.6 73.6135C106.6 67.0128 95.3333 58.2785 87.4 53.7446C73.0666 59.4786 55.6666 71.3466 41.8666 83.1479C31.8 94.3492 17.8 118.085 15.0666 126.353C14.6 133.954 15.0667 141.488 16.6 148.955C21 151.622 31.8666 155.689 39.6666 156.623H39.6Z" fill="url(#paint61_radial_6_3546)"/>
<path style="mix-blend-mode:multiply" fill-rule="evenodd" clip-rule="evenodd" d="M13.9333 218.23C13.9333 233.298 15.5334 248.033 18.5334 262.168C34.9334 259.168 45.4 258.301 61.2667 250.3C62.1334 231.765 52.2 206.228 35.9333 191.027L14.9334 197.494C14.2667 204.295 13.9333 211.229 13.9333 218.163V218.23Z" fill="url(#paint62_radial_6_3546)"/>
<path fill-rule="evenodd" clip-rule="evenodd" d="M7.59998 252.9C10.9333 255.567 14.2666 258.034 17.6 260.301C18.5333 260.768 19.5333 261.168 20.4666 261.501C18.8666 262.368 16.2 263.235 15.4 263.235C11.4 259.368 9.06664 255.501 7.59998 252.967V252.9Z" fill="url(#paint63_radial_6_3546)"/>
<path fill-rule="evenodd" clip-rule="evenodd" d="M17.6666 260.301C19.2 253.5 21.4 247.1 24.6666 241.166C33.2666 241.833 41.8 242.033 50.2 241.366C43.6666 248.3 33.7333 255.034 20.5333 261.501C19.6 261.168 18.6 260.835 17.6666 260.301Z" fill="url(#paint64_radial_6_3546)"/>
<path fill-rule="evenodd" clip-rule="evenodd" d="M24.6 241.166C21.4 247.1 19.2 253.5 17.6 260.301C14.2 258.034 10.8667 255.567 7.60002 252.9C4.80002 245.366 2.46669 237.365 0.400024 229.098C0.400024 218.963 0.733358 208.829 1.53336 198.694C2.93336 197.361 7.13336 194.227 10 192.96C15.8667 193.427 21.7334 193.627 27.6 193.427C28.2667 194.094 29.1334 194.627 30.2667 195.094C21.8 204.495 19.9334 213.629 22.4 222.564C21.2 229.631 22.2667 235.632 24.6 241.099V241.166Z" fill="url(#paint65_radial_6_3546)"/>
<path fill-rule="evenodd" clip-rule="evenodd" d="M24.6 241.166C22.2666 235.698 21.2 229.698 22.4 222.63C19.9333 213.696 21.8 204.562 30.2666 195.161C32.9333 195.161 35.8666 195.027 39.1333 194.694C41.6666 200.294 50.6666 228.031 50.1333 241.366C41.7333 242.033 33.2 241.899 24.6 241.166Z" fill="url(#paint66_radial_6_3546)"/>
<path fill-rule="evenodd" clip-rule="evenodd" d="M39.1333 194.627C35.8666 194.961 32.9333 195.094 30.2666 195.094C29.1333 194.627 28.3333 194.027 27.6 193.427C30.2666 192.494 33 191.694 35.8666 191.094C37.1333 192.16 38.2 193.294 39.1333 194.627Z" fill="url(#paint67_radial_6_3546)"/>
<path fill-rule="evenodd" clip-rule="evenodd" d="M35.9333 191.093C33.0667 191.693 30.3333 192.494 27.6667 193.427C21.7333 193.56 15.8667 193.427 10.0667 192.96C14.8 190.627 19.5333 188.493 24.4 186.626C28.4 187.96 32.2667 189.493 35.9333 191.16V191.093Z" fill="url(#paint68_radial_6_3546)"/>
<path fill-rule="evenodd" clip-rule="evenodd" d="M163.6 112.685C162.867 102.417 163.6 92.4157 165.533 82.5479C167.867 91.5489 172.2 100.75 176.867 109.684C172.133 110.218 167.733 111.351 163.6 112.751V112.685Z" fill="url(#paint69_radial_6_3546)"/>
<path fill-rule="evenodd" clip-rule="evenodd" d="M163.6 112.685C167.733 111.285 172.133 110.218 176.867 109.618C183.6 116.285 190.733 122.819 199.333 128.887C196.533 136.554 193.067 143.688 189.267 150.556C179.067 138.154 171 125.486 163.667 112.685H163.6Z" fill="url(#paint70_radial_6_3546)"/>
<path fill-rule="evenodd" clip-rule="evenodd" d="M189.267 150.622C193.067 143.755 196.533 136.621 199.333 128.953C211.067 127.42 222.333 124.553 233.267 120.619C243.867 138.954 255.2 156.49 268.2 172.425C261 175.425 253.733 177.292 246.533 178.625C226.067 172.491 207.267 162.424 189.267 150.622Z" fill="url(#paint71_radial_6_3546)"/>
<path fill-rule="evenodd" clip-rule="evenodd" d="M268.2 172.358C255.2 156.423 243.8 138.888 233.267 120.552C237.733 115.418 242.133 110.218 246.6 105.084C254.8 106.217 264.933 108.084 273.6 111.418C283.467 120.019 290.8 128.553 297 137.154C289.6 150.556 280.333 162.557 268.2 172.358Z" fill="url(#paint72_radial_6_3546)"/>
<path fill-rule="evenodd" clip-rule="evenodd" d="M297 137.221C290.8 128.62 283.4 120.019 273.6 111.485C275.467 101.483 275.333 90.8155 274.6 79.9476C284.4 98.483 292.133 117.485 297.067 137.221H297Z" fill="url(#paint73_radial_6_3546)"/>
<path fill-rule="evenodd" clip-rule="evenodd" d="M274.533 79.9476C275.267 90.8155 275.467 101.417 273.533 111.485C264.867 108.151 254.733 106.284 246.533 105.15C242.4 93.2158 235.933 79.7476 230.133 71.2133C226.867 69.0798 211.067 61.8123 201.267 59.8787C211.267 60.8788 224.133 62.6124 230.733 64.2792C243.667 68.1463 260.333 74.8804 274.467 80.0143L274.533 79.9476Z" fill="url(#paint74_radial_6_3546)"/>
<path fill-rule="evenodd" clip-rule="evenodd" d="M230.2 71.1466C236 79.6809 242.467 93.1491 246.6 105.084C242.133 110.218 237.733 115.418 233.267 120.552C222.333 124.553 211.067 127.353 199.333 128.886C190.8 122.819 183.6 116.285 176.867 109.618C172.2 100.683 167.867 91.4823 165.533 82.4812C172.667 75.5471 190 64.2125 201.267 59.7454C211.067 61.6789 226.867 68.9464 230.133 71.08L230.2 71.1466Z" fill="url(#paint75_radial_6_3546)"/>
<g style="mix-blend-mode:screen">
<path fill-rule="evenodd" clip-rule="evenodd" d="M191.533 123.153C193.4 121.086 206.6 122.953 209.2 128.02C210.267 130.153 200.133 135.821 197.133 135.221C195.133 134.821 189.733 125.219 191.533 123.219V123.153Z" fill="#796AE5"/>
</g>
<path fill-rule="evenodd" clip-rule="evenodd" d="M191 122.952C192.733 121.019 206.4 124.219 207.933 127.62C208.8 129.62 199.6 135.42 196.8 134.887C194.933 134.487 189.333 124.819 191 122.952Z" fill="url(#paint76_radial_6_3546)"/>
<path style="mix-blend-mode:screen" opacity="0.75" fill-rule="evenodd" clip-rule="evenodd" d="M219.267 228.364C199.733 218.63 182.533 206.228 165.933 193.094C148 202.695 133.133 214.629 119.867 227.698C117.4 234.165 116.2 240.966 115.533 247.9C127.667 255.501 139.467 263.702 150.867 272.903C167.467 273.503 211 246.633 219.333 228.431L219.267 228.364Z" fill="url(#paint77_radial_6_3546)"/>
<path style="mix-blend-mode:screen" fill-rule="evenodd" clip-rule="evenodd" d="M39.6 156.623C57.3333 149.022 74.2 140.288 89.9333 130.02C99 112.351 106.933 93.7491 112.6 73.6135C106.6 67.0128 95.3333 58.2785 87.4 53.7446C73.0666 59.4786 55.6666 71.3466 41.8666 83.1479C31.8 94.3492 17.8 118.085 15.0666 126.353C14.6 133.954 15.0667 141.488 16.6 148.955C21 151.622 31.8666 155.689 39.6666 156.623H39.6Z" fill="url(#paint78_radial_6_3546)"/>
<path style="mix-blend-mode:screen" fill-rule="evenodd" clip-rule="evenodd" d="M230.2 71.1466C236 79.6809 242.467 93.1491 246.6 105.084C242.133 110.218 237.733 115.418 233.267 120.552C222.333 124.553 211.067 127.353 199.333 128.886C190.8 122.819 183.6 116.285 176.867 109.618C172.2 100.683 167.867 91.4823 165.533 82.4812C172.667 75.5471 190 64.2125 201.267 59.7454C211.067 61.6789 226.867 68.9464 230.133 71.08L230.2 71.1466Z" fill="url(#paint79_radial_6_3546)"/>
<defs>
<radialGradient id="paint0_radial_6_3546" cx="0" cy="0" r="1" gradientUnits="userSpaceOnUse" gradientTransform="translate(158.133 119.019) scale(345.467 345.506)">
<stop stop-color="#94FFE1"/>
<stop offset="0.09" stop-color="#87F8DC"/>
<stop offset="0.25" stop-color="#67E8D0"/>
<stop offset="0.47" stop-color="#33CEBD"/>
<stop offset="0.5" stop-color="#2DCBBB"/>
<stop offset="0.96" stop-color="#008A86"/>
</radialGradient>
<radialGradient id="paint1_radial_6_3546" cx="0" cy="0" r="1" gradientUnits="userSpaceOnUse" gradientTransform="translate(251.6 255.634) scale(258.8 258.829)">
<stop offset="0.04"/>
<stop offset="0.84"/>
<stop offset="0.85" stop-color="#0B1511"/>
<stop offset="0.9" stop-color="#366751"/>
<stop offset="0.93" stop-color="#57A884"/>
<stop offset="0.96" stop-color="#70D7A8"/>
<stop offset="0.99" stop-color="#7FF4BF"/>
<stop offset="1" stop-color="#85FFC8"/>
</radialGradient>
<radialGradient id="paint2_radial_6_3546" cx="0" cy="0" r="1" gradientUnits="userSpaceOnUse" gradientTransform="translate(153.8 134.887) scale(352.267 352.306)">
<stop offset="0.33" stop-color="white"/>
<stop offset="0.4" stop-color="#F3FAFA"/>
<stop offset="0.52" stop-color="#D6EDEC"/>
<stop offset="0.68" stop-color="#A6D9D6"/>
<stop offset="0.87" stop-color="#64BDB9"/>
<stop offset="1" stop-color="#35AAA4"/>
</radialGradient>
<radialGradient id="paint3_radial_6_3546" cx="0" cy="0" r="1" gradientUnits="userSpaceOnUse" gradientTransform="translate(77.5333 44.9437) scale(323.8 323.836)">
<stop stop-color="#C4FFE2"/>
<stop offset="1"/>
</radialGradient>
<radialGradient id="paint4_radial_6_3546" cx="0" cy="0" r="1" gradientUnits="userSpaceOnUse" gradientTransform="translate(395.267 185.026) scale(108.8 108.812)">
<stop stop-color="#AB46DB"/>
<stop offset="1" stop-color="#DA92F7"/>
</radialGradient>
<radialGradient id="paint5_radial_6_3546" cx="0" cy="0" r="1" gradientUnits="userSpaceOnUse" gradientTransform="translate(412.467 107.884) scale(85.2 85.2096)">
<stop stop-color="#B24CED"/>
<stop offset="1" stop-color="#791D9B"/>
</radialGradient>
<radialGradient id="paint6_radial_6_3546" cx="0" cy="0" r="1" gradientUnits="userSpaceOnUse" gradientTransform="translate(377.467 150.822) scale(71.4 71.408)">
<stop stop-color="#B24CED"/>
<stop offset="1" stop-color="#73069B"/>
</radialGradient>
<radialGradient id="paint7_radial_6_3546" cx="0" cy="0" r="1" gradientUnits="userSpaceOnUse" gradientTransform="translate(395.333 254.167) scale(56.3333 56.3396)">
<stop stop-color="#D487FF"/>
<stop offset="1" stop-color="#7F34CB"/>
</radialGradient>
<radialGradient id="paint8_radial_6_3546" cx="0" cy="0" r="1" gradientUnits="userSpaceOnUse" gradientTransform="translate(409.733 245.233) scale(107.867 107.879)">
<stop stop-color="#D487FF"/>
<stop offset="1" stop-color="#7F34CB"/>
</radialGradient>
<radialGradient id="paint9_radial_6_3546" cx="0" cy="0" r="1" gradientUnits="userSpaceOnUse" gradientTransform="translate(401.133 301.439) scale(108.2 108.212)">
<stop stop-color="#9D41FC"/>
<stop offset="1" stop-color="#6514A9"/>
</radialGradient>
<radialGradient id="paint10_radial_6_3546" cx="0" cy="0" r="1" gradientUnits="userSpaceOnUse" gradientTransform="translate(377.533 287.838) scale(85.3334 85.3429)">
<stop stop-color="#9D41FC"/>
<stop offset="1" stop-color="#6514A9"/>
</radialGradient>
<radialGradient id="paint11_radial_6_3546" cx="0" cy="0" r="1" gradientUnits="userSpaceOnUse" gradientTransform="translate(383.467 270.302) scale(77.8 77.8088)">
<stop stop-color="#9D41FC"/>
<stop offset="1" stop-color="#6514A9"/>
</radialGradient>
<radialGradient id="paint12_radial_6_3546" cx="0" cy="0" r="1" gradientUnits="userSpaceOnUse" gradientTransform="translate(167.267 -2.52834) scale(42.0667 42.0714)">
<stop stop-color="#C799FF"/>
<stop offset="1" stop-color="#7C4BC4"/>
</radialGradient>
<radialGradient id="paint13_radial_6_3546" cx="0" cy="0" r="1" gradientUnits="userSpaceOnUse" gradientTransform="translate(215.133 24.1413) scale(56.0667 56.073)">
<stop stop-color="#6D31B5"/>
<stop offset="1" stop-color="#9B5BF5"/>
</radialGradient>
<radialGradient id="paint14_radial_6_3546" cx="0" cy="0" r="1" gradientUnits="userSpaceOnUse" gradientTransform="translate(162.267 66.4794) scale(73.6 73.6083)">
<stop stop-color="#9B5BF5"/>
<stop offset="1" stop-color="#5617A3"/>
</radialGradient>
<radialGradient id="paint15_radial_6_3546" cx="0" cy="0" r="1" gradientUnits="userSpaceOnUse" gradientTransform="translate(312.133 265.702) scale(60.4667 60.4735)">
<stop stop-color="#1A4340"/>
<stop offset="1" stop-color="white"/>
</radialGradient>
<radialGradient id="paint16_radial_6_3546" cx="0" cy="0" r="1" gradientUnits="userSpaceOnUse" gradientTransform="translate(314.133 172.425) scale(42.7333 42.7381)">
<stop stop-color="#1A4340"/>
<stop offset="1" stop-color="white"/>
</radialGradient>
<radialGradient id="paint17_radial_6_3546" cx="0" cy="0" r="1" gradientUnits="userSpaceOnUse" gradientTransform="translate(344.8 184.959) scale(65.8 65.8074)">
<stop stop-color="#BA92FF"/>
<stop offset="1" stop-color="#7A5AEF"/>
</radialGradient>
<radialGradient id="paint18_radial_6_3546" cx="0" cy="0" r="1" gradientUnits="userSpaceOnUse" gradientTransform="translate(313.4 186.026) scale(37.4667 37.4709)">
<stop stop-color="#9969FF"/>
<stop offset="1" stop-color="#6B3FE0"/>
</radialGradient>
<radialGradient id="paint19_radial_6_3546" cx="0" cy="0" r="1" gradientUnits="userSpaceOnUse" gradientTransform="translate(308 171.691) scale(43.4667 43.4716)">
<stop stop-color="#9969FF"/>
<stop offset="1" stop-color="#613BCE"/>
</radialGradient>
<radialGradient id="paint20_radial_6_3546" cx="0" cy="0" r="1" gradientUnits="userSpaceOnUse" gradientTransform="translate(312.533 162.557) scale(48.2666 48.2721)">
<stop stop-color="#9969FF"/>
<stop offset="1" stop-color="#6B3FE0"/>
</radialGradient>
<radialGradient id="paint21_radial_6_3546" cx="0" cy="0" r="1" gradientUnits="userSpaceOnUse" gradientTransform="translate(282.467 352.312) scale(86.0667 86.0763)">
<stop stop-color="#1A4340"/>
<stop offset="1" stop-color="white"/>
</radialGradient>
<radialGradient id="paint22_radial_6_3546" cx="0" cy="0" r="1" gradientUnits="userSpaceOnUse" gradientTransform="translate(235.067 342.911) scale(97.5333 97.5444)">
<stop stop-color="#C799FF"/>
<stop offset="1" stop-color="#7C4BC4"/>
</radialGradient>
<radialGradient id="paint23_radial_6_3546" cx="0" cy="0" r="1" gradientUnits="userSpaceOnUse" gradientTransform="translate(245.2 454.723) scale(126 126.014)">
<stop stop-color="#C799FF"/>
<stop offset="1" stop-color="#7C4BC4"/>
</radialGradient>
<radialGradient id="paint24_radial_6_3546" cx="0" cy="0" r="1" gradientUnits="userSpaceOnUse" gradientTransform="translate(179.333 247.633) scale(215.667 215.691)">
<stop stop-color="#AC70FF"/>
<stop offset="1" stop-color="#6D31B5"/>
</radialGradient>
<radialGradient id="paint25_radial_6_3546" cx="0" cy="0" r="1" gradientUnits="userSpaceOnUse" gradientTransform="translate(238.067 425.92) scale(105.733 105.745)">
<stop stop-color="#9B5BF5"/>
<stop offset="1" stop-color="#5A1DA3"/>
</radialGradient>
<radialGradient id="paint26_radial_6_3546" cx="0" cy="0" r="1" gradientUnits="userSpaceOnUse" gradientTransform="translate(235.533 312.307) scale(163.667 163.685)">
<stop stop-color="#9B5BF5"/>
<stop offset="1" stop-color="#6D31B5"/>
</radialGradient>
<radialGradient id="paint27_radial_6_3546" cx="0" cy="0" r="1" gradientUnits="userSpaceOnUse" gradientTransform="translate(163.667 394.116) scale(47.3333 47.3387)">
<stop stop-color="#1A4340"/>
<stop offset="1" stop-color="white"/>
</radialGradient>
<radialGradient id="paint28_radial_6_3546" cx="0" cy="0" r="1" gradientUnits="userSpaceOnUse" gradientTransform="translate(139.2 367.38) scale(60.2 60.2068)">
<stop stop-color="#D487FF"/>
<stop offset="1" stop-color="#7F34CB"/>
</radialGradient>
<radialGradient id="paint29_radial_6_3546" cx="0" cy="0" r="1" gradientUnits="userSpaceOnUse" gradientTransform="translate(152.133 439.588) scale(225.267 225.292)">
<stop stop-color="#7019BC"/>
<stop offset="1" stop-color="#9D41FC"/>
</radialGradient>
<radialGradient id="paint30_radial_6_3546" cx="0" cy="0" r="1" gradientUnits="userSpaceOnUse" gradientTransform="translate(124.867 395.116) scale(86.6667 86.6764)">
<stop stop-color="#9D41FC"/>
<stop offset="1" stop-color="#6514A9"/>
</radialGradient>
<radialGradient id="paint31_radial_6_3546" cx="0" cy="0" r="1" gradientUnits="userSpaceOnUse" gradientTransform="translate(291.2 40.2098) scale(73.9333 73.9417)">
<stop stop-color="#1A4340"/>
<stop offset="1" stop-color="white"/>
</radialGradient>
<radialGradient id="paint32_radial_6_3546" cx="0" cy="0" r="1" gradientUnits="userSpaceOnUse" gradientTransform="translate(298.267 18.474) scale(37.1333 37.1375)">
<stop stop-color="#9B5BF5"/>
<stop offset="1" stop-color="#5617A3"/>
</radialGradient>
<radialGradient id="paint33_radial_6_3546" cx="0" cy="0" r="1" gradientUnits="userSpaceOnUse" gradientTransform="translate(294.267 12.4067) scale(52.4 52.4059)">
<stop stop-color="#9B5BF5"/>
<stop offset="1" stop-color="#5617A3"/>
</radialGradient>
<radialGradient id="paint34_radial_6_3546" cx="0" cy="0" r="1" gradientUnits="userSpaceOnUse" gradientTransform="translate(291.867 27.5417) scale(46 46.0052)">
<stop stop-color="#9B5BF5"/>
<stop offset="1" stop-color="#5617A3"/>
</radialGradient>
<radialGradient id="paint35_radial_6_3546" cx="0" cy="0" r="1" gradientUnits="userSpaceOnUse" gradientTransform="translate(278.067 36.7427) scale(55.6666 55.6729)">
<stop stop-color="#9B5BF5"/>
<stop offset="1" stop-color="#622CA3"/>
</radialGradient>
<radialGradient id="paint36_radial_6_3546" cx="0" cy="0" r="1" gradientUnits="userSpaceOnUse" gradientTransform="translate(291.333 38.0762) scale(46.2 46.2052)">
<stop stop-color="#BA82FF"/>
<stop offset="1" stop-color="#7C4BC4"/>
</radialGradient>
<radialGradient id="paint37_radial_6_3546" cx="0" cy="0" r="1" gradientUnits="userSpaceOnUse" gradientTransform="translate(283.533 3.67238) scale(69.2667 69.2745)">
<stop stop-color="#BA82FF"/>
<stop offset="1" stop-color="#7C4BC4"/>
</radialGradient>
<radialGradient id="paint38_radial_6_3546" cx="0" cy="0" r="1" gradientUnits="userSpaceOnUse" gradientTransform="translate(162.933 179.426) scale(229.6 229.626)">
<stop stop-color="#1A4340"/>
<stop offset="1" stop-color="white"/>
</radialGradient>
<radialGradient id="paint39_radial_6_3546" cx="0" cy="0" r="1" gradientUnits="userSpaceOnUse" gradientTransform="translate(116.933 248.367) scale(148.867 148.883)">
<stop stop-color="#AC70FF"/>
<stop offset="1" stop-color="#6D31B5"/>
</radialGradient>
<radialGradient id="paint40_radial_6_3546" cx="0" cy="0" r="1" gradientUnits="userSpaceOnUse" gradientTransform="translate(212.067 227.831) scale(126.133 126.148)">
<stop stop-color="#9B5BF5"/>
<stop offset="1" stop-color="#622CA3"/>
</radialGradient>
<radialGradient id="paint41_radial_6_3546" cx="0" cy="0" r="1" gradientUnits="userSpaceOnUse" gradientTransform="translate(170.933 171.291) scale(167.933 167.952)">
<stop stop-color="#9B5BF5"/>
<stop offset="1" stop-color="#5A1DA3"/>
</radialGradient>
<radialGradient id="paint42_radial_6_3546" cx="0" cy="0" r="1" gradientUnits="userSpaceOnUse" gradientTransform="translate(175.333 151.422) scale(140.067 140.082)">
<stop stop-color="#BA82FF"/>
<stop offset="1" stop-color="#7C4BC4"/>
</radialGradient>
<radialGradient id="paint43_radial_6_3546" cx="0" cy="0" r="1" gradientUnits="userSpaceOnUse" gradientTransform="translate(291.6 243.833) scale(133.333 133.348)">
<stop stop-color="#6D31B5"/>
<stop offset="1" stop-color="#9B5BF5"/>
</radialGradient>
<radialGradient id="paint44_radial_6_3546" cx="0" cy="0" r="1" gradientUnits="userSpaceOnUse" gradientTransform="translate(135.467 211.362) scale(199.733 199.756)">
<stop stop-color="#C799FF"/>
<stop offset="1" stop-color="#7C4BC4"/>
</radialGradient>
<radialGradient id="paint45_radial_6_3546" cx="0" cy="0" r="1" gradientUnits="userSpaceOnUse" gradientTransform="translate(31.3333 294.638) scale(99.7333 99.7445)">
<stop stop-color="#AB46DB"/>
<stop offset="1" stop-color="#DA92F7"/>
</radialGradient>
<radialGradient id="paint46_radial_6_3546" cx="0" cy="0" r="1" gradientUnits="userSpaceOnUse" gradientTransform="translate(81.1333 318.108) scale(83.2 83.2093)">
<stop stop-color="#B24CED"/>
<stop offset="1" stop-color="#791D9B"/>
</radialGradient>
<radialGradient id="paint47_radial_6_3546" cx="0" cy="0" r="1" gradientUnits="userSpaceOnUse" gradientTransform="translate(107.067 314.841) scale(49.7334 49.7389)">
<stop stop-color="#D173F7"/>
<stop offset="1" stop-color="#933CBC"/>
</radialGradient>
<radialGradient id="paint48_radial_6_3546" cx="0" cy="0" r="1" gradientUnits="userSpaceOnUse" gradientTransform="translate(83.6667 310.64) scale(67.7333 67.7409)">
<stop stop-color="#B24CED"/>
<stop offset="1" stop-color="#73069B"/>
</radialGradient>
<radialGradient id="paint49_radial_6_3546" cx="0" cy="0" r="1" gradientUnits="userSpaceOnUse" gradientTransform="translate(157.733 319.908) scale(125.867 125.881)">
<stop stop-color="#7A10AD"/>
<stop offset="1" stop-color="#B24CED"/>
</radialGradient>
<radialGradient id="paint50_radial_6_3546" cx="0" cy="0" r="1" gradientUnits="userSpaceOnUse" gradientTransform="translate(355.333 258.501) scale(53.3332 53.3393)">
<stop stop-color="#9B5BF5"/>
<stop offset="1" stop-color="#5A1DA3"/>
</radialGradient>
<radialGradient id="paint51_radial_6_3546" cx="0" cy="0" r="1" gradientUnits="userSpaceOnUse" gradientTransform="translate(315.733 271.503) scale(40.2666 40.2712)">
<stop stop-color="#9B5BF5"/>
<stop offset="1" stop-color="#5A1DA3"/>
</radialGradient>
<radialGradient id="paint52_radial_6_3546" cx="0" cy="0" r="1" gradientUnits="userSpaceOnUse" gradientTransform="translate(316.133 274.703) scale(43.4 43.4049)">
<stop stop-color="#9B5BF5"/>
<stop offset="1" stop-color="#5A1DA3"/>
</radialGradient>
<radialGradient id="paint53_radial_6_3546" cx="0" cy="0" r="1" gradientUnits="userSpaceOnUse" gradientTransform="translate(312.067 269.836) scale(52.1334 52.1392)">
<stop stop-color="#AC70FF"/>
<stop offset="1" stop-color="#6D31B5"/>
</radialGradient>
<radialGradient id="paint54_radial_6_3546" cx="0" cy="0" r="1" gradientUnits="userSpaceOnUse" gradientTransform="translate(326.733 284.771) scale(59.4667 59.4733)">
<stop stop-color="#9B5BF5"/>
<stop offset="1" stop-color="#5A1DA3"/>
</radialGradient>
<radialGradient id="paint55_radial_6_3546" cx="0" cy="0" r="1" gradientUnits="userSpaceOnUse" gradientTransform="translate(318.4 248.767) scale(47.3333 47.3387)">
<stop stop-color="#B173FF"/>
<stop offset="1" stop-color="#7C4BC4"/>
</radialGradient>
<radialGradient id="paint56_radial_6_3546" cx="0" cy="0" r="1" gradientUnits="userSpaceOnUse" gradientTransform="translate(318.067 247.433) scale(68.4667 68.4744)">
<stop stop-color="#C799FF"/>
<stop offset="1" stop-color="#7C4BC4"/>
</radialGradient>
<radialGradient id="paint57_radial_6_3546" cx="0" cy="0" r="1" gradientUnits="userSpaceOnUse" gradientTransform="translate(64.1334 99.4165) scale(88.9333 88.9433)">
<stop stop-color="#1A4340"/>
<stop offset="1" stop-color="white"/>
</radialGradient>
<radialGradient id="paint58_radial_6_3546" cx="0" cy="0" r="1" gradientUnits="userSpaceOnUse" gradientTransform="translate(24.9333 135.754) scale(66.9333 66.9409)">
<stop stop-color="#BD6AFF"/>
<stop offset="1" stop-color="#7F34CB"/>
</radialGradient>
<radialGradient id="paint59_radial_6_3546" cx="0" cy="0" r="1" gradientUnits="userSpaceOnUse" gradientTransform="translate(133 197.427) scale(107.6 107.612)">
<stop stop-color="#7019BC"/>
<stop offset="1" stop-color="#9D41FC"/>
</radialGradient>
<radialGradient id="paint60_radial_6_3546" cx="0" cy="0" r="1" gradientUnits="userSpaceOnUse" gradientTransform="translate(-8.73333 77.4806) scale(148.667 148.683)">
<stop stop-color="#9D41FC"/>
<stop offset="1" stop-color="#6514A9"/>
</radialGradient>
<radialGradient id="paint61_radial_6_3546" cx="0" cy="0" r="1" gradientUnits="userSpaceOnUse" gradientTransform="translate(45.2666 78.9475) scale(235.2 235.226)">
<stop stop-color="#D487FF"/>
<stop offset="1" stop-color="#7F34CB"/>
</radialGradient>
<radialGradient id="paint62_radial_6_3546" cx="0" cy="0" r="1" gradientUnits="userSpaceOnUse" gradientTransform="translate(-2.26666 206.162) scale(82.4 82.4093)">
<stop stop-color="#1A4340"/>
<stop offset="1" stop-color="white"/>
</radialGradient>
<radialGradient id="paint63_radial_6_3546" cx="0" cy="0" r="1" gradientUnits="userSpaceOnUse" gradientTransform="translate(14.0666 248.1) scale(22.7333 22.7359)">
<stop stop-color="#BA82FF"/>
<stop offset="1" stop-color="#7C4BC4"/>
</radialGradient>
<radialGradient id="paint64_radial_6_3546" cx="0" cy="0" r="1" gradientUnits="userSpaceOnUse" gradientTransform="translate(-2.20004 201.695) scale(68.6 68.6077)">
<stop stop-color="#9B5BF5"/>
<stop offset="1" stop-color="#622CA3"/>
</radialGradient>
<radialGradient id="paint65_radial_6_3546" cx="0" cy="0" r="1" gradientUnits="userSpaceOnUse" gradientTransform="translate(0.266695 173.758) scale(98.7333 98.7444)">
<stop stop-color="#CCA3FF"/>
<stop offset="1" stop-color="#7C4BC4"/>
</radialGradient>
<radialGradient id="paint66_radial_6_3546" cx="0" cy="0" r="1" gradientUnits="userSpaceOnUse" gradientTransform="translate(11.3333 185.493) scale(88.5333 88.5433)">
<stop stop-color="#9B5BF5"/>
<stop offset="1" stop-color="#622CA3"/>
</radialGradient>
<radialGradient id="paint67_radial_6_3546" cx="0" cy="0" r="1" gradientUnits="userSpaceOnUse" gradientTransform="translate(27.1333 192.427) scale(31.7333 31.737)">
<stop stop-color="#9B5BF5"/>
<stop offset="1" stop-color="#6D31B5"/>
</radialGradient>
<radialGradient id="paint68_radial_6_3546" cx="0" cy="0" r="1" gradientUnits="userSpaceOnUse" gradientTransform="translate(19.4 188.626) scale(46.2 46.2052)">
<stop stop-color="#D4B3FF"/>
<stop offset="1" stop-color="#7C4BC4"/>
</radialGradient>
<radialGradient id="paint69_radial_6_3546" cx="0" cy="0" r="1" gradientUnits="userSpaceOnUse" gradientTransform="translate(163.667 94.5493) scale(155.333 155.351)">
<stop stop-color="#C799FF"/>
<stop offset="1" stop-color="#8E56E0"/>
</radialGradient>
<radialGradient id="paint70_radial_6_3546" cx="0" cy="0" r="1" gradientUnits="userSpaceOnUse" gradientTransform="translate(184.733 92.4157) scale(95.5333 95.5441)">
<stop stop-color="#AC70FF"/>
<stop offset="1" stop-color="#6D31B5"/>
</radialGradient>
<radialGradient id="paint71_radial_6_3546" cx="0" cy="0" r="1" gradientUnits="userSpaceOnUse" gradientTransform="translate(217.2 112.418) scale(300.667 300.701)">
<stop stop-color="#9B5BF5"/>
<stop offset="1" stop-color="#622CA3"/>
</radialGradient>
<radialGradient id="paint72_radial_6_3546" cx="0" cy="0" r="1" gradientUnits="userSpaceOnUse" gradientTransform="translate(192.333 99.9498) scale(154.067 154.084)">
<stop stop-color="#9B5BF5"/>
<stop offset="1" stop-color="#622CA3"/>
</radialGradient>
<radialGradient id="paint73_radial_6_3546" cx="0" cy="0" r="1" gradientUnits="userSpaceOnUse" gradientTransform="translate(206 136.621) scale(90.1333 90.1435)">
<stop stop-color="#9B5BF5"/>
<stop offset="1" stop-color="#5A1DA3"/>
</radialGradient>
<radialGradient id="paint74_radial_6_3546" cx="0" cy="0" r="1" gradientUnits="userSpaceOnUse" gradientTransform="translate(186.467 108.284) scale(103.4 103.412)">
<stop stop-color="#9B5BF5"/>
<stop offset="1" stop-color="#6D31B5"/>
</radialGradient>
<radialGradient id="paint75_radial_6_3546" cx="0" cy="0" r="1" gradientUnits="userSpaceOnUse" gradientTransform="translate(167.467 108.217) scale(157 157.018)">
<stop stop-color="#B980FF"/>
<stop offset="1" stop-color="#883FF2"/>
</radialGradient>
<radialGradient id="paint76_radial_6_3546" cx="0" cy="0" r="1" gradientUnits="userSpaceOnUse" gradientTransform="translate(195.867 119.685) scale(15.8667 15.8685)">
<stop stop-color="#6D31B5"/>
<stop offset="1" stop-color="#9B5BF5"/>
</radialGradient>
<radialGradient id="paint77_radial_6_3546" cx="0" cy="0" r="1" gradientUnits="userSpaceOnUse" gradientTransform="translate(122.933 150.822) scale(128.2 128.214)">
<stop stop-color="white"/>
<stop offset="1"/>
</radialGradient>
<radialGradient id="paint78_radial_6_3546" cx="0" cy="0" r="1" gradientUnits="userSpaceOnUse" gradientTransform="translate(50.6666 29.3419) scale(107.2 107.212)">
<stop stop-color="white"/>
<stop offset="1"/>
</radialGradient>
<radialGradient id="paint79_radial_6_3546" cx="0" cy="0" r="1" gradientUnits="userSpaceOnUse" gradientTransform="translate(171.733 43.4769) scale(83.1333 83.1427)">
<stop stop-color="white"/>
<stop offset="1"/>
</radialGradient>
</defs>
</svg>
